<svg width="182" height="182" viewBox="0 0 182 182" fill="none" xmlns="http://www.w3.org/2000/svg">
<path opacity="0.299" d="M105.5 166C142.779 166 173 136.003 173 99C173 61.9969 142.779 32 105.5 32C68.221 32 38.0002 61.9969 38.0002 99C38.0002 136.003 68.221 166 105.5 166Z" fill="#359550" fill-opacity="0.5"/>
<mask id="mask0_62_28" style="mask-type:luminance" maskUnits="userSpaceOnUse" x="67" y="59" width="77" height="82">
<path d="M143.702 59H67.0002V140.16H143.702V59Z" fill="white"/>
</mask>
<g mask="url(#mask0_62_28)">
<path d="M139.629 85.0428L113.669 62.0328C111.468 60.0921 108.639 59.0147 105.705 59.0001C102.77 58.9856 99.9302 60.035 97.7102 61.9538L71.1642 85.0178C69.8568 86.153 68.8083 87.5559 68.09 89.1314C67.3716 90.7069 66.9999 92.4183 67.0002 94.1498V128.063C67.0032 131.271 68.2789 134.347 70.5475 136.616C72.816 138.884 75.892 140.16 79.1002 140.163H131.606C134.815 140.16 137.891 138.885 140.16 136.616C142.428 134.348 143.704 131.271 143.706 128.063V94.0998C143.706 92.3888 143.343 90.6973 142.641 89.1368C141.939 87.5764 140.914 86.1824 139.634 85.0468M137.713 94.0998V128.063C137.705 128.678 137.604 129.287 137.413 129.872L118.6 113.03L137.7 93.9238C137.7 93.9808 137.708 94.0388 137.708 94.0958M101.636 66.4748C102.757 65.5047 104.192 64.9741 105.674 64.9815C107.157 64.9888 108.586 65.5336 109.697 66.5148L134.586 88.5748L114.129 109.032L113.829 108.76C112.308 107.264 110.417 106.199 108.348 105.676V87.3478L111.533 90.7358C112.05 91.2519 112.711 91.6 113.429 91.7343C114.147 91.8687 114.889 91.7831 115.557 91.4888C116.015 91.3022 116.421 91.007 116.739 90.6285C117.057 90.2501 117.279 89.7999 117.384 89.3168C117.479 88.861 117.461 88.389 117.333 87.9416C117.204 87.4942 116.969 87.0848 116.646 86.7488L107.906 77.4568C107.211 76.8124 106.297 76.4549 105.349 76.456C104.401 76.4571 103.488 76.8168 102.794 77.4628L94.0622 86.7488C93.5514 87.2861 93.2652 87.9984 93.2622 88.7398C93.2699 89.3329 93.4531 89.9103 93.7888 90.3992C94.1245 90.8882 94.5976 91.2666 95.1482 91.4868H95.1542C95.619 91.686 96.1196 91.7881 96.6252 91.7868C97.1009 91.7925 97.5727 91.7015 98.0121 91.5192C98.4515 91.337 98.8492 91.0674 99.1812 90.7268L102.363 87.3438V105.664C100.278 106.184 98.3716 107.254 96.8422 108.764L96.2772 109.274L75.8632 88.8658L101.636 66.4748ZM73.3412 130.03C73.1145 129.398 72.9949 128.733 72.9872 128.062V94.4578L91.8282 113.3L73.3412 130.03ZM79.1002 134.173C78.6764 134.172 78.2537 134.127 77.8392 134.039L100.907 113.16L101.015 113.06C102.162 111.916 103.716 111.274 105.336 111.274C106.955 111.274 108.509 111.916 109.656 113.06L133.031 133.99C132.565 134.108 132.087 134.171 131.606 134.176L79.1002 134.173Z" fill="#359550"/>
</g>
<g style="mix-blend-mode:multiply">
<g opacity="0.02">
<path d="M181.852 90.844C181.852 40.918 141.379 0.445007 91.4532 0.445007C41.5272 0.445007 1.0542 40.918 1.0542 90.844C1.0542 140.77 41.5272 181.243 91.4532 181.243C141.379 181.243 181.852 140.77 181.852 90.844Z" fill="white"/>
</g>
<g opacity="0.039">
<path d="M91.598 0.888977C115.494 0.888977 138.411 10.3816 155.308 27.2787C172.205 44.1757 181.698 67.093 181.698 90.989C181.698 114.885 172.205 137.802 155.308 154.699C138.411 171.596 115.494 181.089 91.598 181.089C67.702 181.089 44.7848 171.596 27.8877 154.699C10.9907 137.802 1.49805 114.885 1.49805 90.989C1.49805 67.093 10.9907 44.1757 27.8877 27.2787C44.7848 10.3816 67.702 0.888977 91.598 0.888977Z" fill="white"/>
</g>
<g opacity="0.059">
<path d="M91.7501 1.33398H91.7491C42.1506 1.33398 1.94312 41.5415 1.94312 91.14V91.141C1.94312 140.739 42.1506 180.947 91.7491 180.947H91.7501C141.349 180.947 181.556 140.739 181.556 91.141V91.14C181.556 41.5415 141.349 1.33398 91.7501 1.33398Z" fill="white"/>
</g>
<g opacity="0.078">
<path d="M181.407 91.288C181.407 41.853 141.332 1.77802 91.8972 1.77802C42.4622 1.77802 2.38721 41.853 2.38721 91.288C2.38721 140.723 42.4622 180.798 91.8972 180.798C141.332 180.798 181.407 140.723 181.407 91.288Z" fill="white"/>
</g>
<g opacity="0.098">
<path d="M181.259 91.4365C181.259 42.1653 141.317 2.22302 92.0455 2.22302C42.7743 2.22302 2.83203 42.1653 2.83203 91.4365C2.83203 140.708 42.7743 180.65 92.0455 180.65C141.317 180.65 181.259 140.708 181.259 91.4365Z" fill="white"/>
</g>
<g opacity="0.118">
<path d="M181.11 91.585C181.11 42.4775 141.301 2.66803 92.1931 2.66803C43.0856 2.66803 3.27612 42.4775 3.27612 91.585C3.27612 140.693 43.0856 180.502 92.1931 180.502C141.301 180.502 181.11 140.693 181.11 91.585Z" fill="white"/>
</g>
<g opacity="0.137">
<path d="M180.963 91.733C180.963 42.789 141.286 3.112 92.3422 3.112C43.3982 3.112 3.72119 42.789 3.72119 91.733C3.72119 140.677 43.3982 180.354 92.3422 180.354C141.286 180.354 180.963 140.677 180.963 91.733Z" fill="white"/>
</g>
<g opacity="0.157">
<path d="M92.491 3.55701H92.49C43.71 3.55701 4.16602 43.101 4.16602 91.881V91.882C4.16602 140.662 43.71 180.206 92.49 180.206H92.491C141.271 180.206 180.815 140.662 180.815 91.882V91.881C180.815 43.101 141.271 3.55701 92.491 3.55701Z" fill="white"/>
</g>
<g opacity="0.176">
<path d="M180.666 92.029C180.666 43.4125 141.255 4.00098 92.6381 4.00098C44.0216 4.00098 4.61011 43.4125 4.61011 92.029C4.61011 140.646 44.0216 180.057 92.6381 180.057C141.255 180.057 180.666 140.646 180.666 92.029Z" fill="white"/>
</g>
<g opacity="0.196">
<path d="M180.518 92.1775C180.518 43.7247 141.239 4.44598 92.7867 4.44598C44.3339 4.44598 5.05518 43.7247 5.05518 92.1775C5.05518 140.63 44.3339 179.909 92.7867 179.909C141.239 179.909 180.518 140.63 180.518 92.1775Z" fill="white"/>
</g>
<g opacity="0.216">
<path d="M92.935 4.89001H92.934C44.645 4.89001 5.49902 44.036 5.49902 92.325V92.326C5.49902 140.615 44.645 179.761 92.934 179.761H92.935C141.224 179.761 180.37 140.615 180.37 92.326V92.325C180.37 44.036 141.224 4.89001 92.935 4.89001Z" fill="white"/>
</g>
<g opacity="0.235">
<path d="M180.222 92.474C180.222 44.3485 141.209 5.33502 93.0831 5.33502C44.9576 5.33502 5.94409 44.3485 5.94409 92.474C5.94409 140.6 44.9576 179.613 93.0831 179.613C141.209 179.613 180.222 140.6 180.222 92.474Z" fill="white"/>
</g>
<g opacity="0.255">
<path d="M93.2322 5.78003H93.2312C45.2696 5.78003 6.38916 44.6605 6.38916 92.622V92.623C6.38916 140.585 45.2696 179.465 93.2312 179.465H93.2322C141.194 179.465 180.074 140.585 180.074 92.623V92.622C180.074 44.6605 141.194 5.78003 93.2322 5.78003Z" fill="white"/>
</g>
<g opacity="0.275">
<path d="M179.925 92.77C179.925 44.972 141.177 6.224 93.3792 6.224C45.5812 6.224 6.83325 44.972 6.83325 92.77C6.83325 140.568 45.5812 179.316 93.3792 179.316C141.177 179.316 179.925 140.568 179.925 92.77Z" fill="white"/>
</g>
<g opacity="0.294">
<path d="M93.5281 6.66901C116.403 6.66901 138.341 15.756 154.516 31.931C170.691 48.1061 179.778 70.0441 179.778 92.919C179.778 115.794 170.691 137.732 154.516 153.907C138.341 170.082 116.403 179.169 93.5281 179.169C70.6532 179.169 48.7151 170.082 32.5401 153.907C16.3651 137.732 7.27808 115.794 7.27808 92.919C7.27808 70.0441 16.3651 48.1061 32.5401 31.931C48.7151 15.756 70.6532 6.66901 93.5281 6.66901Z" fill="white"/>
</g>
<g opacity="0.314">
<path d="M93.6762 7.11298H93.6752C46.2046 7.11298 7.72217 45.5954 7.72217 93.066V93.067C7.72217 140.538 46.2046 179.02 93.6752 179.02H93.6762C141.147 179.02 179.629 140.538 179.629 93.067V93.066C179.629 45.5954 141.147 7.11298 93.6762 7.11298Z" fill="white"/>
</g>
<g opacity="0.333">
<path d="M179.481 93.215C179.481 45.9079 141.131 7.55798 93.8242 7.55798C46.5172 7.55798 8.16724 45.9079 8.16724 93.215C8.16724 140.522 46.5172 178.872 93.8242 178.872C141.131 178.872 179.481 140.522 179.481 93.215Z" fill="white"/>
</g>
<g opacity="0.353">
<path d="M179.333 93.3635C179.333 46.2202 141.116 8.00299 93.9726 8.00299C46.8293 8.00299 8.61206 46.2202 8.61206 93.3635C8.61206 140.507 46.8293 178.724 93.9726 178.724C141.116 178.724 179.333 140.507 179.333 93.3635Z" fill="white"/>
</g>
<g opacity="0.373">
<path d="M179.184 93.511C179.184 46.5315 141.1 8.44702 94.1202 8.44702C47.1406 8.44702 9.05615 46.5315 9.05615 93.511C9.05615 140.491 47.1406 178.575 94.1202 178.575C141.1 178.575 179.184 140.491 179.184 93.511Z" fill="white"/>
</g>
<g opacity="0.392">
<path d="M179.036 93.6595C179.036 46.8437 141.085 8.89203 94.2687 8.89203C47.4529 8.89203 9.50122 46.8437 9.50122 93.6595C9.50122 140.475 47.4529 178.427 94.2687 178.427C141.085 178.427 179.036 140.475 179.036 93.6595Z" fill="white"/>
</g>
<g opacity="0.412">
<path d="M94.4171 9.336H94.4161C47.764 9.336 9.94507 47.155 9.94507 93.807V93.808C9.94507 140.46 47.764 178.279 94.4161 178.279H94.4171C141.069 178.279 178.888 140.46 178.888 93.808V93.807C178.888 47.155 141.069 9.336 94.4171 9.336Z" fill="white"/>
</g>
<g opacity="0.431">
<path d="M178.74 93.956C178.74 47.4674 141.054 9.78101 94.5651 9.78101C48.0766 9.78101 10.3901 47.4674 10.3901 93.956C10.3901 140.445 48.0766 178.131 94.5651 178.131C141.054 178.131 178.74 140.445 178.74 93.956Z" fill="white"/>
</g>
<g opacity="0.451">
<path d="M178.591 94.1045C178.591 47.7797 141.038 10.226 94.7127 10.226C48.3879 10.226 10.8342 47.7797 10.8342 94.1045C10.8342 140.429 48.3879 177.983 94.7127 177.983C141.038 177.983 178.591 140.429 178.591 94.1045Z" fill="white"/>
</g>
<g opacity="0.471">
<path d="M178.443 94.252C178.443 48.0909 141.022 10.67 94.8611 10.67C48.7 10.67 11.2791 48.0909 11.2791 94.252C11.2791 140.413 48.7 177.834 94.8611 177.834C141.022 177.834 178.443 140.413 178.443 94.252Z" fill="white"/>
</g>
<g opacity="0.49">
<path d="M178.296 94.401C178.296 48.4034 141.008 11.115 95.0101 11.115C49.0125 11.115 11.7241 48.4034 11.7241 94.401C11.7241 140.399 49.0125 177.687 95.0101 177.687C141.008 177.687 178.296 140.399 178.296 94.401Z" fill="white"/>
</g>
<g opacity="0.51">
<path d="M95.1582 11.559H95.1572C49.3237 11.559 12.1682 48.7145 12.1682 94.548V94.549C12.1682 140.383 49.3237 177.538 95.1572 177.538H95.1582C140.992 177.538 178.147 140.383 178.147 94.549V94.548C178.147 48.7145 140.992 11.559 95.1582 11.559Z" fill="white"/>
</g>
<g opacity="0.529">
<path d="M177.999 94.697C177.999 49.0269 140.976 12.004 95.306 12.004C49.636 12.004 12.613 49.0269 12.613 94.697C12.613 140.367 49.636 177.39 95.306 177.39C140.976 177.39 177.999 140.367 177.999 94.697Z" fill="white"/>
</g>
<g opacity="0.549">
<path d="M177.85 94.8445C177.85 49.3382 140.96 12.448 95.4536 12.448C49.9473 12.448 13.0571 49.3382 13.0571 94.8445C13.0571 140.351 49.9473 177.241 95.4536 177.241C140.96 177.241 177.85 140.351 177.85 94.8445Z" fill="white"/>
</g>
<g opacity="0.569">
<path d="M177.702 94.993C177.702 49.6504 140.945 12.893 95.6022 12.893C50.2596 12.893 13.5022 49.6504 13.5022 94.993C13.5022 140.336 50.2596 177.093 95.6022 177.093C140.945 177.093 177.702 140.336 177.702 94.993Z" fill="white"/>
</g>
<g opacity="0.588">
<path d="M177.555 95.142C177.555 49.9629 140.93 13.338 95.751 13.338C50.5719 13.338 13.947 49.9629 13.947 95.142C13.947 140.321 50.5719 176.946 95.751 176.946C140.93 176.946 177.555 140.321 177.555 95.142Z" fill="white"/>
</g>
<g opacity="0.608">
<path d="M95.8991 13.782H95.8981C50.883 13.782 14.3911 50.2739 14.3911 95.289V95.29C14.3911 140.305 50.883 176.797 95.8981 176.797H95.8991C140.914 176.797 177.406 140.305 177.406 95.29V95.289C177.406 50.2739 140.914 13.782 95.8991 13.782Z" fill="white"/>
</g>
<g opacity="0.627">
<path d="M177.258 95.438C177.258 50.5864 140.899 14.227 96.0472 14.227C51.1956 14.227 14.8362 50.5864 14.8362 95.438C14.8362 140.29 51.1956 176.649 96.0472 176.649C140.899 176.649 177.258 140.29 177.258 95.438Z" fill="white"/>
</g>
<g opacity="0.647">
<path d="M177.109 95.5855C177.109 50.8977 140.882 14.671 96.1945 14.671C51.5067 14.671 15.28 50.8977 15.28 95.5855C15.28 140.273 51.5067 176.5 96.1945 176.5C140.882 176.5 177.109 140.273 177.109 95.5855Z" fill="white"/>
</g>
<g opacity="0.667">
<path d="M96.3441 15.116H96.3431C51.819 15.116 15.7251 51.2099 15.7251 95.734V95.735C15.7251 140.259 51.819 176.353 96.3431 176.353H96.3441C140.868 176.353 176.962 140.259 176.962 95.735V95.734C176.962 51.2099 140.868 15.116 96.3441 15.116Z" fill="white"/>
</g>
<g opacity="0.686">
<path d="M176.813 95.883C176.813 51.5224 140.852 15.561 96.4912 15.561C52.1306 15.561 16.1692 51.5224 16.1692 95.883C16.1692 140.244 52.1306 176.205 96.4912 176.205C140.852 176.205 176.813 140.244 176.813 95.883Z" fill="white"/>
</g>
<g opacity="0.706">
<path d="M96.64 16.005H96.639C52.4424 16.005 16.614 51.8334 16.614 96.03V96.031C16.614 140.228 52.4424 176.056 96.639 176.056H96.64C140.837 176.056 176.665 140.228 176.665 96.031V96.03C176.665 51.8334 140.837 16.005 96.64 16.005Z" fill="white"/>
</g>
<g opacity="0.725">
<path d="M176.517 96.179C176.517 52.1459 140.821 16.45 96.7881 16.45C52.755 16.45 17.0591 52.1459 17.0591 96.179C17.0591 140.212 52.755 175.908 96.7881 175.908C140.821 175.908 176.517 140.212 176.517 96.179Z" fill="white"/>
</g>
<g opacity="0.745">
<path d="M176.368 96.3265C176.368 52.4571 140.805 16.894 96.9357 16.894C53.0663 16.894 17.5032 52.4571 17.5032 96.3265C17.5032 140.196 53.0663 175.759 96.9357 175.759C140.805 175.759 176.368 140.196 176.368 96.3265Z" fill="white"/>
</g>
<g opacity="0.765">
<path d="M97.0852 17.339H97.0842C53.3786 17.339 17.9482 52.7694 17.9482 96.475V96.476C17.9482 140.182 53.3786 175.612 97.0842 175.612H97.0852C140.791 175.612 176.221 140.182 176.221 96.476V96.475C176.221 52.7694 140.791 17.339 97.0852 17.339Z" fill="white"/>
</g>
<g opacity="0.784">
<path d="M176.072 96.623C176.072 53.0809 140.774 17.783 97.2321 17.783C53.69 17.783 18.3921 53.0809 18.3921 96.623C18.3921 140.165 53.69 175.463 97.2321 175.463C140.774 175.463 176.072 140.165 176.072 96.623Z" fill="white"/>
</g>
<g opacity="0.804">
<path d="M175.924 96.7715C175.924 53.3932 140.759 18.228 97.3807 18.228C54.0023 18.228 18.8372 53.3932 18.8372 96.7715C18.8372 140.15 54.0023 175.315 97.3807 175.315C140.759 175.315 175.924 140.15 175.924 96.7715Z" fill="white"/>
</g>
<g opacity="0.824">
<path d="M175.776 96.92C175.776 53.7053 140.744 18.673 97.5292 18.673C54.3146 18.673 19.2822 53.7053 19.2822 96.92C19.2822 140.135 54.3146 175.167 97.5292 175.167C140.744 175.167 175.776 140.135 175.776 96.92Z" fill="white"/>
</g>
<g opacity="0.843">
<path d="M175.628 97.068C175.628 54.0169 140.728 19.117 97.6771 19.117C54.6259 19.117 19.7261 54.0169 19.7261 97.068C19.7261 140.119 54.6259 175.019 97.6771 175.019C140.728 175.019 175.628 140.119 175.628 97.068Z" fill="white"/>
</g>
<g opacity="0.863">
<path d="M97.8261 19.562H97.8251C54.938 19.562 20.1711 54.3289 20.1711 97.216V97.217C20.1711 140.104 54.938 174.871 97.8251 174.871H97.8261C140.713 174.871 175.48 140.104 175.48 97.217V97.216C175.48 54.3289 140.713 19.562 97.8261 19.562Z" fill="white"/>
</g>
<g opacity="0.882">
<path d="M175.331 97.364C175.331 54.6403 140.697 20.006 97.9732 20.006C55.2496 20.006 20.6152 54.6403 20.6152 97.364C20.6152 140.088 55.2496 174.722 97.9732 174.722C140.697 174.722 175.331 140.088 175.331 97.364Z" fill="white"/>
</g>
<g opacity="0.902">
<path d="M175.183 97.5125C175.183 54.9526 140.681 20.451 98.1216 20.451C55.5617 20.451 21.0601 54.9526 21.0601 97.5125C21.0601 140.072 55.5617 174.574 98.1216 174.574C140.681 174.574 175.183 140.072 175.183 97.5125Z" fill="white"/>
</g>
<g opacity="0.922">
<path d="M175.035 97.661C175.035 55.2649 140.666 20.896 98.2701 20.896C55.874 20.896 21.5051 55.2649 21.5051 97.661C21.5051 140.057 55.874 174.426 98.2701 174.426C140.666 174.426 175.035 140.057 175.035 97.661Z" fill="white"/>
</g>
<g opacity="0.941">
<path d="M174.887 97.809C174.887 55.5764 140.651 21.34 98.4182 21.34C56.1856 21.34 21.9492 55.5764 21.9492 97.809C21.9492 140.042 56.1856 174.278 98.4182 174.278C140.651 174.278 174.887 140.042 174.887 97.809Z" fill="white"/>
</g>
<g opacity="0.961">
<path d="M98.567 21.785H98.566C56.4974 21.785 22.394 55.8883 22.394 97.957V97.958C22.394 140.027 56.4974 174.13 98.566 174.13H98.567C140.636 174.13 174.739 140.027 174.739 97.958V97.957C174.739 55.8883 140.636 21.785 98.567 21.785Z" fill="white"/>
</g>
<g opacity="0.98">
<path d="M174.59 98.105C174.59 56.1998 140.619 22.229 98.7141 22.229C56.809 22.229 22.8381 56.1998 22.8381 98.105C22.8381 140.01 56.809 173.981 98.7141 173.981C140.619 173.981 174.59 140.01 174.59 98.105Z" fill="white"/>
</g>
<path d="M174.442 98.2535C174.442 56.5121 140.604 22.674 98.8627 22.674C57.1213 22.674 23.2832 56.5121 23.2832 98.2535C23.2832 139.995 57.1213 173.833 98.8627 173.833C140.604 173.833 174.442 139.995 174.442 98.2535Z" fill="white"/>
</g>
<path d="M178.221 102.033C178.221 60.2911 144.383 26.453 102.642 26.453C60.9001 26.453 27.062 60.2911 27.062 102.033C27.062 143.774 60.9001 177.612 102.642 177.612C144.383 177.612 178.221 143.774 178.221 102.033Z" fill="#F2F3F7"/>
<g style="mix-blend-mode:multiply" opacity="0.1">
<path d="M159.326 102.033C159.326 70.7265 133.948 45.348 102.642 45.348C71.3355 45.348 45.957 70.7265 45.957 102.033C45.957 133.339 71.3355 158.717 102.642 158.717C133.948 158.717 159.326 133.339 159.326 102.033Z" fill="#002672"/>
<g opacity="0.98">
<path d="M159.326 102.181C159.326 70.9563 134.014 45.644 102.789 45.644C71.5652 45.644 46.2529 70.9563 46.2529 102.181C46.2529 133.405 71.5652 158.717 102.789 158.717C134.014 158.717 159.326 133.405 159.326 102.181Z" fill="#052A75"/>
</g>
<g opacity="0.961">
<path d="M102.939 45.941H102.938C71.7958 45.941 46.55 71.1868 46.55 102.329V102.33C46.55 133.472 71.7958 158.718 102.938 158.718H102.939C134.081 158.718 159.327 133.472 159.327 102.33V102.329C159.327 71.1868 134.081 45.941 102.939 45.941Z" fill="#0A2F78"/>
</g>
<g opacity="0.941">
<path d="M159.326 102.477C159.326 71.4165 134.146 46.237 103.086 46.237C72.0255 46.237 46.8459 71.4165 46.8459 102.477C46.8459 133.537 72.0255 158.717 103.086 158.717C134.146 158.717 159.326 133.537 159.326 102.477Z" fill="#0F337A"/>
</g>
<g opacity="0.922">
<path d="M159.327 102.626C159.327 71.6472 134.214 46.534 103.235 46.534C72.2563 46.534 47.1431 71.6472 47.1431 102.626C47.1431 133.605 72.2563 158.718 103.235 158.718C134.214 158.718 159.327 133.605 159.327 102.626Z" fill="#14377D"/>
</g>
<g opacity="0.902">
<path d="M159.327 102.774C159.327 71.877 134.28 46.83 103.383 46.83C72.4859 46.83 47.439 71.877 47.439 102.774C47.439 133.671 72.4859 158.718 103.383 158.718C134.28 158.718 159.327 133.671 159.327 102.774Z" fill="#193B80"/>
</g>
<g opacity="0.882">
<path d="M159.326 102.922C159.326 72.1065 134.346 47.126 103.531 47.126C72.7156 47.126 47.7351 72.1065 47.7351 102.922C47.7351 133.737 72.7156 158.717 103.531 158.717C134.346 158.717 159.326 133.737 159.326 102.922Z" fill="#1E4083"/>
</g>
<g opacity="0.863">
<path d="M103.679 47.423C118.437 47.423 132.592 53.2858 143.027 63.7217C153.463 74.1575 159.326 88.3115 159.326 103.07C159.326 117.829 153.463 131.983 143.027 142.418C132.592 152.854 118.437 158.717 103.679 158.717C88.9205 158.717 74.7664 152.854 64.3306 142.418C53.8948 131.983 48.032 117.829 48.032 103.07C48.032 88.3115 53.8948 74.1575 64.3306 63.7217C74.7664 53.2858 88.9205 47.423 103.679 47.423Z" fill="#234485"/>
</g>
<g opacity="0.843">
<path d="M159.326 103.218C159.326 72.5667 134.478 47.719 103.827 47.719C73.1759 47.719 48.3281 72.5667 48.3281 103.218C48.3281 133.869 73.1759 158.717 103.827 158.717C134.478 158.717 159.326 133.869 159.326 103.218Z" fill="#284888"/>
</g>
<g opacity="0.824">
<path d="M159.327 103.367C159.327 72.7975 134.546 48.0161 103.976 48.0161C73.4065 48.0161 48.625 72.7975 48.625 103.367C48.625 133.937 73.4065 158.718 103.976 158.718C134.546 158.718 159.327 133.937 159.327 103.367Z" fill="#2D4C8B"/>
</g>
<g opacity="0.804">
<path d="M159.327 103.515C159.327 73.0272 134.612 48.312 104.124 48.312C73.6364 48.312 48.9211 73.0272 48.9211 103.515C48.9211 134.003 73.6364 158.718 104.124 158.718C134.612 158.718 159.327 134.003 159.327 103.515Z" fill="#32518E"/>
</g>
<g opacity="0.784">
<path d="M159.326 103.663C159.326 73.2568 134.677 48.608 104.272 48.608C73.8658 48.608 49.217 73.2568 49.217 103.663C49.217 134.068 73.8658 158.717 104.272 158.717C134.677 158.717 159.326 134.068 159.326 103.663Z" fill="#375590"/>
</g>
<g opacity="0.765">
<path d="M104.42 48.905C118.982 48.905 132.947 54.6898 143.244 64.9866C153.541 75.2835 159.326 89.2491 159.326 103.811C159.326 118.373 153.541 132.339 143.244 142.635C132.947 152.932 118.982 158.717 104.42 158.717C89.8579 158.717 75.8924 152.932 65.5955 142.635C55.2986 132.339 49.5139 118.373 49.5139 103.811C49.5139 89.2491 55.2986 75.2835 65.5955 64.9866C75.8924 54.6898 89.8579 48.905 104.42 48.905Z" fill="#3C5993"/>
</g>
<g opacity="0.745">
<path d="M159.326 103.959C159.326 73.717 134.81 49.201 104.568 49.201C74.326 49.201 49.8101 73.717 49.8101 103.959C49.8101 134.201 74.326 158.717 104.568 158.717C134.81 158.717 159.326 134.201 159.326 103.959Z" fill="#415D96"/>
</g>
<g opacity="0.725">
<path d="M159.326 104.107C159.326 73.9467 134.876 49.497 104.716 49.497C74.5557 49.497 50.106 73.9467 50.106 104.107C50.106 134.267 74.5557 158.717 104.716 158.717C134.876 158.717 159.326 134.267 159.326 104.107Z" fill="#466299"/>
</g>
<g opacity="0.706">
<path d="M159.327 104.256C159.327 74.1775 134.944 49.794 104.865 49.794C74.7865 49.794 50.4031 74.1775 50.4031 104.256C50.4031 134.335 74.7865 158.718 104.865 158.718C134.944 158.718 159.327 134.335 159.327 104.256Z" fill="#4B669B"/>
</g>
<g opacity="0.686">
<path d="M159.326 104.404C159.326 74.407 135.009 50.09 105.012 50.09C75.016 50.09 50.699 74.407 50.699 104.404C50.699 134.4 75.016 158.717 105.012 158.717C135.009 158.717 159.326 134.4 159.326 104.404Z" fill="#506A9E"/>
</g>
<g opacity="0.667">
<path d="M105.162 50.387H105.161C75.2466 50.387 50.9961 74.6375 50.9961 104.552V104.553C50.9961 134.468 75.2466 158.718 105.161 158.718H105.162C135.077 158.718 159.327 134.468 159.327 104.553V104.552C159.327 74.6375 135.077 50.387 105.162 50.387Z" fill="#556EA1"/>
</g>
<g opacity="0.647">
<path d="M159.326 104.7C159.326 74.8673 135.142 50.683 105.309 50.683C75.4762 50.683 51.292 74.8673 51.292 104.7C51.292 134.533 75.4762 158.717 105.309 158.717C135.142 158.717 159.326 134.533 159.326 104.7Z" fill="#5A73A4"/>
</g>
<g opacity="0.627">
<path d="M159.326 104.848C159.326 75.097 135.208 50.979 105.457 50.979C75.7061 50.979 51.5881 75.097 51.5881 104.848C51.5881 134.599 75.7061 158.717 105.457 158.717C135.208 158.717 159.326 134.599 159.326 104.848Z" fill="#5F77A7"/>
</g>
<g opacity="0.608">
<path d="M159.327 104.997C159.327 75.3277 135.275 51.276 105.606 51.276C75.9367 51.276 51.885 75.3277 51.885 104.997C51.885 134.666 75.9367 158.718 105.606 158.718C135.275 158.718 159.327 134.666 159.327 104.997Z" fill="#647BA9"/>
</g>
<g opacity="0.588">
<path d="M159.326 105.145C159.326 75.5572 135.341 51.572 105.754 51.572C76.1664 51.572 52.1812 75.5572 52.1812 105.145C52.1812 134.732 76.1664 158.717 105.754 158.717C135.341 158.717 159.326 134.732 159.326 105.145Z" fill="#697FAC"/>
</g>
<g opacity="0.569">
<path d="M105.903 51.869H105.902C76.3968 51.869 52.478 75.7878 52.478 105.293V105.294C52.478 134.799 76.3968 158.718 105.902 158.718H105.903C135.408 158.718 159.327 134.799 159.327 105.294V105.293C159.327 75.7878 135.408 51.869 105.903 51.869Z" fill="#6E84AF"/>
</g>
<g opacity="0.549">
<path d="M159.326 105.441C159.326 76.0175 135.473 52.165 106.05 52.165C76.6264 52.165 52.7739 76.0175 52.7739 105.441C52.7739 134.865 76.6264 158.717 106.05 158.717C135.473 158.717 159.326 134.865 159.326 105.441Z" fill="#7388B2"/>
</g>
<g opacity="0.529">
<path d="M159.326 105.589C159.326 76.2472 135.54 52.461 106.198 52.461C76.8563 52.461 53.0701 76.2472 53.0701 105.589C53.0701 134.931 76.8563 158.717 106.198 158.717C135.54 158.717 159.326 134.931 159.326 105.589Z" fill="#788CB4"/>
</g>
<g opacity="0.51">
<path d="M159.327 105.738C159.327 76.4779 135.607 52.758 106.347 52.758C77.0869 52.758 53.3669 76.4779 53.3669 105.738C53.3669 134.998 77.0869 158.718 106.347 158.718C135.607 158.718 159.327 134.998 159.327 105.738Z" fill="#7D90B7"/>
</g>
<g opacity="0.49">
<path d="M159.326 105.886C159.326 76.7075 135.673 53.054 106.495 53.054C77.3166 53.054 53.6631 76.7075 53.6631 105.886C53.6631 135.064 77.3166 158.717 106.495 158.717C135.673 158.717 159.326 135.064 159.326 105.886Z" fill="#8295BA"/>
</g>
<g opacity="0.471">
<path d="M106.644 53.351H106.643C77.5469 53.351 53.96 76.938 53.96 106.034V106.035C53.96 135.131 77.5469 158.718 106.643 158.718H106.644C135.74 158.718 159.327 135.131 159.327 106.035V106.034C159.327 76.938 135.74 53.351 106.644 53.351Z" fill="#8799BD"/>
</g>
<g opacity="0.451">
<path d="M106.792 53.647H106.791C77.7768 53.647 54.2561 77.1678 54.2561 106.182V106.183C54.2561 135.197 77.7768 158.718 106.791 158.718H106.792C135.806 158.718 159.327 135.197 159.327 106.183V106.182C159.327 77.1678 135.806 53.647 106.792 53.647Z" fill="#8C9DBF"/>
</g>
<g opacity="0.431">
<path d="M159.326 106.33C159.326 77.3975 135.872 53.943 106.939 53.943C78.0065 53.943 54.552 77.3975 54.552 106.33C54.552 135.263 78.0065 158.717 106.939 158.717C135.872 158.717 159.326 135.263 159.326 106.33Z" fill="#91A1C2"/>
</g>
<g opacity="0.412">
<path d="M159.327 106.479C159.327 77.6282 135.939 54.2401 107.088 54.2401C78.2373 54.2401 54.8491 77.6282 54.8491 106.479C54.8491 135.33 78.2373 158.718 107.088 158.718C135.939 158.718 159.327 135.33 159.327 106.479Z" fill="#96A6C5"/>
</g>
<g opacity="0.392">
<path d="M159.326 106.627C159.326 77.8577 136.004 54.536 107.236 54.536C78.4667 54.536 55.145 77.8577 55.145 106.627C55.145 135.395 78.4667 158.717 107.236 158.717C136.004 158.717 159.326 135.395 159.326 106.627Z" fill="#9BAAC8"/>
</g>
<g opacity="0.373">
<path d="M107.385 54.832H107.384C78.6974 54.832 55.4421 78.0873 55.4421 106.774V106.775C55.4421 135.462 78.6974 158.717 107.384 158.717H107.385C136.072 158.717 159.327 135.462 159.327 106.775V106.774C159.327 78.0873 136.072 54.832 107.385 54.832Z" fill="#A0AECA"/>
</g>
<g opacity="0.353">
<path d="M107.532 55.129C121.269 55.129 134.443 60.5859 144.156 70.2991C153.869 80.0124 159.326 93.1864 159.326 106.923C159.326 120.66 153.869 133.834 144.156 143.547C134.443 153.26 121.269 158.717 107.532 158.717C93.7954 158.717 80.6214 153.26 70.9081 143.547C61.1949 133.834 55.738 120.66 55.738 106.923C55.738 93.1864 61.1949 80.0124 70.9081 70.2991C80.6214 60.5859 93.7954 55.129 107.532 55.129Z" fill="#A5B2CD"/>
</g>
<g opacity="0.333">
<path d="M159.326 107.071C159.326 78.5478 136.203 55.425 107.68 55.425C79.1566 55.425 56.0339 78.5478 56.0339 107.071C56.0339 135.594 79.1566 158.717 107.68 158.717C136.203 158.717 159.326 135.594 159.326 107.071Z" fill="#AAB7D0"/>
</g>
<g opacity="0.314">
<path d="M159.327 107.22C159.327 78.7785 136.271 55.722 107.829 55.722C79.3875 55.722 56.3311 78.7785 56.3311 107.22C56.3311 135.662 79.3875 158.718 107.829 158.718C136.271 158.718 159.327 135.662 159.327 107.22Z" fill="#AFBBD3"/>
</g>
<g opacity="0.294">
<path d="M159.326 107.368C159.326 79.008 136.336 56.018 107.976 56.018C79.6169 56.018 56.627 79.008 56.627 107.368C56.627 135.727 79.6169 158.717 107.976 158.717C136.336 158.717 159.326 135.727 159.326 107.368Z" fill="#B4BFD6"/>
</g>
<g opacity="0.275">
<path d="M159.326 107.516C159.326 79.2377 136.402 56.314 108.125 56.314C79.8468 56.314 56.9231 79.2377 56.9231 107.516C56.9231 135.793 79.8468 158.717 108.125 158.717C136.402 158.717 159.326 135.793 159.326 107.516Z" fill="#B9C3D8"/>
</g>
<g opacity="0.255">
<path d="M108.273 56.611C121.813 56.611 134.799 61.9898 144.373 71.5641C153.947 81.1384 159.326 94.1239 159.326 107.664C159.326 121.204 153.947 134.19 144.373 143.764C134.799 153.338 121.813 158.717 108.273 158.717C94.7329 158.717 81.7473 153.338 72.173 143.764C62.5988 134.19 57.22 121.204 57.22 107.664C57.22 94.1239 62.5988 81.1384 72.173 71.5641C81.7473 61.9898 94.7329 56.611 108.273 56.611Z" fill="#BEC8DB"/>
</g>
<g opacity="0.235">
<path d="M159.326 107.812C159.326 79.698 136.535 56.907 108.421 56.907C80.3071 56.907 57.5161 79.698 57.5161 107.812C57.5161 135.926 80.3071 158.717 108.421 158.717C136.535 158.717 159.326 135.926 159.326 107.812Z" fill="#C3CCDE"/>
</g>
<g opacity="0.216">
<path d="M159.327 107.961C159.327 79.9287 136.602 57.204 108.57 57.204C80.5377 57.204 57.813 79.9287 57.813 107.961C57.813 135.993 80.5377 158.718 108.57 158.718C136.602 158.718 159.327 135.993 159.327 107.961Z" fill="#C8D0E1"/>
</g>
<g opacity="0.196">
<path d="M159.326 108.109C159.326 80.1582 136.668 57.5 108.718 57.5C80.7673 57.5 58.1091 80.1582 58.1091 108.109C58.1091 136.059 80.7673 158.717 108.718 158.717C136.668 158.717 159.326 136.059 159.326 108.109Z" fill="#CDD4E3"/>
</g>
<g opacity="0.176">
<path d="M159.326 108.257C159.326 80.388 136.734 57.796 108.866 57.796C80.997 57.796 58.405 80.388 58.405 108.257C58.405 136.125 80.997 158.717 108.866 158.717C136.734 158.717 159.326 136.125 159.326 108.257Z" fill="#D2D9E6"/>
</g>
<g opacity="0.157">
<path d="M109.015 58.093H109.014C81.2276 58.093 58.7021 80.6185 58.7021 108.405V108.406C58.7021 136.193 81.2276 158.718 109.014 158.718H109.015C136.802 158.718 159.327 136.193 159.327 108.406V108.405C159.327 80.6185 136.802 58.093 109.015 58.093Z" fill="#D7DDE9"/>
</g>
<g opacity="0.137">
<path d="M159.326 108.553C159.326 80.8482 136.867 58.389 109.162 58.389C81.4572 58.389 58.998 80.8482 58.998 108.553C58.998 136.258 81.4572 158.717 109.162 158.717C136.867 158.717 159.326 136.258 159.326 108.553Z" fill="#DCE1EC"/>
</g>
<g opacity="0.118">
<path d="M159.327 108.702C159.327 81.079 136.934 58.686 109.311 58.686C81.6878 58.686 59.2949 81.079 59.2949 108.702C59.2949 136.325 81.6878 158.718 109.311 158.718C136.934 158.718 159.327 136.325 159.327 108.702Z" fill="#E1E5EE"/>
</g>
<g opacity="0.098">
<path d="M159.326 108.849C159.326 81.3084 137 58.982 109.459 58.982C81.9175 58.982 59.5911 81.3084 59.5911 108.849C59.5911 136.391 81.9175 158.717 109.459 158.717C137 158.717 159.326 136.391 159.326 108.849Z" fill="#E6EAF1"/>
</g>
<g opacity="0.078">
<path d="M159.326 108.998C159.326 81.5382 137.066 59.278 109.606 59.278C82.1471 59.278 59.887 81.5382 59.887 108.998C59.887 136.457 82.1471 158.717 109.606 158.717C137.066 158.717 159.326 136.457 159.326 108.998Z" fill="#EBEEF4"/>
</g>
<g opacity="0.059">
<path d="M109.756 59.575H109.755C82.3778 59.575 60.1841 81.7687 60.1841 109.146V109.147C60.1841 136.524 82.3778 158.718 109.755 158.718H109.756C137.133 158.718 159.327 136.524 159.327 109.147V109.146C159.327 81.7687 137.133 59.575 109.756 59.575Z" fill="#F0F2F7"/>
</g>
<g opacity="0.039">
<path d="M159.326 109.294C159.326 81.9985 137.199 59.871 109.903 59.871C82.6074 59.871 60.48 81.9985 60.48 109.294C60.48 136.59 82.6074 158.717 109.903 158.717C137.199 158.717 159.326 136.59 159.326 109.294Z" fill="#F5F6F9"/>
</g>
<g opacity="0.02">
<path d="M159.327 109.443C159.327 82.2292 137.266 60.168 110.052 60.168C82.8383 60.168 60.7771 82.2292 60.7771 109.443C60.7771 136.657 82.8383 158.718 110.052 158.718C137.266 158.718 159.327 136.657 159.327 109.443Z" fill="#FAFBFC"/>
</g>
</g>
<g opacity="0.8">
<path d="M159.326 102.033C159.326 70.7265 133.948 45.348 102.642 45.348C71.3355 45.348 45.957 70.7265 45.957 102.033C45.957 133.339 71.3355 158.717 102.642 158.717C133.948 158.717 159.326 133.339 159.326 102.033Z" fill="white"/>
<g opacity="0.98">
<path d="M159.03 101.885C159.03 70.6603 133.718 45.348 102.494 45.348C71.2693 45.348 45.957 70.6603 45.957 101.885C45.957 133.109 71.2693 158.421 102.494 158.421C133.718 158.421 159.03 133.109 159.03 101.885Z" fill="white"/>
</g>
<g opacity="0.961">
<path d="M102.346 45.348H102.345C71.2028 45.348 45.957 70.5938 45.957 101.736V101.737C45.957 132.879 71.2028 158.125 102.345 158.125H102.346C133.488 158.125 158.734 132.879 158.734 101.737V101.736C158.734 70.5938 133.488 45.348 102.346 45.348Z" fill="white"/>
</g>
<g opacity="0.941">
<path d="M158.437 101.588C158.437 70.5275 133.258 45.348 102.197 45.348C71.1365 45.348 45.957 70.5275 45.957 101.588C45.957 132.649 71.1365 157.828 102.197 157.828C133.258 157.828 158.437 132.649 158.437 101.588Z" fill="white"/>
</g>
<g opacity="0.922">
<path d="M158.141 101.44C158.141 70.4613 133.028 45.348 102.049 45.348C71.0703 45.348 45.957 70.4613 45.957 101.44C45.957 132.419 71.0703 157.532 102.049 157.532C133.028 157.532 158.141 132.419 158.141 101.44Z" fill="white"/>
</g>
<g opacity="0.902">
<path d="M157.844 101.292C157.844 70.3948 132.797 45.348 101.901 45.348C71.0038 45.348 45.957 70.3948 45.957 101.292C45.957 132.188 71.0038 157.235 101.901 157.235C132.797 157.235 157.844 132.188 157.844 101.292Z" fill="white"/>
</g>
<g opacity="0.882">
<path d="M157.548 101.144C157.548 70.3285 132.568 45.348 101.753 45.348C70.9375 45.348 45.957 70.3285 45.957 101.144C45.957 131.959 70.9375 156.939 101.753 156.939C132.568 156.939 157.548 131.959 157.548 101.144Z" fill="white"/>
</g>
<g opacity="0.863">
<path d="M101.605 45.348H101.604C70.871 45.348 45.957 70.262 45.957 100.995V100.996C45.957 131.729 70.871 156.643 101.604 156.643H101.605C132.338 156.643 157.252 131.729 157.252 100.996V100.995C157.252 70.262 132.338 45.348 101.605 45.348Z" fill="white"/>
</g>
<g opacity="0.843">
<path d="M156.955 100.847C156.955 70.1958 132.107 45.348 101.456 45.348C70.8048 45.348 45.957 70.1958 45.957 100.847C45.957 131.498 70.8048 156.346 101.456 156.346C132.107 156.346 156.955 131.498 156.955 100.847Z" fill="white"/>
</g>
<g opacity="0.824">
<path d="M156.659 100.699C156.659 70.1295 131.878 45.348 101.308 45.348C70.7385 45.348 45.957 70.1295 45.957 100.699C45.957 131.269 70.7385 156.05 101.308 156.05C131.878 156.05 156.659 131.269 156.659 100.699Z" fill="white"/>
</g>
<g opacity="0.804">
<path d="M156.363 100.551C156.363 70.0632 131.648 45.348 101.16 45.348C70.6723 45.348 45.957 70.0632 45.957 100.551C45.957 131.039 70.6723 155.754 101.16 155.754C131.648 155.754 156.363 131.039 156.363 100.551Z" fill="white"/>
</g>
<g opacity="0.784">
<path d="M156.066 100.403C156.066 69.9968 131.417 45.348 101.012 45.348C70.6058 45.348 45.957 69.9968 45.957 100.403C45.957 130.808 70.6058 155.457 101.012 155.457C131.417 155.457 156.066 130.808 156.066 100.403Z" fill="white"/>
</g>
<g opacity="0.765">
<path d="M100.863 45.348C115.425 45.348 129.391 51.1327 139.687 61.4296C149.984 71.7265 155.769 85.692 155.769 100.254C155.769 114.816 149.984 128.782 139.687 139.078C129.391 149.375 115.425 155.16 100.863 155.16C86.3011 155.16 72.3355 149.375 62.0386 139.078C51.7418 128.782 45.957 114.816 45.957 100.254C45.957 85.692 51.7418 71.7265 62.0386 61.4296C72.3355 51.1327 86.3011 45.348 100.863 45.348Z" fill="white"/>
</g>
<g opacity="0.745">
<path d="M155.473 100.106C155.473 69.864 130.957 45.348 100.715 45.348C70.473 45.348 45.957 69.864 45.957 100.106C45.957 130.348 70.473 154.864 100.715 154.864C130.957 154.864 155.473 130.348 155.473 100.106Z" fill="white"/>
</g>
<g opacity="0.725">
<path d="M155.177 99.958C155.177 69.7978 130.727 45.348 100.567 45.348C70.4068 45.348 45.957 69.7978 45.957 99.958C45.957 130.118 70.4068 154.568 100.567 154.568C130.727 154.568 155.177 130.118 155.177 99.958Z" fill="white"/>
</g>
<g opacity="0.706">
<path d="M154.881 99.81C154.881 69.7315 130.498 45.348 100.419 45.348C70.3405 45.348 45.957 69.7315 45.957 99.81C45.957 129.889 70.3405 154.272 100.419 154.272C130.498 154.272 154.881 129.889 154.881 99.81Z" fill="white"/>
</g>
<g opacity="0.686">
<path d="M154.584 99.6615C154.584 69.665 130.267 45.348 100.271 45.348C70.274 45.348 45.957 69.665 45.957 99.6615C45.957 129.658 70.274 153.975 100.271 153.975C130.267 153.975 154.584 129.658 154.584 99.6615Z" fill="white"/>
</g>
<g opacity="0.667">
<path d="M100.123 45.348H100.122C70.2075 45.348 45.957 69.5985 45.957 99.513V99.514C45.957 129.429 70.2075 153.679 100.122 153.679H100.123C130.038 153.679 154.288 129.429 154.288 99.514V99.513C154.288 69.5985 130.038 45.348 100.123 45.348Z" fill="white"/>
</g>
<g opacity="0.647">
<path d="M153.991 99.365C153.991 69.5323 129.807 45.348 99.974 45.348C70.1413 45.348 45.957 69.5323 45.957 99.365C45.957 129.198 70.1413 153.382 99.974 153.382C129.807 153.382 153.991 129.198 153.991 99.365Z" fill="white"/>
</g>
<g opacity="0.627">
<path d="M153.695 99.217C153.695 69.466 129.577 45.348 99.826 45.348C70.075 45.348 45.957 69.466 45.957 99.217C45.957 128.968 70.075 153.086 99.826 153.086C129.577 153.086 153.695 128.968 153.695 99.217Z" fill="white"/>
</g>
<g opacity="0.608">
<path d="M153.399 99.069C153.399 69.3997 129.347 45.348 99.678 45.348C70.0087 45.348 45.957 69.3997 45.957 99.069C45.957 128.738 70.0087 152.79 99.678 152.79C129.347 152.79 153.399 128.738 153.399 99.069Z" fill="white"/>
</g>
<g opacity="0.588">
<path d="M153.102 98.9205C153.102 69.3332 129.117 45.348 99.5295 45.348C69.9423 45.348 45.957 69.3332 45.957 98.9205C45.957 128.508 69.9423 152.493 99.5295 152.493C129.117 152.493 153.102 128.508 153.102 98.9205Z" fill="white"/>
</g>
<g opacity="0.569">
<path d="M99.382 45.348H99.381C69.8758 45.348 45.957 69.2668 45.957 98.772V98.773C45.957 128.278 69.8758 152.197 99.381 152.197H99.382C128.887 152.197 152.806 128.278 152.806 98.773V98.772C152.806 69.2668 128.887 45.348 99.382 45.348Z" fill="white"/>
</g>
<g opacity="0.549">
<path d="M152.509 98.624C152.509 69.2005 128.657 45.348 99.233 45.348C69.8095 45.348 45.957 69.2005 45.957 98.624C45.957 128.048 69.8095 151.9 99.233 151.9C128.657 151.9 152.509 128.048 152.509 98.624Z" fill="white"/>
</g>
<g opacity="0.529">
<path d="M152.213 98.476C152.213 69.1342 128.427 45.348 99.085 45.348C69.7432 45.348 45.957 69.1342 45.957 98.476C45.957 127.818 69.7432 151.604 99.085 151.604C128.427 151.604 152.213 127.818 152.213 98.476Z" fill="white"/>
</g>
<g opacity="0.51">
<path d="M151.917 98.328C151.917 69.068 128.197 45.348 98.937 45.348C69.677 45.348 45.957 69.068 45.957 98.328C45.957 127.588 69.677 151.308 98.937 151.308C128.197 151.308 151.917 127.588 151.917 98.328Z" fill="white"/>
</g>
<g opacity="0.49">
<path d="M151.62 98.1795C151.62 69.0015 127.967 45.348 98.7885 45.348C69.6105 45.348 45.957 69.0015 45.957 98.1795C45.957 127.358 69.6105 151.011 98.7885 151.011C127.967 151.011 151.62 127.358 151.62 98.1795Z" fill="white"/>
</g>
<g opacity="0.471">
<path d="M98.641 45.348H98.64C69.544 45.348 45.957 68.935 45.957 98.031V98.032C45.957 127.128 69.544 150.715 98.64 150.715H98.641C127.737 150.715 151.324 127.128 151.324 98.032V98.031C151.324 68.935 127.737 45.348 98.641 45.348Z" fill="white"/>
</g>
<g opacity="0.451">
<path d="M151.027 97.883C151.027 68.8687 127.506 45.348 98.492 45.348C69.4778 45.348 45.957 68.8687 45.957 97.883C45.957 126.897 69.4778 150.418 98.492 150.418C127.506 150.418 151.027 126.897 151.027 97.883Z" fill="white"/>
</g>
<g opacity="0.431">
<path d="M150.731 97.735C150.731 68.8025 127.277 45.348 98.344 45.348C69.4115 45.348 45.957 68.8025 45.957 97.735C45.957 126.668 69.4115 150.122 98.344 150.122C127.277 150.122 150.731 126.668 150.731 97.735Z" fill="white"/>
</g>
<g opacity="0.412">
<path d="M150.435 97.587C150.435 68.7362 127.047 45.348 98.196 45.348C69.3452 45.348 45.957 68.7362 45.957 97.587C45.957 126.438 69.3452 149.826 98.196 149.826C127.047 149.826 150.435 126.438 150.435 97.587Z" fill="white"/>
</g>
<g opacity="0.392">
<path d="M150.138 97.4385C150.138 68.6697 126.816 45.348 98.0475 45.348C69.2787 45.348 45.957 68.6697 45.957 97.4385C45.957 126.207 69.2787 149.529 98.0475 149.529C126.816 149.529 150.138 126.207 150.138 97.4385Z" fill="white"/>
</g>
<g opacity="0.373">
<path d="M97.9 45.348H97.899C69.2123 45.348 45.957 68.6032 45.957 97.29V97.291C45.957 125.978 69.2123 149.233 97.899 149.233H97.9C126.587 149.233 149.842 125.978 149.842 97.291V97.29C149.842 68.6032 126.587 45.348 97.9 45.348Z" fill="white"/>
</g>
<g opacity="0.353">
<path d="M97.752 45.348H97.751C69.146 45.348 45.957 68.537 45.957 97.142V97.143C45.957 125.748 69.146 148.937 97.751 148.937H97.752C126.357 148.937 149.546 125.748 149.546 97.143V97.142C149.546 68.537 126.357 45.348 97.752 45.348Z" fill="white"/>
</g>
<g opacity="0.333">
<path d="M149.249 96.994C149.249 68.4707 126.126 45.348 97.603 45.348C69.0797 45.348 45.957 68.4707 45.957 96.994C45.957 125.517 69.0797 148.64 97.603 148.64C126.126 148.64 149.249 125.517 149.249 96.994Z" fill="white"/>
</g>
<g opacity="0.314">
<path d="M148.953 96.846C148.953 68.4045 125.897 45.348 97.455 45.348C69.0135 45.348 45.957 68.4045 45.957 96.846C45.957 125.288 69.0135 148.344 97.455 148.344C125.897 148.344 148.953 125.288 148.953 96.846Z" fill="white"/>
</g>
<g opacity="0.294">
<path d="M148.656 96.6975C148.656 68.338 125.666 45.348 97.3065 45.348C68.947 45.348 45.957 68.338 45.957 96.6975C45.957 125.057 68.947 148.047 97.3065 148.047C125.666 148.047 148.656 125.057 148.656 96.6975Z" fill="white"/>
</g>
<g opacity="0.275">
<path d="M148.36 96.5495C148.36 68.2717 125.436 45.348 97.1585 45.348C68.8807 45.348 45.957 68.2717 45.957 96.5495C45.957 124.827 68.8807 147.751 97.1585 147.751C125.436 147.751 148.36 124.827 148.36 96.5495Z" fill="white"/>
</g>
<g opacity="0.255">
<path d="M97.011 45.348H97.01C68.8142 45.348 45.957 68.2052 45.957 96.401V96.402C45.957 124.598 68.8142 147.455 97.01 147.455H97.011C125.207 147.455 148.064 124.598 148.064 96.402V96.401C148.064 68.2052 125.207 45.348 97.011 45.348Z" fill="white"/>
</g>
<g opacity="0.235">
<path d="M147.767 96.253C147.767 68.139 124.976 45.348 96.862 45.348C68.748 45.348 45.957 68.139 45.957 96.253C45.957 124.367 68.748 147.158 96.862 147.158C124.976 147.158 147.767 124.367 147.767 96.253Z" fill="white"/>
</g>
<g opacity="0.216">
<path d="M147.471 96.105C147.471 68.0727 124.746 45.348 96.714 45.348C68.6817 45.348 45.957 68.0727 45.957 96.105C45.957 124.137 68.6817 146.862 96.714 146.862C124.746 146.862 147.471 124.137 147.471 96.105Z" fill="white"/>
</g>
<g opacity="0.196">
<path d="M147.174 95.9565C147.174 68.0062 124.516 45.348 96.5655 45.348C68.6152 45.348 45.957 68.0062 45.957 95.9565C45.957 123.907 68.6152 146.565 96.5655 146.565C124.516 146.565 147.174 123.907 147.174 95.9565Z" fill="white"/>
</g>
<g opacity="0.176">
<path d="M146.878 95.8085C146.878 67.94 124.286 45.348 96.4175 45.348C68.549 45.348 45.957 67.94 45.957 95.8085C45.957 123.677 68.549 146.269 96.4175 146.269C124.286 146.269 146.878 123.677 146.878 95.8085Z" fill="white"/>
</g>
<g opacity="0.157">
<path d="M96.27 45.348H96.269C68.4825 45.348 45.957 67.8735 45.957 95.66V95.661C45.957 123.448 68.4825 145.973 96.269 145.973H96.27C124.057 145.973 146.582 123.448 146.582 95.661V95.66C146.582 67.8735 124.057 45.348 96.27 45.348Z" fill="white"/>
</g>
<g opacity="0.137">
<path d="M146.285 95.512C146.285 67.8072 123.826 45.348 96.121 45.348C68.4162 45.348 45.957 67.8072 45.957 95.512C45.957 123.217 68.4162 145.676 96.121 145.676C123.826 145.676 146.285 123.217 146.285 95.512Z" fill="white"/>
</g>
<g opacity="0.118">
<path d="M145.989 95.364C145.989 67.7409 123.596 45.348 95.973 45.348C68.35 45.348 45.957 67.7409 45.957 95.364C45.957 122.987 68.35 145.38 95.973 145.38C123.596 145.38 145.989 122.987 145.989 95.364Z" fill="white"/>
</g>
<g opacity="0.098">
<path d="M145.692 95.2155C145.692 67.6745 123.366 45.348 95.8245 45.348C68.2835 45.348 45.957 67.6745 45.957 95.2155C45.957 122.757 68.2835 145.083 95.8245 145.083C123.366 145.083 145.692 122.757 145.692 95.2155Z" fill="white"/>
</g>
<g opacity="0.078">
<path d="M145.396 95.0675C145.396 67.6082 123.136 45.348 95.6765 45.348C68.2172 45.348 45.957 67.6082 45.957 95.0675C45.957 122.527 68.2172 144.787 95.6765 144.787C123.136 144.787 145.396 122.527 145.396 95.0675Z" fill="white"/>
</g>
<g opacity="0.059">
<path d="M95.529 45.348H95.528C68.1507 45.348 45.957 67.5417 45.957 94.919V94.92C45.957 122.297 68.1507 144.491 95.528 144.491H95.529C122.906 144.491 145.1 122.297 145.1 94.92V94.919C145.1 67.5417 122.906 45.348 95.529 45.348Z" fill="white"/>
</g>
<g opacity="0.039">
<path d="M144.803 94.771C144.803 67.4755 122.676 45.348 95.38 45.348C68.0845 45.348 45.957 67.4755 45.957 94.771C45.957 122.067 68.0845 144.194 95.38 144.194C122.676 144.194 144.803 122.067 144.803 94.771Z" fill="white"/>
</g>
<g opacity="0.02">
<path d="M144.507 94.623C144.507 67.4092 122.446 45.348 95.232 45.348C68.0182 45.348 45.957 67.4092 45.957 94.623C45.957 121.837 68.0182 143.898 95.232 143.898C122.446 143.898 144.507 121.837 144.507 94.623Z" fill="white"/>
</g>
</g>
<path d="M102.642 170.182C84.574 170.162 67.2515 162.975 54.4753 150.199C41.6992 137.423 34.5126 120.1 34.4922 102.032C34.4922 101.584 34.6701 101.155 34.9869 100.838C35.3036 100.521 35.7333 100.343 36.1812 100.343C36.6292 100.343 37.0587 100.521 37.3755 100.838C37.6922 101.155 37.8702 101.584 37.8702 102.032C37.8702 114.842 41.6689 127.365 48.7861 138.017C55.9032 148.668 66.019 156.97 77.8544 161.873C89.6897 166.775 102.713 168.058 115.277 165.558C127.842 163.059 139.383 156.89 148.441 147.832C157.5 138.774 163.668 127.233 166.168 114.668C168.667 102.104 167.384 89.0806 162.482 77.2452C157.579 65.4099 149.278 55.294 138.626 48.1769C127.975 41.0598 115.452 37.261 102.641 37.261C102.193 37.261 101.764 37.0831 101.447 36.7664C101.13 36.4496 100.952 36.02 100.952 35.572C100.952 35.1241 101.13 34.6944 101.447 34.3777C101.764 34.0609 102.193 33.8831 102.641 33.8831C120.716 33.8831 138.05 41.0631 150.831 53.8438C163.611 66.6244 170.791 83.9586 170.791 102.033C170.791 120.108 163.611 137.442 150.831 150.222C138.05 163.003 120.716 170.183 102.641 170.183L102.642 170.182Z" fill="#55D67D"/>
<mask id="mask1_62_28" style="mask-type:luminance" maskUnits="userSpaceOnUse" x="67" y="59" width="77" height="82">
<path d="M143.702 59H67.0002V140.16H143.702V59Z" fill="white"/>
</mask>
<g mask="url(#mask1_62_28)">
<path d="M139.629 85.0428L113.669 62.0328C111.468 60.0921 108.639 59.0147 105.705 59.0001C102.77 58.9856 99.9302 60.035 97.7102 61.9538L71.1642 85.0178C69.8568 86.153 68.8083 87.5559 68.09 89.1314C67.3716 90.7069 66.9999 92.4183 67.0002 94.1498V128.063C67.0032 131.271 68.2789 134.347 70.5475 136.616C72.816 138.884 75.892 140.16 79.1002 140.163H131.606C134.815 140.16 137.891 138.885 140.16 136.616C142.428 134.348 143.704 131.271 143.706 128.063V94.0998C143.706 92.3888 143.343 90.6973 142.641 89.1368C141.939 87.5764 140.914 86.1824 139.634 85.0468M137.713 94.0998V128.063C137.705 128.678 137.604 129.287 137.413 129.872L118.6 113.03L137.7 93.9238C137.7 93.9808 137.708 94.0388 137.708 94.0958M101.636 66.4748C102.757 65.5047 104.192 64.9741 105.674 64.9815C107.157 64.9888 108.586 65.5336 109.697 66.5148L134.586 88.5748L114.129 109.032L113.829 108.76C112.308 107.264 110.417 106.199 108.348 105.676V87.3478L111.533 90.7358C112.05 91.2519 112.711 91.6 113.429 91.7343C114.147 91.8687 114.889 91.7831 115.557 91.4888C116.015 91.3022 116.421 91.007 116.739 90.6285C117.057 90.2501 117.279 89.7999 117.384 89.3168C117.479 88.861 117.461 88.389 117.333 87.9416C117.204 87.4942 116.969 87.0848 116.646 86.7488L107.906 77.4568C107.211 76.8124 106.297 76.4549 105.349 76.456C104.401 76.4571 103.488 76.8168 102.794 77.4628L94.0622 86.7488C93.5514 87.2861 93.2652 87.9984 93.2622 88.7398C93.2699 89.3329 93.4531 89.9103 93.7888 90.3992C94.1245 90.8882 94.5976 91.2666 95.1482 91.4868H95.1542C95.619 91.686 96.1196 91.7881 96.6252 91.7868C97.1009 91.7925 97.5727 91.7015 98.0121 91.5192C98.4515 91.337 98.8492 91.0674 99.1812 90.7268L102.363 87.3438V105.664C100.278 106.184 98.3716 107.254 96.8422 108.764L96.2772 109.274L75.8632 88.8658L101.636 66.4748ZM73.3412 130.03C73.1145 129.398 72.9949 128.733 72.9872 128.062V94.4578L91.8282 113.3L73.3412 130.03ZM79.1002 134.173C78.6764 134.172 78.2537 134.127 77.8392 134.039L100.907 113.16L101.015 113.06C102.162 111.916 103.716 111.274 105.336 111.274C106.955 111.274 108.509 111.916 109.656 113.06L133.031 133.99C132.565 134.108 132.087 134.171 131.606 134.176L79.1002 134.173Z" fill="#09CE43"/>
</g>
</svg>
