<svg width="25" height="30" viewBox="0 0 25 30" fill="none" xmlns="http://www.w3.org/2000/svg">
<path fill-rule="evenodd" clip-rule="evenodd" d="M12.498 29.233C12.6952 29.2363 12.8921 29.2176 13.0851 29.1771C13.5468 29.0837 13.9796 28.8819 14.3479 28.5882C14.7162 28.2945 15.0093 27.9173 15.203 27.488C15.3516 27.1338 15.4264 26.7532 15.423 26.3691H9.53809C9.55438 27.1401 9.87436 27.8734 10.4285 28.4097C10.9826 28.946 11.727 29.2418 12.498 29.233Z" fill="#CCCCCC"/>
<path d="M23.2039 25.8981H1.76093C1.34521 25.9029 0.944491 25.7426 0.646792 25.4524C0.349092 25.1622 0.178712 24.7657 0.172915 24.35C0.171041 24.1449 0.210966 23.9417 0.290224 23.7525C0.369482 23.5634 0.486348 23.3924 0.633852 23.25L2.42584 21.5071C2.85864 21.0802 3.10439 20.4989 3.10895 19.891V13.891C3.10895 9.80498 5.18596 4.94003 9.72296 3.63103V3.06999C9.72314 2.70071 9.80042 2.33553 9.94989 1.99785C10.0994 1.66016 10.3176 1.35741 10.5909 1.10899C10.8689 0.85604 11.1951 0.661675 11.5499 0.53746C11.9046 0.413245 12.2808 0.361763 12.6559 0.386032C13.3551 0.430802 14.0109 0.740297 14.4898 1.25157C14.9688 1.76285 15.2349 2.43742 15.2339 3.13798V3.62804C19.775 4.94004 21.848 9.80205 21.848 13.888V19.888C21.8499 20.1892 21.9112 20.4869 22.0286 20.7643C22.146 21.0416 22.3171 21.293 22.5319 21.504L24.3229 23.2471C24.4706 23.3894 24.5875 23.5604 24.6668 23.7495C24.7461 23.9386 24.7859 24.142 24.7839 24.347C24.7786 24.762 24.6095 25.1581 24.3133 25.4488C24.0171 25.7396 23.618 25.9014 23.2029 25.899" fill="#CCCCCC"/>
</svg>
