<svg width="30" height="30" viewBox="0 0 30 30" fill="none" xmlns="http://www.w3.org/2000/svg">
<path d="M14.9491 0.388C12.0967 0.388 9.30835 1.23383 6.93667 2.81854C4.56498 4.40325 2.71648 6.65568 1.62491 9.29095C0.533348 11.9262 0.247745 14.8261 0.804221 17.6237C1.3607 20.4213 2.73426 22.991 4.75121 25.0079C6.76817 27.0249 9.33791 28.3985 12.1355 28.955C14.9331 29.5114 17.8329 29.2257 20.4682 28.1342C23.1034 27.0426 25.3558 25.1941 26.9406 22.8224C28.5253 20.4507 29.3711 17.6625 29.3711 14.8101C29.3711 10.9851 27.8516 7.31677 25.147 4.61212C22.4423 1.90747 18.7741 0.388 14.9491 0.388ZM13.8231 3.56299C14.0705 3.31466 14.3861 3.1454 14.7298 3.07654C15.0735 3.00768 15.4299 3.04236 15.7539 3.17621C16.0779 3.31006 16.3549 3.53705 16.5497 3.82843C16.7446 4.11981 16.8487 4.46244 16.8487 4.81299C16.8487 5.16353 16.7446 5.50623 16.5497 5.79761C16.3549 6.08899 16.0779 6.31598 15.7539 6.44983C15.4299 6.58368 15.0735 6.61836 14.7298 6.5495C14.3861 6.48064 14.0705 6.31131 13.8231 6.06299C13.4924 5.73105 13.3067 5.28157 13.3067 4.81299C13.3067 4.34441 13.4924 3.89493 13.8231 3.56299ZM3.70209 15.936C3.45377 15.6886 3.28446 15.373 3.2156 15.0293C3.14674 14.6856 3.18145 14.3292 3.3153 14.0052C3.44915 13.6813 3.67614 13.4042 3.96752 13.2094C4.2589 13.0145 4.60155 12.9104 4.95209 12.9104C5.30264 12.9104 5.6453 13.0145 5.93668 13.2094C6.22806 13.4042 6.45505 13.6813 6.5889 14.0052C6.72276 14.3292 6.75745 14.6856 6.68859 15.0293C6.61973 15.373 6.45042 15.6886 6.20209 15.936C5.87015 16.2668 5.42067 16.4524 4.95209 16.4524C4.48351 16.4524 4.03403 16.2668 3.70209 15.936ZM7.7961 23.559C7.44583 23.559 7.10343 23.4551 6.81219 23.2605C6.52095 23.0659 6.29395 22.7893 6.1599 22.4657C6.02586 22.1421 5.9908 21.786 6.05913 21.4425C6.12747 21.099 6.29614 20.7834 6.54381 20.5358C6.79149 20.2881 7.10706 20.1194 7.4506 20.051C7.79414 19.9827 8.15023 20.0178 8.47384 20.1519C8.79745 20.2859 9.07404 20.5128 9.26864 20.8041C9.46324 21.0953 9.5671 21.4377 9.5671 21.788C9.5671 22.2577 9.38052 22.7082 9.04839 23.0403C8.71627 23.3724 8.2658 23.559 7.7961 23.559ZM7.9751 9.42499C7.62483 9.42538 7.28231 9.32196 6.99085 9.12769C6.69939 8.93341 6.47209 8.65707 6.33768 8.33362C6.20328 8.01016 6.16779 7.6541 6.23574 7.31049C6.30369 6.96687 6.472 6.6511 6.7194 6.40314C6.9668 6.15518 7.28217 5.98614 7.62563 5.91742C7.9691 5.8487 8.32522 5.88341 8.64898 6.01709C8.97274 6.15077 9.2496 6.37744 9.44453 6.66846C9.63945 6.95948 9.74371 7.30177 9.7441 7.65204C9.74331 8.12122 9.55637 8.57087 9.22433 8.90234C8.89229 9.23382 8.44228 9.42004 7.97311 9.42004M14.9501 16.3981C14.4876 16.3897 14.0467 16.2006 13.7218 15.8713C13.3968 15.5421 13.2136 15.0989 13.2112 14.6364C13.2089 14.1738 13.3876 13.7286 13.7092 13.3961C14.0308 13.0636 14.4697 12.8701 14.9321 12.8571L21.3931 6.396C21.6359 6.1889 21.9479 6.08092 22.2668 6.09357C22.5857 6.10622 22.8882 6.23855 23.1139 6.46423C23.3395 6.68992 23.4719 6.99237 23.4845 7.31128C23.4972 7.63019 23.3892 7.94215 23.1821 8.185L16.7211 14.646C16.7158 15.1122 16.5269 15.5576 16.1954 15.8854C15.8638 16.2132 15.4163 16.397 14.9501 16.397M21.9281 23.733C21.578 23.733 21.2358 23.6292 20.9446 23.4348C20.6534 23.2404 20.4265 22.964 20.2923 22.6406C20.1581 22.3172 20.1228 21.9614 20.1908 21.6179C20.2589 21.2745 20.4271 20.959 20.6744 20.7112C20.9217 20.4633 21.2369 20.2944 21.5801 20.2256C21.9234 20.1568 22.2794 20.1913 22.6031 20.3247C22.9267 20.4581 23.2036 20.6845 23.3987 20.9752C23.5938 21.2659 23.6983 21.6079 23.6991 21.958C23.6996 22.1909 23.6542 22.4216 23.5654 22.637C23.4767 22.8523 23.3463 23.048 23.1818 23.2129C23.0173 23.3778 22.8219 23.5085 22.6068 23.5978C22.3916 23.687 22.161 23.733 21.9281 23.733ZM23.6921 16.193C23.4438 15.9456 23.2745 15.6301 23.2056 15.2864C23.1367 14.9427 23.1714 14.5862 23.3053 14.2622C23.4391 13.9382 23.6661 13.6612 23.9575 13.4663C24.2489 13.2714 24.5916 13.1675 24.9421 13.1675C25.2926 13.1675 25.6353 13.2714 25.9267 13.4663C26.2181 13.6612 26.4451 13.9382 26.5789 14.2622C26.7128 14.5862 26.7475 14.9427 26.6786 15.2864C26.6097 15.6301 26.4404 15.9456 26.1921 16.193C25.8602 16.5237 25.4107 16.7095 24.9421 16.7095C24.4735 16.7095 24.024 16.5237 23.6921 16.193Z" fill="#CCCCCC"/>
</svg>
