<svg width="36" height="30" viewBox="0 0 36 30" fill="none" xmlns="http://www.w3.org/2000/svg">
<path d="M35.739 27.8301C35.6042 28.0496 35.4423 28.2512 35.257 28.4301C34.849 28.7391 34.368 28.641 33.843 28.191C33.81 28.312 33.783 28.422 33.743 28.537C33.6684 28.7624 33.5167 28.9544 33.3146 29.0791C33.1125 29.2038 32.873 29.2534 32.638 29.219C32.4029 29.1883 32.1857 29.077 32.0234 28.9042C31.8612 28.7313 31.7638 28.5076 31.748 28.271C31.739 28.145 31.748 28.018 31.748 27.891V12.6541C31.596 12.7381 31.487 12.794 31.383 12.854C26.9163 15.5467 22.4516 18.243 17.989 20.943C17.7496 21.1171 17.4615 21.2113 17.1655 21.2124C16.8695 21.2135 16.5807 21.1213 16.34 20.949C11.2913 17.8823 6.23799 14.8314 1.17999 11.796C0.976634 11.721 0.801156 11.5854 0.677216 11.4076C0.553275 11.2298 0.486816 11.0183 0.486816 10.8015C0.486816 10.5848 0.553275 10.3732 0.677216 10.1954C0.801156 10.0176 0.976634 9.88202 1.17999 9.80701C6.25666 6.74567 11.3333 3.68234 16.41 0.617004C16.6294 0.462042 16.8914 0.378845 17.16 0.378845C17.4286 0.378845 17.6906 0.462042 17.91 0.617004C22.9767 3.68367 28.0533 6.74472 33.14 9.80005C33.3582 9.91472 33.5387 10.0898 33.66 10.3044C33.7813 10.519 33.8383 10.7639 33.824 11.01C33.814 15.2407 33.814 19.4694 33.824 23.696V24.1481C34.554 24.2481 35.396 24.101 35.753 25V25.551L35.106 26.337L35.753 27.344L35.739 27.8301Z" fill="#CCCCCC"/>
<path d="M7.32493 17.842C7.45193 17.911 7.55593 17.957 7.64493 18.017C10.2863 19.6083 12.9269 21.2014 15.5669 22.796C16.0784 23.1431 16.6813 23.3306 17.2994 23.3347C17.9175 23.3388 18.5229 23.1593 19.0389 22.819C21.6783 21.2243 24.3193 19.632 26.9619 18.042C27.0669 17.978 27.1769 17.921 27.3079 17.849C27.3248 17.898 27.3369 17.9486 27.3439 18C27.3439 19 27.3579 20 27.3439 21C27.3201 21.9339 27.0895 22.8509 26.6688 23.6851C26.2481 24.5192 25.6477 25.2497 24.9109 25.824C23.2237 27.2275 21.1512 28.0876 18.9659 28.291C16.5757 28.6136 14.143 28.2458 11.9549 27.231C10.2849 26.5131 8.89752 25.2657 8.00693 23.681C7.5611 22.8597 7.32351 21.9415 7.31495 21.007C7.30395 20.019 7.31495 19.03 7.31495 18.042C7.31888 17.9749 7.32654 17.9082 7.33793 17.842" fill="#CCCCCC"/>
</svg>
