<svg width="152" height="152" viewBox="0 0 152 152" fill="none" xmlns="http://www.w3.org/2000/svg">
<path d="M151.159 75.5795C151.159 33.8381 117.321 0 75.5795 0C33.8381 0 0 33.8381 0 75.5795C0 117.321 33.8381 151.159 75.5795 151.159C117.321 151.159 151.159 117.321 151.159 75.5795Z" fill="#F2F3F7"/>
<g opacity="0.8">
<path d="M132.264 75.5795C132.264 44.2735 106.885 18.895 75.5793 18.895C44.2733 18.895 18.8948 44.2735 18.8948 75.5795C18.8948 106.886 44.2733 132.264 75.5793 132.264C106.885 132.264 132.264 106.886 132.264 75.5795Z" fill="white"/>
<g opacity="0.98">
<path d="M131.968 75.4315C131.968 44.2073 106.656 18.895 75.4313 18.895C44.207 18.895 18.8948 44.2073 18.8948 75.4315C18.8948 106.656 44.207 131.968 75.4313 131.968C106.656 131.968 131.968 106.656 131.968 75.4315Z" fill="white"/>
</g>
<g opacity="0.961">
<path d="M75.2838 18.895H75.2828C44.1405 18.895 18.8948 44.1408 18.8948 75.283V75.284C18.8948 106.426 44.1405 131.672 75.2828 131.672H75.2838C106.426 131.672 131.672 106.426 131.672 75.284V75.283C131.672 44.1408 106.426 18.895 75.2838 18.895Z" fill="white"/>
</g>
<g opacity="0.941">
<path d="M131.375 75.135C131.375 44.0745 106.195 18.895 75.1348 18.895C44.0743 18.895 18.8948 44.0745 18.8948 75.135C18.8948 106.196 44.0743 131.375 75.1348 131.375C106.195 131.375 131.375 106.196 131.375 75.135Z" fill="white"/>
</g>
<g opacity="0.922">
<path d="M131.079 74.987C131.079 44.0083 105.966 18.895 74.9868 18.895C44.008 18.895 18.8948 44.0083 18.8948 74.987C18.8948 105.966 44.008 131.079 74.9868 131.079C105.966 131.079 131.079 105.966 131.079 74.987Z" fill="white"/>
</g>
<g opacity="0.902">
<path d="M130.782 74.8385C130.782 43.9418 105.735 18.895 74.8383 18.895C43.9415 18.895 18.8948 43.9418 18.8948 74.8385C18.8948 105.735 43.9415 130.782 74.8383 130.782C105.735 130.782 130.782 105.735 130.782 74.8385Z" fill="white"/>
</g>
<g opacity="0.882">
<path d="M130.486 74.6905C130.486 43.8755 105.505 18.895 74.6903 18.895C43.8753 18.895 18.8948 43.8755 18.8948 74.6905C18.8948 105.506 43.8753 130.486 74.6903 130.486C105.505 130.486 130.486 105.506 130.486 74.6905Z" fill="white"/>
</g>
<g opacity="0.863">
<path d="M74.5428 18.895H74.5418C43.8088 18.895 18.8948 43.809 18.8948 74.542V74.543C18.8948 105.276 43.8088 130.19 74.5418 130.19H74.5428C105.276 130.19 130.19 105.276 130.19 74.543V74.542C130.19 43.809 105.276 18.895 74.5428 18.895Z" fill="white"/>
</g>
<g opacity="0.843">
<path d="M129.893 74.394C129.893 43.7428 105.045 18.895 74.3938 18.895C43.7425 18.895 18.8948 43.7428 18.8948 74.394C18.8948 105.045 43.7425 129.893 74.3938 129.893C105.045 129.893 129.893 105.045 129.893 74.394Z" fill="white"/>
</g>
<g opacity="0.824">
<path d="M129.597 74.246C129.597 43.6765 104.815 18.895 74.2458 18.895C43.6763 18.895 18.8948 43.6765 18.8948 74.246C18.8948 104.816 43.6763 129.597 74.2458 129.597C104.815 129.597 129.597 104.816 129.597 74.246Z" fill="white"/>
</g>
<g opacity="0.804">
<path d="M129.301 74.098C129.301 43.6102 104.586 18.895 74.0978 18.895C43.61 18.895 18.8948 43.6102 18.8948 74.098C18.8948 104.586 43.61 129.301 74.0978 129.301C104.586 129.301 129.301 104.586 129.301 74.098Z" fill="white"/>
</g>
<g opacity="0.784">
<path d="M129.004 73.9495C129.004 43.5438 104.355 18.895 73.9493 18.895C43.5435 18.895 18.8948 43.5438 18.8948 73.9495C18.8948 104.355 43.5435 129.004 73.9493 129.004C104.355 129.004 129.004 104.355 129.004 73.9495Z" fill="white"/>
</g>
<g opacity="0.765">
<path d="M73.8008 18.895C88.3628 18.895 102.328 24.6797 112.625 34.9766C122.922 45.2735 128.707 59.239 128.707 73.801C128.707 88.363 122.922 102.329 112.625 112.625C102.328 122.922 88.3628 128.707 73.8008 128.707C59.2388 128.707 45.2732 122.922 34.9764 112.625C24.6795 102.329 18.8948 88.363 18.8948 73.801C18.8948 59.239 24.6795 45.2735 34.9764 34.9766C45.2732 24.6797 59.2388 18.895 73.8008 18.895Z" fill="white"/>
</g>
<g opacity="0.745">
<path d="M128.411 73.653C128.411 43.411 103.895 18.895 73.6528 18.895C43.4108 18.895 18.8948 43.411 18.8948 73.653C18.8948 103.895 43.4108 128.411 73.6528 128.411C103.895 128.411 128.411 103.895 128.411 73.653Z" fill="white"/>
</g>
<g opacity="0.725">
<path d="M128.115 73.505C128.115 43.3447 103.665 18.895 73.5048 18.895C43.3445 18.895 18.8948 43.3447 18.8948 73.505C18.8948 103.665 43.3445 128.115 73.5048 128.115C103.665 128.115 128.115 103.665 128.115 73.505Z" fill="white"/>
</g>
<g opacity="0.706">
<path d="M127.819 73.357C127.819 43.2785 103.435 18.895 73.3568 18.895C43.2782 18.895 18.8948 43.2785 18.8948 73.357C18.8948 103.436 43.2782 127.819 73.3568 127.819C103.435 127.819 127.819 103.436 127.819 73.357Z" fill="white"/>
</g>
<g opacity="0.686">
<path d="M127.522 73.2085C127.522 43.212 103.205 18.895 73.2083 18.895C43.2118 18.895 18.8948 43.212 18.8948 73.2085C18.8948 103.205 43.2118 127.522 73.2083 127.522C103.205 127.522 127.522 103.205 127.522 73.2085Z" fill="white"/>
</g>
<g opacity="0.667">
<path d="M73.0608 18.895H73.0598C43.1453 18.895 18.8948 43.1455 18.8948 73.06V73.061C18.8948 102.976 43.1453 127.226 73.0598 127.226H73.0608C102.975 127.226 127.226 102.976 127.226 73.061V73.06C127.226 43.1455 102.975 18.895 73.0608 18.895Z" fill="white"/>
</g>
<g opacity="0.647">
<path d="M126.929 72.912C126.929 43.0793 102.745 18.895 72.9118 18.895C43.079 18.895 18.8948 43.0793 18.8948 72.912C18.8948 102.745 43.079 126.929 72.9118 126.929C102.745 126.929 126.929 102.745 126.929 72.912Z" fill="white"/>
</g>
<g opacity="0.627">
<path d="M126.633 72.764C126.633 43.013 102.515 18.895 72.7638 18.895C43.0127 18.895 18.8948 43.013 18.8948 72.764C18.8948 102.515 43.0127 126.633 72.7638 126.633C102.515 126.633 126.633 102.515 126.633 72.764Z" fill="white"/>
</g>
<g opacity="0.608">
<path d="M126.337 72.616C126.337 42.9467 102.285 18.895 72.6158 18.895C42.9465 18.895 18.8948 42.9467 18.8948 72.616C18.8948 102.285 42.9465 126.337 72.6158 126.337C102.285 126.337 126.337 102.285 126.337 72.616Z" fill="white"/>
</g>
<g opacity="0.588">
<path d="M126.04 72.4675C126.04 42.8802 102.055 18.895 72.4673 18.895C42.88 18.895 18.8948 42.8802 18.8948 72.4675C18.8948 102.055 42.88 126.04 72.4673 126.04C102.055 126.04 126.04 102.055 126.04 72.4675Z" fill="white"/>
</g>
<g opacity="0.569">
<path d="M72.3198 18.895H72.3188C42.8135 18.895 18.8948 42.8138 18.8948 72.319V72.32C18.8948 101.825 42.8135 125.744 72.3188 125.744H72.3198C101.825 125.744 125.744 101.825 125.744 72.32V72.319C125.744 42.8138 101.825 18.895 72.3198 18.895Z" fill="white"/>
</g>
<g opacity="0.549">
<path d="M125.447 72.171C125.447 42.7475 101.594 18.895 72.1708 18.895C42.7473 18.895 18.8948 42.7475 18.8948 72.171C18.8948 101.595 42.7473 125.447 72.1708 125.447C101.594 125.447 125.447 101.595 125.447 72.171Z" fill="white"/>
</g>
<g opacity="0.529">
<path d="M125.151 72.023C125.151 42.6812 101.365 18.895 72.0228 18.895C42.681 18.895 18.8948 42.6812 18.8948 72.023C18.8948 101.365 42.681 125.151 72.0228 125.151C101.365 125.151 125.151 101.365 125.151 72.023Z" fill="white"/>
</g>
<g opacity="0.51">
<path d="M124.855 71.875C124.855 42.615 101.135 18.895 71.8748 18.895C42.6147 18.895 18.8948 42.615 18.8948 71.875C18.8948 101.135 42.6147 124.855 71.8748 124.855C101.135 124.855 124.855 101.135 124.855 71.875Z" fill="white"/>
</g>
<g opacity="0.49">
<path d="M124.558 71.7265C124.558 42.5485 100.904 18.895 71.7263 18.895C42.5482 18.895 18.8948 42.5485 18.8948 71.7265C18.8948 100.905 42.5482 124.558 71.7263 124.558C100.904 124.558 124.558 100.905 124.558 71.7265Z" fill="white"/>
</g>
<g opacity="0.471">
<path d="M71.5788 18.895H71.5778C42.4818 18.895 18.8948 42.482 18.8948 71.578V71.579C18.8948 100.675 42.4818 124.262 71.5778 124.262H71.5788C100.675 124.262 124.262 100.675 124.262 71.579V71.578C124.262 42.482 100.675 18.895 71.5788 18.895Z" fill="white"/>
</g>
<g opacity="0.451">
<path d="M123.965 71.43C123.965 42.4157 100.444 18.895 71.4298 18.895C42.4155 18.895 18.8948 42.4157 18.8948 71.43C18.8948 100.444 42.4155 123.965 71.4298 123.965C100.444 123.965 123.965 100.444 123.965 71.43Z" fill="white"/>
</g>
<g opacity="0.431">
<path d="M123.669 71.282C123.669 42.3495 100.214 18.895 71.2818 18.895C42.3492 18.895 18.8948 42.3495 18.8948 71.282C18.8948 100.215 42.3492 123.669 71.2818 123.669C100.214 123.669 123.669 100.215 123.669 71.282Z" fill="white"/>
</g>
<g opacity="0.412">
<path d="M123.373 71.134C123.373 42.2832 99.9846 18.895 71.1338 18.895C42.283 18.895 18.8948 42.2832 18.8948 71.134C18.8948 99.9848 42.283 123.373 71.1338 123.373C99.9846 123.373 123.373 99.9848 123.373 71.134Z" fill="white"/>
</g>
<g opacity="0.392">
<path d="M123.076 70.9855C123.076 42.2167 99.7541 18.895 70.9853 18.895C42.2165 18.895 18.8948 42.2167 18.8948 70.9855C18.8948 99.7543 42.2165 123.076 70.9853 123.076C99.7541 123.076 123.076 99.7543 123.076 70.9855Z" fill="white"/>
</g>
<g opacity="0.373">
<path d="M70.8378 18.895H70.8368C42.15 18.895 18.8948 42.1502 18.8948 70.837V70.838C18.8948 99.5248 42.15 122.78 70.8368 122.78H70.8378C99.5246 122.78 122.78 99.5248 122.78 70.838V70.837C122.78 42.1502 99.5246 18.895 70.8378 18.895Z" fill="white"/>
</g>
<g opacity="0.353">
<path d="M70.6898 18.895H70.6888C42.0837 18.895 18.8948 42.084 18.8948 70.689V70.69C18.8948 99.2951 42.0837 122.484 70.6888 122.484H70.6898C99.2948 122.484 122.484 99.2951 122.484 70.69V70.689C122.484 42.084 99.2948 18.895 70.6898 18.895Z" fill="white"/>
</g>
<g opacity="0.333">
<path d="M122.187 70.541C122.187 42.0177 99.0641 18.895 70.5408 18.895C42.0175 18.895 18.8948 42.0177 18.8948 70.541C18.8948 99.0643 42.0175 122.187 70.5408 122.187C99.0641 122.187 122.187 99.0643 122.187 70.541Z" fill="white"/>
</g>
<g opacity="0.314">
<path d="M121.891 70.393C121.891 41.9515 98.8343 18.895 70.3928 18.895C41.9512 18.895 18.8948 41.9515 18.8948 70.393C18.8948 98.8346 41.9512 121.891 70.3928 121.891C98.8343 121.891 121.891 98.8346 121.891 70.393Z" fill="white"/>
</g>
<g opacity="0.294">
<path d="M121.594 70.2445C121.594 41.885 98.6038 18.895 70.2443 18.895C41.8847 18.895 18.8948 41.885 18.8948 70.2445C18.8948 98.6041 41.8847 121.594 70.2443 121.594C98.6038 121.594 121.594 98.6041 121.594 70.2445Z" fill="white"/>
</g>
<g opacity="0.275">
<path d="M121.298 70.0965C121.298 41.8187 98.3741 18.895 70.0963 18.895C41.8185 18.895 18.8948 41.8187 18.8948 70.0965C18.8948 98.3743 41.8185 121.298 70.0963 121.298C98.3741 121.298 121.298 98.3743 121.298 70.0965Z" fill="white"/>
</g>
<g opacity="0.255">
<path d="M69.9488 18.895H69.9478C41.752 18.895 18.8948 41.7522 18.8948 69.948V69.949C18.8948 98.1448 41.752 121.002 69.9478 121.002H69.9488C98.1446 121.002 121.002 98.1448 121.002 69.949V69.948C121.002 41.7522 98.1446 18.895 69.9488 18.895Z" fill="white"/>
</g>
<g opacity="0.235">
<path d="M120.705 69.8C120.705 41.686 97.9138 18.895 69.7998 18.895C41.6857 18.895 18.8948 41.686 18.8948 69.8C18.8948 97.9141 41.6857 120.705 69.7998 120.705C97.9138 120.705 120.705 97.9141 120.705 69.8Z" fill="white"/>
</g>
<g opacity="0.216">
<path d="M120.409 69.652C120.409 41.6197 97.6841 18.895 69.6518 18.895C41.6195 18.895 18.8948 41.6197 18.8948 69.652C18.8948 97.6843 41.6195 120.409 69.6518 120.409C97.6841 120.409 120.409 97.6843 120.409 69.652Z" fill="white"/>
</g>
<g opacity="0.196">
<path d="M120.112 69.5035C120.112 41.5532 97.4536 18.895 69.5033 18.895C41.553 18.895 18.8948 41.5532 18.8948 69.5035C18.8948 97.4538 41.553 120.112 69.5033 120.112C97.4536 120.112 120.112 97.4538 120.112 69.5035Z" fill="white"/>
</g>
<g opacity="0.176">
<path d="M119.816 69.3555C119.816 41.487 97.2238 18.895 69.3553 18.895C41.4867 18.895 18.8948 41.487 18.8948 69.3555C18.8948 97.2241 41.4867 119.816 69.3553 119.816C97.2238 119.816 119.816 97.2241 119.816 69.3555Z" fill="white"/>
</g>
<g opacity="0.157">
<path d="M69.2078 18.895H69.2068C41.4202 18.895 18.8948 41.4205 18.8948 69.207V69.208C18.8948 96.9946 41.4202 119.52 69.2068 119.52H69.2078C96.9943 119.52 119.52 96.9946 119.52 69.208V69.207C119.52 41.4205 96.9943 18.895 69.2078 18.895Z" fill="white"/>
</g>
<g opacity="0.137">
<path d="M119.223 69.059C119.223 41.3542 96.7636 18.895 69.0588 18.895C41.354 18.895 18.8948 41.3542 18.8948 69.059C18.8948 96.7638 41.354 119.223 69.0588 119.223C96.7636 119.223 119.223 96.7638 119.223 69.059Z" fill="white"/>
</g>
<g opacity="0.118">
<path d="M118.927 68.911C118.927 41.2879 96.5338 18.895 68.9108 18.895C41.2877 18.895 18.8948 41.2879 18.8948 68.911C18.8948 96.5341 41.2877 118.927 68.9108 118.927C96.5338 118.927 118.927 96.5341 118.927 68.911Z" fill="white"/>
</g>
<g opacity="0.098">
<path d="M118.63 68.7625C118.63 41.2215 96.3033 18.895 68.7623 18.895C41.2212 18.895 18.8948 41.2215 18.8948 68.7625C18.8948 96.3036 41.2212 118.63 68.7623 118.63C96.3033 118.63 118.63 96.3036 118.63 68.7625Z" fill="white"/>
</g>
<g opacity="0.078">
<path d="M118.334 68.6145C118.334 41.1552 96.0736 18.895 68.6143 18.895C41.155 18.895 18.8948 41.1552 18.8948 68.6145C18.8948 96.0738 41.155 118.334 68.6143 118.334C96.0736 118.334 118.334 96.0738 118.334 68.6145Z" fill="white"/>
</g>
<g opacity="0.059">
<path d="M68.4668 18.895H68.4658C41.0885 18.895 18.8948 41.0887 18.8948 68.466V68.467C18.8948 95.8443 41.0885 118.038 68.4658 118.038H68.4668C95.8441 118.038 118.038 95.8443 118.038 68.467V68.466C118.038 41.0887 95.8441 18.895 68.4668 18.895Z" fill="white"/>
</g>
<g opacity="0.039">
<path d="M117.741 68.318C117.741 41.0225 95.6133 18.895 68.3178 18.895C41.0222 18.895 18.8948 41.0225 18.8948 68.318C18.8948 95.6136 41.0222 117.741 68.3178 117.741C95.6133 117.741 117.741 95.6136 117.741 68.318Z" fill="white"/>
</g>
<g opacity="0.02">
<path d="M117.445 68.17C117.445 40.9562 95.3836 18.895 68.1698 18.895C40.9559 18.895 18.8948 40.9562 18.8948 68.17C18.8948 95.3839 40.9559 117.445 68.1698 117.445C95.3836 117.445 117.445 95.3839 117.445 68.17Z" fill="white"/>
</g>
</g>
<path d="M75.6969 143.73C57.6287 143.709 40.3062 136.523 27.53 123.747C14.7538 110.971 7.56726 93.6481 7.54688 75.5798C7.54688 75.1319 7.72482 74.7024 8.04156 74.3856C8.35831 74.0689 8.78795 73.8909 9.2359 73.8909C9.68385 73.8909 10.1134 74.0689 10.4302 74.3856C10.7469 74.7024 10.9249 75.1319 10.9249 75.5798C10.9249 88.3903 14.7236 100.913 21.8408 111.565C28.9579 122.216 39.0737 130.518 50.9091 135.421C62.7444 140.323 75.7677 141.606 88.3321 139.106C100.896 136.607 112.438 130.438 121.496 121.38C130.554 112.321 136.723 100.78 139.222 88.2161C141.721 75.6517 140.439 62.6284 135.536 50.7931C130.634 38.9577 122.332 28.8419 111.681 21.7247C101.029 14.6076 88.5064 10.8088 75.6959 10.8088C75.2479 10.8088 74.8183 10.631 74.5016 10.3142C74.1848 9.99746 74.0069 9.56782 74.0069 9.11987C74.0069 8.67192 74.1848 8.24229 74.5016 7.92554C74.8183 7.60879 75.2479 7.43091 75.6959 7.43091C93.7704 7.43091 111.105 14.611 123.885 27.3916C136.666 40.1722 143.846 57.5064 143.846 75.5809C143.846 93.6554 136.666 110.99 123.885 123.77C111.105 136.551 93.7704 143.731 75.6959 143.731L75.6969 143.73Z" fill="#1B6CE2"/>
<path d="M69.7926 103.48V96.9345H70.5852V99.8493H74.0753V96.9345H74.8679V103.48H74.0753V100.552H70.5852V103.48H69.7926ZM76.4547 103.48V96.9345H78.6664C79.1777 96.9345 79.5975 97.0219 79.9256 97.1966C80.2537 97.3692 80.4966 97.6068 80.6543 97.9093C80.812 98.2119 80.8908 98.556 80.8908 98.9416C80.8908 99.3273 80.812 99.6693 80.6543 99.9676C80.4966 100.266 80.2548 100.5 79.9288 100.671C79.6028 100.839 79.1863 100.923 78.6792 100.923H76.8894V100.207H78.6536C79.003 100.207 79.2843 100.156 79.4973 100.054C79.7125 99.9516 79.8681 99.8067 79.964 99.6192C80.062 99.4296 80.111 99.2037 80.111 98.9416C80.111 98.6796 80.062 98.4505 79.964 98.2545C79.8659 98.0585 79.7093 97.9072 79.4941 97.8006C79.2789 97.692 78.9945 97.6377 78.6408 97.6377H77.2473V103.48H76.4547ZM79.5357 100.54L81.1465 103.48H80.226L78.6408 100.54H79.5357Z" fill="#5B749E"/>
<mask id="mask0_3209_2245" style="mask-type:luminance" maskUnits="userSpaceOnUse" x="59" y="55" width="34" height="35">
<path d="M92.83 55.325H59V89.1609H92.83V55.325Z" fill="white"/>
</mask>
<g mask="url(#mask0_3209_2245)">
<path d="M88.9362 88.9119C88.7365 88.7669 88.5452 88.6106 88.3632 88.4439C87.2152 87.3069 86.0772 86.1579 84.9232 85.0039C84.6325 85.23 84.2884 85.3773 83.9242 85.4314C83.56 85.4855 83.188 85.4447 82.8442 85.3129C82.3887 85.0929 81.9698 84.8042 81.6022 84.4569C81.2346 84.1353 80.8879 83.7906 80.5642 83.4249C80.5093 83.3473 80.4262 83.2944 80.3327 83.2773C80.2392 83.2603 80.1428 83.2806 80.0642 83.3339C78.018 84.3359 75.756 84.8169 73.4792 84.7339C71.1236 84.6998 68.813 84.084 66.7529 82.9412C64.6928 81.7985 62.9471 80.1643 61.6712 78.1839C59.9147 75.6175 59.0697 72.5363 59.2712 69.4329C59.4161 66.5319 60.4243 63.7403 62.1666 61.4163C63.9089 59.0922 66.3058 57.3417 69.0499 56.3892C71.7939 55.4367 74.7599 55.3257 77.5674 56.0704C80.375 56.8151 82.896 58.3816 84.8072 60.5689C86.8161 62.8091 88.0491 65.6374 88.3232 68.6339C88.6289 71.2825 88.1905 73.964 87.057 76.3772C85.9235 78.7905 84.1398 80.8401 81.9062 82.2959C81.8182 82.3579 81.7272 82.4179 81.5802 82.5169C82.1052 83.0019 82.5902 83.4919 83.1202 83.9259C83.2959 84.0399 83.5077 84.0846 83.7145 84.0516C83.9214 84.0185 84.1086 83.91 84.2402 83.7469C84.8102 83.1969 85.3712 82.6349 85.9302 82.0769C86.4062 81.6029 86.8832 81.1239 87.3512 80.6419C87.4662 80.5569 87.5603 80.4467 87.6263 80.3198C87.6924 80.1928 87.7285 80.0525 87.7321 79.9095C87.7357 79.7664 87.7065 79.6245 87.6469 79.4944C87.5873 79.3644 87.4988 79.2496 87.3882 79.1589C87.3232 79.0849 87.2552 79.0139 87.1982 78.9379C87.0814 78.7991 87.0245 78.6197 87.0399 78.439C87.0552 78.2583 87.1417 78.091 87.2802 77.9739C87.4198 77.8598 87.5979 77.8036 87.7778 77.8168C87.9577 77.83 88.1256 77.9117 88.2472 78.0449C88.7097 78.4251 89.0119 78.9657 89.0935 79.5588C89.175 80.152 89.0299 80.754 88.6872 81.2449C88.7612 81.3239 88.8372 81.4119 88.9202 81.4949C89.9862 82.5609 91.0552 83.6249 92.1202 84.6949C92.2932 84.8679 92.4322 85.0779 92.5882 85.2679V85.5869C92.5222 85.7106 92.4441 85.8275 92.3552 85.9359C92.2801 86.0033 92.1916 86.0541 92.0956 86.085C91.9995 86.1159 91.898 86.1262 91.7978 86.1153C91.6975 86.1043 91.6006 86.0724 91.5135 86.0215C91.4264 85.9706 91.3509 85.9019 91.2922 85.8199C90.1862 84.7166 89.0822 83.6126 87.9802 82.5079C87.8982 82.4259 87.8132 82.3519 87.7702 82.3079C87.1632 82.9079 86.5702 83.4989 85.9702 84.0969C87.1162 85.2399 88.2842 86.4019 89.4472 87.5679C89.9802 88.0979 89.9152 88.5579 89.2632 88.9059L88.9362 88.9119ZM73.8222 83.3599C76.4333 83.3621 78.9865 82.5898 81.1587 81.1407C83.3308 79.6916 85.0244 77.6308 86.0252 75.219C87.026 72.8072 87.2889 70.1528 86.7809 67.5915C86.2728 65.0302 85.0165 62.6772 83.1709 60.83C81.3252 58.9829 78.9732 57.7246 76.4124 57.2144C73.8515 56.7042 71.1969 56.9649 68.7843 57.9637C66.3717 58.9624 64.3094 60.6543 62.8585 62.8253C61.4076 64.9962 60.6332 67.5488 60.6332 70.1599C60.6479 73.6544 62.0418 77.0016 64.5117 79.4736C66.9816 81.9456 70.3277 83.3423 73.8222 83.3599Z" fill="#1B6CE2"/>
<path d="M89.3251 89.162H88.8491L88.7811 89.105C88.7211 89.057 88.6621 89.011 88.6021 88.966C88.4566 88.861 88.3183 88.7464 88.1881 88.623C87.3214 87.7563 86.4547 86.8876 85.5881 86.017L84.8901 85.326C84.5778 85.531 84.221 85.658 83.8495 85.6965C83.478 85.7349 83.1026 85.6837 82.7551 85.547C82.3042 85.3383 81.8896 85.0587 81.5271 84.719L81.4451 84.654C81.095 84.3472 80.7637 84.0196 80.4531 83.673L80.3851 83.599C80.3031 83.511 80.2941 83.505 80.1721 83.562C78.0888 84.5772 75.7881 85.0652 73.4721 84.983C71.0774 84.9458 68.7289 84.3184 66.6348 83.1563C64.5406 81.9942 62.7656 80.3333 61.4671 78.321C59.6797 75.7112 58.8192 72.5775 59.0231 69.421C59.1697 66.4704 60.1948 63.6309 61.9667 61.267C63.7387 58.9031 66.1767 57.1228 68.9677 56.1544C71.7588 55.186 74.7755 55.0739 77.6308 55.8323C80.486 56.5908 83.0495 58.1852 84.9921 60.411C87.0364 62.6876 88.2907 65.5638 88.5681 68.611C88.8763 71.3021 88.4301 74.0259 87.2794 76.4781C86.1287 78.9303 84.3189 81.0142 82.0521 82.497L81.9781 82.548L82.2221 82.778C82.5791 83.115 82.9141 83.436 83.2771 83.734C83.4771 83.896 83.7991 83.828 84.0711 83.567C84.6071 83.051 85.1341 82.523 85.6621 81.996L85.7621 81.896C86.2361 81.422 86.7091 80.949 87.1771 80.467C87.2694 80.4041 87.3454 80.3201 87.3986 80.2219C87.4518 80.1236 87.4808 80.0141 87.483 79.9024C87.4853 79.7907 87.4608 79.6801 87.4116 79.5798C87.3623 79.4796 87.2898 79.3925 87.2001 79.326C87.1292 79.2492 87.0625 79.1688 87.0001 79.085C86.8469 78.8954 86.7737 78.6536 86.7959 78.4108C86.8181 78.1681 86.934 77.9436 87.1191 77.785C87.3059 77.6316 87.5439 77.5547 87.7852 77.5699C88.0265 77.5852 88.253 77.6913 88.4191 77.867C88.8976 78.2642 89.2186 78.8192 89.3242 79.4321C89.4298 80.045 89.3131 80.6755 88.9951 81.21C89.0291 81.247 89.0631 81.281 89.0951 81.31L90.0171 82.234C90.7771 82.9913 91.5351 83.7513 92.2911 84.514C92.4155 84.6441 92.5311 84.7824 92.6371 84.928L92.8301 85.175V85.66L92.7901 85.722C92.7671 85.756 92.7471 85.79 92.7281 85.822C92.6752 85.9262 92.6078 86.0225 92.5281 86.108C92.4308 86.1988 92.3155 86.2684 92.1898 86.3121C92.0641 86.3558 91.9306 86.3727 91.7979 86.3618C91.6652 86.3509 91.5363 86.3123 91.4194 86.2486C91.3025 86.185 91.2002 86.0975 91.1191 85.992L87.8001 82.688L87.7721 82.657L86.3231 84.103L89.6231 87.403C89.7639 87.5169 89.8754 87.6629 89.9485 87.8286C90.0215 87.9944 90.054 88.1752 90.0431 88.356C90.0025 88.5295 89.9212 88.6908 89.8056 88.8265C89.6901 88.9622 89.5439 89.0683 89.3791 89.136L89.3251 89.162ZM89.0251 88.662H89.2001C89.3591 88.568 89.5321 88.435 89.5571 88.276C89.5831 88.095 89.4181 87.888 89.2761 87.743L85.6211 84.099L87.7621 81.967L87.9351 82.131C88.0291 82.216 88.0911 82.273 88.1531 82.331L91.4651 85.643C91.5901 85.765 91.9071 86.023 92.1771 85.759C92.2261 85.7041 92.2681 85.6433 92.3021 85.578L92.3361 85.516V85.349C92.3051 85.309 92.2761 85.267 92.2451 85.23C92.1528 85.1009 92.0526 84.9776 91.9451 84.861C91.1911 84.101 90.4341 83.343 89.6741 82.587L88.7501 81.663C88.6931 81.603 88.6391 81.547 88.5881 81.49L88.3811 81.266L88.4811 81.102C88.7925 80.6607 88.9244 80.1175 88.8501 79.5825C88.7758 79.0475 88.5009 78.5608 88.0811 78.221C88.0025 78.1304 87.892 78.0737 87.7726 78.0625C87.6532 78.0513 87.5341 78.0866 87.4401 78.161C87.3955 78.1991 87.3591 78.2458 87.333 78.2983C87.3069 78.3508 87.2917 78.4081 87.2882 78.4666C87.2848 78.5251 87.2932 78.5838 87.3129 78.639C87.3326 78.6942 87.3633 78.7449 87.4031 78.788C87.4443 78.8435 87.4887 78.8966 87.5361 78.947C87.6753 79.0599 87.7875 79.2026 87.8644 79.3645C87.9412 79.5265 87.9808 79.7036 87.9803 79.8829C87.9797 80.0622 87.9389 80.2391 87.861 80.4005C87.7831 80.562 87.67 80.704 87.5301 80.816C87.0621 81.298 86.5861 81.774 86.1091 82.251L86.0091 82.351C85.4791 82.878 84.9511 83.406 84.4091 83.928C84.2349 84.1357 83.9893 84.2708 83.7205 84.3065C83.4518 84.3422 83.1794 84.276 82.9571 84.121C82.5831 83.812 82.2231 83.472 81.8771 83.143C81.7211 82.996 81.5681 82.851 81.4091 82.703L81.1791 82.49L81.7601 82.096C83.9546 80.6609 85.7068 78.6439 86.8209 76.2703C87.935 73.8967 88.3672 71.26 88.0691 68.655C87.7992 65.7117 86.5868 62.9341 84.6121 60.735C82.7341 58.584 80.2562 57.0434 77.4965 56.3107C74.7367 55.578 71.8209 55.6867 69.1234 56.6229C66.4258 57.5591 64.0696 59.28 62.357 61.5648C60.6445 63.8497 59.6538 66.5941 59.5121 69.446C59.3151 72.4962 60.1467 75.5243 61.8741 78.046C63.1317 79.9923 64.85 81.5982 66.8768 82.7216C68.9035 83.8449 71.1761 84.451 73.4931 84.486C75.7286 84.5687 77.9497 84.0963 79.9581 83.111C80.0848 83.0353 80.2348 83.0085 80.3798 83.0356C80.5249 83.0626 80.6551 83.1417 80.7461 83.258L80.8141 83.332C81.1089 83.6643 81.4253 83.977 81.7611 84.268L81.8431 84.339C82.1676 84.641 82.5357 84.8925 82.9351 85.085C83.2416 85.1982 83.5719 85.2315 83.8948 85.1819C84.2178 85.1322 84.5228 85.0011 84.7811 84.801L84.9511 84.682L85.9351 85.669C86.8017 86.5423 87.6684 87.409 88.5351 88.269C88.6489 88.3774 88.7702 88.4776 88.8981 88.569C88.9411 88.6 88.9801 88.631 89.0201 88.663M73.8531 83.607H73.8221C71.1587 83.6098 68.5547 82.8202 66.3415 81.3385C64.1283 79.8568 62.406 77.7502 61.3938 75.2867C60.3816 72.8231 60.1253 70.1141 60.6574 67.5045C61.1895 64.8948 62.4861 62.5025 64.3821 60.632C65.6139 59.3925 67.0784 58.4085 68.6915 57.7364C70.3046 57.0644 72.0346 56.7176 73.7821 56.716H73.8591C77.4049 56.7473 80.7949 58.1781 83.2909 60.6969C85.7869 63.2157 87.1869 66.6184 87.1861 70.1645C87.1854 73.7105 85.7838 77.1126 83.2867 79.6303C80.7895 82.1479 77.399 83.5772 73.8531 83.607ZM73.7821 57.212C72.0994 57.2137 70.4337 57.5477 68.8805 58.1949C67.3273 58.842 65.9172 59.7895 64.7311 60.983C62.9047 62.7845 61.6557 65.0887 61.143 67.6023C60.6303 70.1159 60.877 72.7252 61.8518 75.0981C62.8266 77.471 64.4854 79.5002 66.617 80.9275C68.7486 82.3548 71.2567 83.1155 73.8221 83.113H73.8531C77.2597 83.0706 80.5125 81.6876 82.9066 79.2636C85.3006 76.8396 86.6431 73.5699 86.6431 70.163C86.6431 66.756 85.3006 63.4863 82.9066 61.0623C80.5125 58.6383 77.2597 57.2553 73.8531 57.213L73.7821 57.212Z" fill="#1B6CE2"/>
<path d="M76.1871 69.275C77.2251 69.97 78.2341 70.659 79.2641 71.322C79.5333 71.4755 79.7536 71.702 79.8996 71.9754C80.0456 72.2488 80.1113 72.5579 80.0891 72.867C80.0661 73.516 80.0721 74.167 80.0891 74.821C80.0973 74.9884 80.0644 75.1554 79.9933 75.3072C79.9222 75.459 79.815 75.5911 79.6811 75.692C78.7449 76.5173 77.5582 77.0038 76.3121 77.073C74.5791 77.124 72.8411 77.135 71.1121 77.045C69.8873 76.9512 68.7355 76.4257 67.8621 75.562C67.7028 75.3893 67.6084 75.1666 67.5951 74.932C67.5641 74.175 67.5811 73.415 67.5861 72.655C67.5848 72.3989 67.6513 72.1469 67.7788 71.9248C67.9063 71.7026 68.0903 71.5181 68.3121 71.39C69.2791 70.749 70.2401 70.103 71.2041 69.459C71.2921 69.399 71.3801 69.337 71.4931 69.259C70.9081 68.7553 70.5304 68.0528 70.4331 67.287C70.3436 66.3822 70.355 65.4703 70.4671 64.568C70.6288 63.744 71.0897 63.009 71.761 62.5046C72.4324 62.0001 73.2666 61.762 74.1031 61.836C74.9428 61.9045 75.729 62.2759 76.3153 62.881C76.9016 63.486 77.248 64.2835 77.2901 65.125C77.3101 65.633 77.3071 66.143 77.2991 66.653C77.3011 67.1418 77.2036 67.626 77.0124 68.0759C76.8212 68.5259 76.5404 68.9321 76.1871 69.27M73.8331 75.701V75.715C74.4941 75.715 75.1541 75.706 75.8181 75.715C76.7891 75.725 77.7362 75.4139 78.5121 74.83C78.6139 74.7457 78.6783 74.6246 78.6911 74.493C78.7111 73.951 78.7141 73.407 78.6911 72.868C78.6835 72.793 78.6607 72.7204 78.6241 72.6545C78.5875 72.5886 78.5378 72.5309 78.4781 72.485C77.3241 71.6997 76.1624 70.9247 74.9931 70.16C74.875 70.099 74.7428 70.0707 74.6101 70.078C74.0941 70.069 73.5811 70.072 73.0651 70.078C72.9437 70.067 72.8215 70.0884 72.7111 70.14C71.5231 70.9167 70.3424 71.704 69.1691 72.502C69.117 72.5413 69.0734 72.5907 69.0407 72.6472C69.0081 72.7038 68.9871 72.7662 68.9791 72.831C68.9591 73.395 68.9651 73.96 68.9791 74.521C68.9812 74.572 68.9939 74.6221 69.0163 74.668C69.0386 74.714 69.0702 74.7548 69.1091 74.788C69.7828 75.3248 70.6053 75.6414 71.4651 75.695C72.2561 75.721 73.0471 75.701 73.8381 75.701M75.9191 66.001C75.9191 65.763 75.9281 65.525 75.9191 65.286C75.9204 65.0124 75.8679 64.7412 75.7645 64.4879C75.6611 64.2346 75.5087 64.0041 75.3162 63.8097C74.9275 63.417 74.3986 63.1948 73.8461 63.192C73.5725 63.1906 73.3013 63.2431 73.0479 63.3466C72.7946 63.45 72.5642 63.6023 72.3697 63.7948C71.977 64.1836 71.7548 64.7124 71.7521 65.265C71.7321 65.753 71.7321 66.2407 71.7521 66.728C71.766 67.2714 71.9922 67.7878 72.3823 68.1665C72.7724 68.5451 73.2953 68.7559 73.8389 68.7537C74.3825 68.7515 74.9036 68.5364 75.2906 68.1546C75.6776 67.7727 75.8996 67.2545 75.9091 66.711C75.9201 66.473 75.9091 66.235 75.9091 65.996" fill="#1B6CE2"/>
<path d="M73.8622 77.3589C72.8702 77.3589 71.9622 77.3359 71.0972 77.2909C69.8128 77.1996 68.6038 76.6503 67.6902 75.7429C67.481 75.5275 67.3579 75.2429 67.3442 74.9429C67.3162 74.3109 67.3212 73.6699 67.3272 73.0539V72.6539C67.3273 72.3569 67.4047 72.0649 67.5518 71.8069C67.6989 71.5488 67.9106 71.3334 68.1662 71.1819C68.9148 70.6859 69.6615 70.1879 70.4062 69.6879L71.0582 69.2509L71.1062 69.2199C70.5853 68.7066 70.2569 68.0297 70.1762 67.3029C70.0845 66.3801 70.0969 65.45 70.2132 64.5299C70.3895 63.647 70.8843 62.8597 71.6035 62.318C72.3226 61.7762 73.2159 61.5178 74.1132 61.5919C75.0126 61.6679 75.854 62.0671 76.4817 62.7158C77.1094 63.3644 77.4808 64.2185 77.5272 65.1199C77.5472 65.6329 77.5472 66.1489 77.5362 66.6629C77.5525 67.614 77.1932 68.5331 76.5362 69.2209L77.2362 69.6919C77.9562 70.1739 78.6652 70.6529 79.3882 71.1159C79.6936 71.293 79.9432 71.5521 80.1086 71.864C80.2741 72.1758 80.3488 72.5278 80.3242 72.8799C80.3042 73.5579 80.3102 74.2409 80.3242 74.8169C80.3337 75.0223 80.2932 75.2269 80.2061 75.4131C80.119 75.5994 79.9879 75.7616 79.8242 75.8859C78.8499 76.7494 77.6113 77.2564 76.3112 77.3239C75.4262 77.3499 74.6112 77.3639 73.8522 77.3639M73.8422 62.0729C73.1067 62.0654 72.3916 62.3142 71.8197 62.7766C71.2478 63.239 70.8548 63.8862 70.7082 64.6069C70.599 65.4917 70.5886 66.3859 70.6772 67.2729C70.7677 67.979 71.1213 68.625 71.6672 69.0819L71.8742 69.2919L71.5592 69.5159L71.3412 69.6659L70.6922 70.0999C69.9432 70.5999 69.1982 71.0999 68.4492 71.5999C68.2614 71.7059 68.1053 71.8601 67.9972 72.0467C67.889 72.2332 67.8328 72.4453 67.8342 72.6609L67.8282 73.0609C67.8282 73.6739 67.8172 74.3059 67.8422 74.9239C67.8504 75.0902 67.9154 75.2487 68.0262 75.3729C68.8557 76.2025 69.9561 76.7058 71.1262 76.7909C72.6462 76.8729 74.2912 76.8789 76.3072 76.8189C77.4997 76.7547 78.6352 76.288 79.5282 75.4949C79.6334 75.4181 79.7174 75.316 79.7725 75.1979C79.8276 75.0799 79.8519 74.9499 79.8432 74.8199C79.8292 74.2359 79.8172 73.5439 79.8432 72.8549C79.8639 72.5884 79.8078 72.3215 79.6816 72.0858C79.5555 71.8501 79.3645 71.6555 79.1312 71.5249C78.4112 71.0599 77.6932 70.5809 76.9762 70.0959L75.8252 69.3279L75.9952 69.1149C76.331 68.7981 76.5983 68.4156 76.7802 67.9912C76.9622 67.5669 77.0551 67.1097 77.0532 66.6479C77.0592 66.1479 77.0622 65.6379 77.0472 65.1339C77.0043 64.3534 76.6807 63.6146 76.136 63.0539C75.5913 62.4932 74.8622 62.1483 74.0832 62.0829C74.0032 62.0729 73.9182 62.0729 73.8422 62.0729ZM75.8722 75.9589H75.8152C75.3642 75.9529 74.9152 75.9589 74.4622 75.9589H73.5832V75.9449H73.1092C72.5532 75.9449 72.0002 75.9539 71.4502 75.9339C70.5393 75.8803 69.6668 75.5487 68.9502 74.9839C68.8817 74.9275 68.826 74.8571 68.7868 74.7774C68.7477 74.6978 68.726 74.6107 68.7232 74.5219C68.7092 74.0219 68.7062 73.4269 68.7232 72.8219C68.7305 72.7172 68.7612 72.6155 68.8132 72.5243C68.8651 72.433 68.9369 72.3547 69.0232 72.2949C70.1972 71.4949 71.3788 70.7066 72.5682 69.9299C72.7105 69.85 72.8737 69.8152 73.0362 69.8299C73.5722 69.8209 74.0882 69.8209 74.6072 69.8299C74.7869 69.8208 74.9656 69.862 75.1232 69.9489C76.2882 70.7169 77.4572 71.4919 78.6142 72.2769C78.7037 72.3461 78.7782 72.4329 78.8329 72.532C78.8875 72.6311 78.9214 72.7403 78.9322 72.8529C78.9522 73.3529 78.9552 73.8939 78.9322 74.4979C78.926 74.6012 78.8977 74.702 78.8492 74.7934C78.8008 74.8849 78.7332 74.9648 78.6512 75.0279C77.848 75.6294 76.8726 75.9565 75.8692 75.9609M75.0892 75.4609C75.3302 75.4609 75.5742 75.4609 75.8152 75.4609C76.7343 75.471 77.6308 75.176 78.3642 74.6219C78.4031 74.5823 78.4289 74.5317 78.4382 74.4769C78.4582 73.8839 78.4582 73.3599 78.4382 72.8719C78.4243 72.8001 78.3895 72.734 78.3382 72.6819C77.1842 71.8966 76.0225 71.1226 74.8532 70.3599C74.7753 70.327 74.6905 70.3132 74.6062 70.3199C74.0902 70.3109 73.5792 70.3139 73.0632 70.3199C72.988 70.3173 72.9127 70.3241 72.8392 70.3399C71.6592 71.1169 70.4772 71.9049 69.3062 72.6989C69.2653 72.7351 69.2358 72.7823 69.2212 72.8349C69.2012 73.4349 69.2122 74.0169 69.2212 74.5109C69.2242 74.539 69.2349 74.5656 69.2522 74.5879C69.8866 75.0931 70.6608 75.3912 71.4702 75.4419C72.0142 75.4589 72.5592 75.4559 73.1062 75.4509H74.0812V75.4649H74.4612C74.6772 75.4649 74.8862 75.4649 75.0932 75.4649M73.8422 69.0189H73.8222C73.2151 69.0154 72.6334 68.7748 72.2011 68.3485C71.7688 67.9222 71.5202 67.3439 71.5082 66.7369C71.4882 66.2459 71.4882 65.7449 71.5082 65.2539C71.5204 64.6471 71.7692 64.0691 72.2014 63.643C72.6337 63.2169 73.2152 62.9765 73.8222 62.9729H73.8422C74.4512 62.9811 75.0333 63.2255 75.4656 63.6546C75.8978 64.0837 76.1465 64.664 76.1592 65.2729C76.1682 65.4399 76.1682 65.6079 76.1592 65.7729V65.9969V66.2269C76.1652 66.3909 76.1652 66.5559 76.1592 66.7199C76.1465 67.3289 75.8978 67.9091 75.4656 68.3382C75.0333 68.7673 74.4512 69.0118 73.8422 69.0199M73.8422 63.4679H73.8252C73.3459 63.4718 72.887 63.6626 72.5463 63.9997C72.2056 64.3369 72.01 64.7937 72.0012 65.2729C71.9812 65.7519 71.9812 66.2369 72.0012 66.7159C72.0034 67.2018 72.1986 67.6669 72.5438 68.0089C72.8889 68.3508 73.3558 68.5417 73.8417 68.5394C74.3276 68.5372 74.7926 68.342 75.1346 67.9968C75.4766 67.6517 75.6674 67.1848 75.6652 66.6989C75.6712 66.5429 75.6652 66.3839 75.6652 66.2279V65.7669C75.6652 65.6079 75.6652 65.4489 75.6652 65.2909C75.6582 64.8095 75.4639 64.3498 75.1236 64.0092C74.7832 63.6687 74.3236 63.4752 73.8422 63.4679Z" fill="#1B6CE2"/>
<path d="M62.0461 69.664C62.108 68.1267 62.4728 66.6167 63.1193 65.2205C63.7659 63.8244 64.6817 62.5696 65.8141 61.528C67.3724 60.048 69.3182 59.0401 71.4261 58.621C72.195 58.4888 72.9716 58.4063 73.7511 58.374C73.846 58.3601 73.9429 58.3668 74.035 58.3936C74.1272 58.4204 74.2125 58.4667 74.2851 58.5295C74.3578 58.5922 74.4161 58.6698 74.4561 58.757C74.4962 58.8442 74.5169 58.939 74.5171 59.035C74.5311 59.426 74.2391 59.693 73.7881 59.75C72.8613 59.824 71.9405 59.9603 71.0321 60.158C68.5701 60.8086 66.4468 62.3694 65.0911 64.525C64.025 66.1609 63.4449 68.0656 63.4181 70.018C63.4167 70.1371 63.3995 70.2554 63.3671 70.37C63.3238 70.5167 63.2314 70.644 63.1054 70.7306C62.9794 70.8173 62.8275 70.858 62.6751 70.846C62.516 70.8379 62.3651 70.7728 62.25 70.6626C62.1349 70.5525 62.0632 70.4046 62.0481 70.246C62.0311 70.053 62.0481 69.858 62.0481 69.662" fill="#1B6CE2"/>
<path d="M62.7291 71.092H62.6551C62.4384 71.0803 62.2333 70.9906 62.0774 70.8396C61.9216 70.6885 61.8256 70.4862 61.8071 70.27C61.7938 70.1258 61.7891 69.9808 61.7931 69.836L61.7991 69.643C61.9332 66.4768 63.3156 63.4926 65.6441 61.343C67.2386 59.835 69.226 58.807 71.3781 58.377C72.031 58.2577 72.6911 58.1828 73.3541 58.153L73.7311 58.127C73.8628 58.1119 73.9961 58.1246 74.1225 58.1642C74.2489 58.2038 74.3656 58.2695 74.4651 58.357C74.5582 58.4421 74.6329 58.5453 74.6845 58.6604C74.7361 58.7755 74.7635 58.8999 74.7651 59.026C74.7665 59.2789 74.6682 59.5222 74.4915 59.7032C74.3148 59.8842 74.074 59.9883 73.8211 59.993C73.5711 60.027 73.3211 60.053 73.0671 60.081C72.403 60.1355 71.7441 60.2408 71.0961 60.396C68.6939 61.0331 66.6217 62.5557 65.2961 64.658C64.2576 66.2569 63.6915 68.1166 63.6631 70.023C63.6631 70.1626 63.6443 70.3015 63.6071 70.436C63.5516 70.6244 63.4365 70.7898 63.2791 70.9073C63.1218 71.0248 62.9306 71.0882 62.7341 71.088M62.2971 69.667V69.846C62.292 69.9697 62.294 70.0936 62.3031 70.217C62.3122 70.3176 62.358 70.4113 62.4318 70.4803C62.5055 70.5493 62.6021 70.5887 62.7031 70.591C62.7997 70.6006 62.8965 70.5758 62.9765 70.5209C63.0564 70.466 63.1144 70.3845 63.1401 70.291C63.1667 70.198 63.1801 70.1017 63.1801 70.005C63.2093 68.0092 63.7998 66.0619 64.8841 64.386C66.2749 62.1818 68.448 60.5853 70.9671 59.917C71.6402 59.7557 72.3245 59.6457 73.0141 59.588C73.2611 59.562 73.5141 59.534 73.7541 59.503C73.9131 59.483 74.2811 59.403 74.2701 59.041C74.2701 58.982 74.258 58.9236 74.2347 58.8695C74.2113 58.8153 74.1771 58.7665 74.1341 58.726C74.083 58.6855 74.0243 58.6558 73.9614 58.6386C73.8985 58.6214 73.8327 58.6171 73.7681 58.626L73.3881 58.652C72.747 58.681 72.1085 58.7532 71.4771 58.868C69.4126 59.2794 67.5062 60.2652 65.9771 61.712C63.7437 63.776 62.4176 66.6397 62.2881 69.678" fill="#1B6CE2"/>
<path d="M74.3591 81.954C74.1591 81.954 73.9681 81.965 73.7751 81.954C73.6145 81.9431 73.4631 81.8752 73.3481 81.7626C73.2331 81.65 73.1621 81.5001 73.1477 81.3398C73.1334 81.1795 73.1767 81.0194 73.2699 80.8882C73.3631 80.7569 73.5 80.6633 73.6561 80.624C73.7721 80.5962 73.8908 80.5811 74.0101 80.579C76.6772 80.5415 79.2253 79.4686 81.1161 77.587C82.7429 76.0261 83.7977 73.9636 84.1111 71.731C84.1851 71.218 84.2021 70.696 84.2471 70.177C84.2469 70.0182 84.302 69.8643 84.4029 69.7417C84.5038 69.6191 84.6442 69.5354 84.8001 69.505C84.9429 69.47 85.0934 69.4842 85.2272 69.5453C85.3609 69.6065 85.4701 69.711 85.5371 69.842C85.5919 69.9591 85.6209 70.0867 85.6221 70.216C85.6252 71.8153 85.2938 73.3975 84.6491 74.861C83.6172 77.2533 81.8169 79.2331 79.5331 80.487C77.9475 81.3756 76.175 81.8781 74.3591 81.954Z" fill="#1B6CE2"/>
<path d="M74.0041 82.2029C73.9226 82.2043 73.8412 82.2012 73.7601 82.1939C73.5421 82.1774 73.3371 82.084 73.1815 81.9304C73.0259 81.7768 72.9299 81.573 72.9106 81.3552C72.8913 81.1374 72.9499 80.9199 73.0759 80.7413C73.202 80.5627 73.3874 80.4346 73.5991 80.3799C73.7328 80.3476 73.8696 80.3295 74.0071 80.3259C76.6128 80.2875 79.1022 79.2405 80.9521 77.4049C82.5354 75.8796 83.5624 73.868 83.8691 71.6909C83.9171 71.3619 83.9401 71.0299 83.9631 70.6989C83.9771 70.5149 83.9891 70.3299 84.0061 70.1489C84.0104 69.9373 84.0871 69.7336 84.2234 69.5717C84.3597 69.4097 84.5473 69.2994 84.7551 69.2589C84.9519 69.2126 85.1585 69.2339 85.3417 69.3193C85.525 69.4048 85.6741 69.5494 85.7651 69.7299C85.8372 69.8805 85.8751 70.0451 85.8761 70.2119C85.8791 71.8451 85.5412 73.4609 84.8841 74.9559C83.8291 77.3962 81.9923 79.4163 79.6631 80.6979C78.043 81.6054 76.2323 82.1192 74.3771 82.1979H74.1881C74.1261 82.1979 74.0631 82.1979 74.0041 82.1979M84.9561 69.7319C84.9224 69.7316 84.8888 69.7353 84.8561 69.7429C84.7524 69.7624 84.6594 69.8189 84.5943 69.9019C84.5291 69.9848 84.4964 70.0886 84.5021 70.1939C84.4851 70.3729 84.4741 70.5539 84.4591 70.7329C84.4361 71.0759 84.4111 71.4219 84.3591 71.7619C84.0368 74.0483 82.9577 76.1607 81.2941 77.7619C79.3568 79.6843 76.7499 80.7811 74.0211 80.8219C73.9202 80.8225 73.8196 80.8339 73.7211 80.8559C73.6214 80.8802 73.5337 80.9393 73.4739 81.0227C73.414 81.106 73.3861 81.208 73.395 81.3102C73.404 81.4124 73.4492 81.5081 73.5226 81.5797C73.596 81.6514 73.6927 81.6944 73.7951 81.7009C73.9215 81.7101 74.0484 81.7121 74.1751 81.7069H74.3541C76.1307 81.6305 77.8646 81.1379 79.4161 80.2689C81.6514 79.039 83.4142 77.1006 84.4271 74.7589C85.056 73.326 85.3795 71.7778 85.3771 70.2129C85.3761 70.1217 85.3556 70.0317 85.3171 69.9489C85.2839 69.8817 85.232 69.8256 85.1676 69.7872C85.1031 69.7489 85.029 69.73 84.9541 69.7329" fill="#1B6CE2"/>
</g>
</svg>
