<svg width="25" height="30" viewBox="0 0 25 30" fill="none" xmlns="http://www.w3.org/2000/svg">
<mask id="mask0_62_17087" style="mask-type:luminance" maskUnits="userSpaceOnUse" x="0" y="0" width="25" height="30">
<path d="M24.448 0.167969H0.917969V29.666H24.448V0.167969Z" fill="white"/>
</mask>
<g mask="url(#mask0_62_17087)">
<path d="M20.7369 3.35695C19.5669 2.24989 18.1805 1.39706 16.6647 0.85218C15.149 0.307297 13.5369 0.0821608 11.9299 0.19095C9.04041 0.398493 6.3267 1.65597 4.30042 3.72628C2.27413 5.7966 1.07526 8.5367 0.929866 11.4299C0.847345 13.4919 1.30609 15.5395 2.26048 17.3692C3.21486 19.1988 4.63163 20.7467 6.36987 21.8589C6.61771 22.0186 6.82108 22.2384 6.96097 22.4979C7.10087 22.7574 7.17273 23.0482 7.16987 23.3429V27.413C7.16986 28.0098 7.40648 28.5823 7.82786 29.005C8.24925 29.4277 8.82102 29.6661 9.41787 29.6679H15.9389C16.5363 29.6672 17.1091 29.4294 17.5315 29.0068C17.9538 28.5843 18.1913 28.0114 18.1919 27.4139V23.3429C18.1911 23.0455 18.2656 22.7527 18.4082 22.4917C18.5509 22.2307 18.7571 22.01 19.0079 21.8499C20.5185 20.8866 21.7892 19.5909 22.7228 18.0617C23.6565 16.5325 24.2286 14.8102 24.3954 13.0263C24.5622 11.2424 24.3193 9.44397 23.6852 7.76821C23.0512 6.09245 22.0428 4.58366 20.7369 3.35695ZM15.9429 28.4949H9.41787C9.13133 28.4944 8.85668 28.3804 8.65407 28.1777C8.45146 27.9751 8.3374 27.7005 8.33687 27.4139V26.1789H12.6789C12.8342 26.1789 12.9831 26.1173 13.0929 26.0075C13.2027 25.8977 13.2644 25.7487 13.2644 25.5935C13.2644 25.4382 13.2027 25.2892 13.0929 25.1794C12.9831 25.0696 12.8342 25.0079 12.6789 25.0079H8.34087V23.344C8.34291 22.9716 8.27507 22.6022 8.14087 22.2549H17.2409C17.1042 22.6014 17.0343 22.9705 17.0349 23.3429V25.0079H15.1399C14.9846 25.0079 14.8357 25.0696 14.7259 25.1794C14.6161 25.2892 14.5544 25.4382 14.5544 25.5935C14.5544 25.7487 14.6161 25.8977 14.7259 26.0075C14.8357 26.1173 14.9846 26.1789 15.1399 26.1789H17.0259V27.4119C17.0256 27.6989 16.9116 27.9741 16.7087 28.1771C16.5059 28.3801 16.2308 28.4944 15.9439 28.4949M18.3819 20.868C18.2774 20.9353 18.1772 21.0092 18.0819 21.0889H7.35087C7.33244 21.09 7.31408 21.092 7.29587 21.0949C7.20061 21.016 7.1004 20.9432 6.99587 20.8769C5.10989 19.6779 3.65142 17.9131 2.82908 15.835C2.00674 13.7569 1.86265 11.472 2.41741 9.30708C2.97218 7.14215 4.19739 5.20812 5.91779 3.78162C7.63819 2.35512 9.76565 1.50924 11.9959 1.36495C12.2259 1.35028 12.4549 1.34295 12.6829 1.34295C15.4914 1.34454 18.1845 2.46065 20.1708 4.4462C22.1571 6.43175 23.2742 9.12443 23.2769 11.933C23.2802 13.7135 22.8332 15.4659 21.9773 17.0272C21.1215 18.5885 19.8846 19.908 18.3819 20.8629" fill="#09CE43"/>
<path d="M12.3188 13.4439H12.9938C13.1318 11.3839 13.4788 8.26894 13.5998 6.93594C13.631 6.71223 13.6484 6.48679 13.6518 6.26094C13.6348 5.77594 13.1148 5.67194 12.6518 5.67194C12.1668 5.67194 11.6648 5.79294 11.6648 6.24294C11.6648 6.41594 11.6998 6.72794 11.7168 6.95294C11.8558 8.35294 12.1668 11.3839 12.3228 13.4439" fill="#09CE43"/>
<path d="M12.666 15.19C12.5225 15.1892 12.3804 15.2178 12.2484 15.274C12.1164 15.3303 11.9974 15.4129 11.8985 15.5169C11.7997 15.6209 11.7232 15.744 11.6737 15.8787C11.6243 16.0134 11.6029 16.1567 11.611 16.3C11.6003 16.4438 11.6199 16.5882 11.6685 16.724C11.7171 16.8598 11.7936 16.9839 11.8931 17.0883C11.9926 17.1927 12.1129 17.2751 12.2462 17.3301C12.3795 17.3852 12.5228 17.4117 12.667 17.408C12.8129 17.4125 12.9583 17.3869 13.0938 17.3326C13.2294 17.2783 13.3523 17.1966 13.4547 17.0925C13.5572 16.9884 13.637 16.8643 13.6892 16.7279C13.7414 16.5915 13.7648 16.4458 13.758 16.3C13.7622 16.1546 13.7369 16.0098 13.6838 15.8745C13.6306 15.7391 13.5506 15.6159 13.4486 15.5122C13.3466 15.4085 13.2247 15.3265 13.0902 15.2711C12.9557 15.2158 12.8114 15.1882 12.666 15.19Z" fill="#09CE43"/>
</g>
</svg>
