<svg width="26" height="26" viewBox="0 0 26 26" fill="none" xmlns="http://www.w3.org/2000/svg">
<path d="M10.071 15.287H1.80194C1.37406 15.287 0.963728 15.1171 0.661073 14.8146C0.358418 14.5122 0.188255 14.1019 0.18799 13.674V2.20905C0.187727 1.99709 0.229191 1.78717 0.31006 1.59125C0.390928 1.39533 0.509615 1.2172 0.659303 1.06714C0.808991 0.917079 0.986777 0.798028 1.1825 0.716675C1.37822 0.635321 1.58804 0.59328 1.79999 0.593018H10.071C10.499 0.593018 10.9095 0.763051 11.2122 1.06573C11.5149 1.36842 11.685 1.77897 11.685 2.20703V13.677C11.685 14.1051 11.5149 14.5156 11.2122 14.8183C10.9095 15.121 10.499 15.291 10.071 15.291" fill="white"/>
<path d="M23.5371 11.187H15.2681C14.84 11.187 14.4295 11.017 14.1268 10.7143C13.8241 10.4116 13.6541 10.0011 13.6541 9.573V2.20703C13.6541 1.77897 13.8241 1.36842 14.1268 1.06573C14.4295 0.763051 14.84 0.593018 15.2681 0.593018H23.5381C23.9661 0.593018 24.3766 0.763051 24.6793 1.06573C24.982 1.36842 25.1521 1.77897 25.1521 2.20703V9.57404C25.1521 10.0021 24.982 10.4126 24.6793 10.7153C24.3766 11.018 23.9661 11.188 23.5381 11.188" fill="white"/>
<path d="M23.5371 25.677H15.2681C14.84 25.677 14.4295 25.5069 14.1268 25.2042C13.8241 24.9015 13.6541 24.491 13.6541 24.063V14.7339C13.6543 14.306 13.8244 13.8956 14.1271 13.593C14.4297 13.2904 14.8401 13.1203 15.2681 13.12H23.5381C23.966 13.1203 24.3762 13.2904 24.6787 13.5931C24.9812 13.8957 25.1511 14.3061 25.1511 14.7339V24.065C25.1511 24.4931 24.981 24.9036 24.6783 25.2062C24.3757 25.5089 23.9652 25.679 23.5371 25.679" fill="white"/>
<path d="M10.071 25.676H1.80194C1.58999 25.676 1.38015 25.6343 1.18433 25.5532C0.988507 25.4721 0.810579 25.3532 0.660706 25.2033C0.510832 25.0534 0.391963 24.8755 0.310852 24.6797C0.229741 24.4839 0.187988 24.274 0.187988 24.062V18.427C0.188518 17.9993 0.358751 17.5893 0.661377 17.287C0.964003 16.9848 1.37423 16.815 1.80194 16.815H10.071C10.499 16.815 10.9095 16.985 11.2122 17.2877C11.5149 17.5904 11.685 18.001 11.685 18.429V24.065C11.685 24.4931 11.5149 24.9036 11.2122 25.2063C10.9095 25.509 10.499 25.679 10.071 25.679" fill="white"/>
</svg>
