<svg width="29" height="30" viewBox="0 0 29 30" fill="none" xmlns="http://www.w3.org/2000/svg">
<path d="M18.515 10.772C17.989 10.2382 17.3613 9.81517 16.6692 9.52783C15.977 9.2405 15.2344 9.09465 14.485 9.099C14.1063 9.0955 13.7281 9.12903 13.356 9.19904C11.8694 9.49688 10.5621 10.373 9.72156 11.6348C8.88102 12.8965 8.57619 14.4405 8.87402 15.927C9.17186 17.4135 10.0479 18.7209 11.3097 19.5614C12.5714 20.4019 14.1154 20.7069 15.6019 20.4091C16.71 20.2008 17.7271 19.6564 18.515 18.85C19.3204 18.0565 19.8676 17.0386 20.085 15.9291C20.2699 15.0065 20.2233 14.0525 19.9493 13.1523C19.6754 12.2522 19.1826 11.4351 18.515 10.772ZM18.515 10.772C17.989 10.2382 17.3613 9.81413 16.6692 9.5268C15.977 9.23946 15.2344 9.09465 14.485 9.099C14.1063 9.0955 13.7281 9.12799 13.356 9.198C12.6199 9.34547 11.9201 9.63652 11.2965 10.0544C10.6729 10.4724 10.1377 11.01 9.72156 11.6348C9.30537 12.2595 9.01628 12.9591 8.87085 13.6956C8.72542 14.432 8.72655 15.1909 8.87402 15.927C9.0215 16.6631 9.31242 17.3619 9.73035 17.9855C10.1483 18.6091 10.6849 19.1452 11.3097 19.5614C11.9344 19.9776 12.6351 20.2657 13.3716 20.4111C14.108 20.5566 14.8659 20.5565 15.6019 20.4091C16.71 20.2008 17.7271 19.6564 18.515 18.85C19.3204 18.0565 19.8676 17.0375 20.085 15.928C20.2699 15.0054 20.2233 14.0525 19.9493 13.1523C19.6754 12.2522 19.1826 11.4331 18.515 10.77M27.783 11.896L25.317 10.949C25.2187 10.9114 25.1286 10.8547 25.0522 10.7822C24.9759 10.7097 24.9146 10.6228 24.8718 10.5266C24.8291 10.4303 24.8058 10.3265 24.8032 10.2213C24.8007 10.116 24.8189 10.0112 24.8569 9.91303C24.8619 9.90103 24.8669 9.887 24.8729 9.875L25.952 7.46601C26.1001 7.12926 26.1427 6.75561 26.0743 6.39417C26.006 6.03273 25.8298 5.70046 25.569 5.44104L23.8459 3.71002C23.5875 3.45058 23.256 3.2762 22.8958 3.21008C22.5355 3.14397 22.1637 3.18929 21.83 3.34003L19.422 4.40802C19.3221 4.45796 19.212 4.48464 19.1003 4.48602C18.9886 4.48741 18.8781 4.46346 18.777 4.41602C18.6758 4.3754 18.5841 4.3143 18.5077 4.23651C18.4313 4.15872 18.3718 4.06596 18.333 3.96405L17.396 1.50604C17.2627 1.16321 17.0292 0.868451 16.726 0.66028C16.4227 0.452109 16.0637 0.340194 15.6959 0.339052H13.267C12.8988 0.338535 12.539 0.449817 12.2355 0.658205C11.9319 0.866592 11.6989 1.16225 11.567 1.50604L10.63 3.96405C10.5904 4.06727 10.5294 4.16092 10.4509 4.23883C10.3725 4.31675 10.2784 4.37712 10.1749 4.41602C10.075 4.46019 9.96677 4.48234 9.85754 4.48096C9.74832 4.47958 9.64075 4.45471 9.54199 4.40802L7.13293 3.34003C6.79742 3.19051 6.42458 3.14583 6.06323 3.21185C5.70189 3.27788 5.369 3.45152 5.10803 3.71002L3.38403 5.44104C3.12634 5.70248 2.95297 6.03522 2.88647 6.39624C2.81998 6.75726 2.86336 7.12991 3.01099 7.46601L4.08997 9.875C4.13459 9.97376 4.15856 10.0806 4.16028 10.189C4.162 10.2973 4.14144 10.4049 4.09998 10.505C4.05795 10.6069 3.99535 10.6991 3.91602 10.7757C3.83668 10.8523 3.74228 10.9116 3.63892 10.95L1.17993 11.897C0.836779 12.0298 0.541739 12.2632 0.333496 12.5665C0.125253 12.8699 0.0135315 13.2291 0.0129395 13.597V16.035C0.0148544 16.4014 0.127248 16.7588 0.335449 17.0603C0.543651 17.3618 0.837967 17.5934 1.17993 17.725L3.63892 18.6741C3.7419 18.712 3.83597 18.7707 3.91528 18.8466C3.99459 18.9224 4.0575 19.0138 4.09998 19.115C4.14129 19.216 4.16175 19.3245 4.16003 19.4336C4.15832 19.5427 4.13444 19.6503 4.08997 19.75L3.01099 22.1581C2.86398 22.495 2.82087 22.868 2.88733 23.2295C2.95379 23.591 3.12682 23.9244 3.38403 24.187L5.10803 25.906C5.36914 26.1642 5.70191 26.3378 6.06311 26.4042C6.42431 26.4705 6.79709 26.4267 7.13293 26.2781L9.54199 25.2001C9.64228 25.1583 9.74988 25.1367 9.85852 25.1367C9.96716 25.1367 10.0746 25.1583 10.1749 25.2001C10.2785 25.2397 10.3725 25.3006 10.4509 25.379C10.5293 25.4574 10.5904 25.5515 10.63 25.655L11.567 28.11C11.6989 28.4542 11.9318 28.7504 12.2352 28.9596C12.5387 29.1688 12.8984 29.2811 13.267 29.282H15.6959C16.0642 29.2799 16.4234 29.167 16.7266 28.958C17.0298 28.749 17.2631 28.4534 17.396 28.11L18.333 25.655C18.3724 25.5531 18.432 25.4603 18.5083 25.3821C18.5846 25.3039 18.676 25.242 18.777 25.2001C18.8789 25.1566 18.9887 25.1342 19.0995 25.1342C19.2103 25.1342 19.32 25.1566 19.422 25.2001L21.822 26.2781C22.1583 26.4242 22.5305 26.4668 22.8911 26.4005C23.2518 26.3343 23.5845 26.1621 23.8469 25.906L25.5699 24.187C25.8299 23.9262 26.0054 23.5933 26.0737 23.2314C26.142 22.8696 26.1 22.4957 25.953 22.1581L24.874 19.75C24.8296 19.6503 24.8057 19.5427 24.804 19.4336C24.8022 19.3245 24.8227 19.216 24.864 19.115C24.9055 19.0142 24.9673 18.923 25.0455 18.8472C25.1238 18.7713 25.2169 18.7124 25.319 18.6741L27.785 17.725C28.128 17.5944 28.4233 17.3632 28.6323 17.0615C28.8413 16.7599 28.9541 16.402 28.9559 16.035V13.597C28.9557 13.2289 28.844 12.8694 28.6355 12.5659C28.427 12.2625 28.1315 12.0293 27.788 11.897L27.783 11.896ZM21.075 16.119C20.8107 17.4231 20.1681 18.6205 19.2275 19.5616C18.2869 20.5028 17.09 21.146 15.786 21.411C15.3495 21.4877 14.9072 21.5262 14.464 21.526C13.0792 21.5219 11.7294 21.0903 10.5992 20.2899C9.46913 19.4896 8.61392 18.3596 8.15039 17.0547C7.68686 15.7498 7.63776 14.3336 8.00977 12.9996C8.38177 11.6657 9.15669 10.4793 10.2286 9.60254C11.3006 8.72582 12.6172 8.20162 13.9984 8.10163C15.3796 8.00163 16.7579 8.3307 17.9449 9.04389C19.132 9.75707 20.0699 10.8195 20.6301 12.0859C21.1904 13.3524 21.3457 14.7609 21.075 16.119ZM14.4869 9.09705C14.1079 9.09352 13.7294 9.12699 13.3569 9.19702C11.8704 9.49486 10.5631 10.3711 9.72253 11.6328C8.882 12.8946 8.57716 14.4385 8.875 15.9251C9.17284 17.4116 10.0489 18.7189 11.3107 19.5595C12.5724 20.4 14.1165 20.7048 15.603 20.407C16.7111 20.1988 17.7281 19.6545 18.516 18.848C19.3216 18.0547 19.8688 17.0366 20.0859 15.927C20.2709 15.0045 20.2243 14.0505 19.9503 13.1504C19.6763 12.2503 19.1835 11.4321 18.516 10.769C17.99 10.2352 17.3624 9.81218 16.6703 9.52484C15.9781 9.23751 15.2354 9.09166 14.486 9.09601" fill="#CCCCCC"/>
</svg>
