<svg width="152" height="152" viewBox="0 0 152 152" fill="none" xmlns="http://www.w3.org/2000/svg">
<path d="M151.159 75.5795C151.159 33.8381 117.321 0 75.5795 0C33.8381 0 0 33.8381 0 75.5795C0 117.321 33.8381 151.159 75.5795 151.159C117.321 151.159 151.159 117.321 151.159 75.5795Z" fill="#F2F3F7"/>
<g opacity="0.8">
<path d="M132.264 75.5795C132.264 44.2735 106.886 18.895 75.5795 18.895C44.2735 18.895 18.895 44.2735 18.895 75.5795C18.895 106.886 44.2735 132.264 75.5795 132.264C106.886 132.264 132.264 106.886 132.264 75.5795Z" fill="white"/>
<g opacity="0.98">
<path d="M131.968 75.4315C131.968 44.2073 106.656 18.895 75.4315 18.895C44.2073 18.895 18.895 44.2073 18.895 75.4315C18.895 106.656 44.2073 131.968 75.4315 131.968C106.656 131.968 131.968 106.656 131.968 75.4315Z" fill="white"/>
</g>
<g opacity="0.961">
<path d="M75.284 18.895H75.283C44.1408 18.895 18.895 44.1408 18.895 75.283V75.284C18.895 106.426 44.1408 131.672 75.283 131.672H75.284C106.426 131.672 131.672 106.426 131.672 75.284V75.283C131.672 44.1408 106.426 18.895 75.284 18.895Z" fill="white"/>
</g>
<g opacity="0.941">
<path d="M131.375 75.135C131.375 44.0745 106.196 18.895 75.135 18.895C44.0745 18.895 18.895 44.0745 18.895 75.135C18.895 106.196 44.0745 131.375 75.135 131.375C106.196 131.375 131.375 106.196 131.375 75.135Z" fill="white"/>
</g>
<g opacity="0.922">
<path d="M131.079 74.987C131.079 44.0083 105.966 18.895 74.987 18.895C44.0083 18.895 18.895 44.0083 18.895 74.987C18.895 105.966 44.0083 131.079 74.987 131.079C105.966 131.079 131.079 105.966 131.079 74.987Z" fill="white"/>
</g>
<g opacity="0.902">
<path d="M130.782 74.8385C130.782 43.9418 105.735 18.895 74.8385 18.895C43.9418 18.895 18.895 43.9418 18.895 74.8385C18.895 105.735 43.9418 130.782 74.8385 130.782C105.735 130.782 130.782 105.735 130.782 74.8385Z" fill="white"/>
</g>
<g opacity="0.882">
<path d="M130.486 74.6905C130.486 43.8755 105.506 18.895 74.6905 18.895C43.8755 18.895 18.895 43.8755 18.895 74.6905C18.895 105.506 43.8755 130.486 74.6905 130.486C105.506 130.486 130.486 105.506 130.486 74.6905Z" fill="white"/>
</g>
<g opacity="0.863">
<path d="M74.543 18.895H74.542C43.809 18.895 18.895 43.809 18.895 74.542V74.543C18.895 105.276 43.809 130.19 74.542 130.19H74.543C105.276 130.19 130.19 105.276 130.19 74.543V74.542C130.19 43.809 105.276 18.895 74.543 18.895Z" fill="white"/>
</g>
<g opacity="0.843">
<path d="M129.893 74.394C129.893 43.7428 105.045 18.895 74.394 18.895C43.7428 18.895 18.895 43.7428 18.895 74.394C18.895 105.045 43.7428 129.893 74.394 129.893C105.045 129.893 129.893 105.045 129.893 74.394Z" fill="white"/>
</g>
<g opacity="0.824">
<path d="M129.597 74.246C129.597 43.6765 104.816 18.895 74.246 18.895C43.6765 18.895 18.895 43.6765 18.895 74.246C18.895 104.816 43.6765 129.597 74.246 129.597C104.816 129.597 129.597 104.816 129.597 74.246Z" fill="white"/>
</g>
<g opacity="0.804">
<path d="M129.301 74.098C129.301 43.6102 104.586 18.895 74.098 18.895C43.6102 18.895 18.895 43.6102 18.895 74.098C18.895 104.586 43.6102 129.301 74.098 129.301C104.586 129.301 129.301 104.586 129.301 74.098Z" fill="white"/>
</g>
<g opacity="0.784">
<path d="M129.004 73.9495C129.004 43.5438 104.355 18.895 73.9495 18.895C43.5438 18.895 18.895 43.5438 18.895 73.9495C18.895 104.355 43.5438 129.004 73.9495 129.004C104.355 129.004 129.004 104.355 129.004 73.9495Z" fill="white"/>
</g>
<g opacity="0.765">
<path d="M73.801 18.895C88.363 18.895 102.329 24.6797 112.625 34.9766C122.922 45.2735 128.707 59.239 128.707 73.801C128.707 88.363 122.922 102.329 112.625 112.625C102.329 122.922 88.363 128.707 73.801 128.707C59.239 128.707 45.2735 122.922 34.9766 112.625C24.6797 102.329 18.895 88.363 18.895 73.801C18.895 59.239 24.6797 45.2735 34.9766 34.9766C45.2735 24.6797 59.239 18.895 73.801 18.895Z" fill="white"/>
</g>
<g opacity="0.745">
<path d="M128.411 73.653C128.411 43.411 103.895 18.895 73.653 18.895C43.411 18.895 18.895 43.411 18.895 73.653C18.895 103.895 43.411 128.411 73.653 128.411C103.895 128.411 128.411 103.895 128.411 73.653Z" fill="white"/>
</g>
<g opacity="0.725">
<path d="M128.115 73.505C128.115 43.3447 103.665 18.895 73.505 18.895C43.3447 18.895 18.895 43.3447 18.895 73.505C18.895 103.665 43.3447 128.115 73.505 128.115C103.665 128.115 128.115 103.665 128.115 73.505Z" fill="white"/>
</g>
<g opacity="0.706">
<path d="M127.819 73.357C127.819 43.2785 103.436 18.895 73.357 18.895C43.2785 18.895 18.895 43.2785 18.895 73.357C18.895 103.436 43.2785 127.819 73.357 127.819C103.436 127.819 127.819 103.436 127.819 73.357Z" fill="white"/>
</g>
<g opacity="0.686">
<path d="M127.522 73.2085C127.522 43.212 103.205 18.895 73.2085 18.895C43.212 18.895 18.895 43.212 18.895 73.2085C18.895 103.205 43.212 127.522 73.2085 127.522C103.205 127.522 127.522 103.205 127.522 73.2085Z" fill="white"/>
</g>
<g opacity="0.667">
<path d="M73.061 18.895H73.06C43.1455 18.895 18.895 43.1455 18.895 73.06V73.061C18.895 102.976 43.1455 127.226 73.06 127.226H73.061C102.976 127.226 127.226 102.976 127.226 73.061V73.06C127.226 43.1455 102.976 18.895 73.061 18.895Z" fill="white"/>
</g>
<g opacity="0.647">
<path d="M126.929 72.912C126.929 43.0793 102.745 18.895 72.912 18.895C43.0793 18.895 18.895 43.0793 18.895 72.912C18.895 102.745 43.0793 126.929 72.912 126.929C102.745 126.929 126.929 102.745 126.929 72.912Z" fill="white"/>
</g>
<g opacity="0.627">
<path d="M126.633 72.764C126.633 43.013 102.515 18.895 72.764 18.895C43.013 18.895 18.895 43.013 18.895 72.764C18.895 102.515 43.013 126.633 72.764 126.633C102.515 126.633 126.633 102.515 126.633 72.764Z" fill="white"/>
</g>
<g opacity="0.608">
<path d="M126.337 72.616C126.337 42.9467 102.285 18.895 72.616 18.895C42.9467 18.895 18.895 42.9467 18.895 72.616C18.895 102.285 42.9467 126.337 72.616 126.337C102.285 126.337 126.337 102.285 126.337 72.616Z" fill="white"/>
</g>
<g opacity="0.588">
<path d="M126.04 72.4675C126.04 42.8802 102.055 18.895 72.4675 18.895C42.8802 18.895 18.895 42.8802 18.895 72.4675C18.895 102.055 42.8802 126.04 72.4675 126.04C102.055 126.04 126.04 102.055 126.04 72.4675Z" fill="white"/>
</g>
<g opacity="0.569">
<path d="M72.32 18.895H72.319C42.8138 18.895 18.895 42.8138 18.895 72.319V72.32C18.895 101.825 42.8138 125.744 72.319 125.744H72.32C101.825 125.744 125.744 101.825 125.744 72.32V72.319C125.744 42.8138 101.825 18.895 72.32 18.895Z" fill="white"/>
</g>
<g opacity="0.549">
<path d="M125.447 72.171C125.447 42.7475 101.595 18.895 72.171 18.895C42.7475 18.895 18.895 42.7475 18.895 72.171C18.895 101.595 42.7475 125.447 72.171 125.447C101.595 125.447 125.447 101.595 125.447 72.171Z" fill="white"/>
</g>
<g opacity="0.529">
<path d="M125.151 72.023C125.151 42.6812 101.365 18.895 72.023 18.895C42.6812 18.895 18.895 42.6812 18.895 72.023C18.895 101.365 42.6812 125.151 72.023 125.151C101.365 125.151 125.151 101.365 125.151 72.023Z" fill="white"/>
</g>
<g opacity="0.51">
<path d="M124.855 71.875C124.855 42.615 101.135 18.895 71.875 18.895C42.615 18.895 18.895 42.615 18.895 71.875C18.895 101.135 42.615 124.855 71.875 124.855C101.135 124.855 124.855 101.135 124.855 71.875Z" fill="white"/>
</g>
<g opacity="0.49">
<path d="M124.558 71.7265C124.558 42.5485 100.905 18.895 71.7265 18.895C42.5485 18.895 18.895 42.5485 18.895 71.7265C18.895 100.905 42.5485 124.558 71.7265 124.558C100.905 124.558 124.558 100.905 124.558 71.7265Z" fill="white"/>
</g>
<g opacity="0.471">
<path d="M71.579 18.895H71.578C42.482 18.895 18.895 42.482 18.895 71.578V71.579C18.895 100.675 42.482 124.262 71.578 124.262H71.579C100.675 124.262 124.262 100.675 124.262 71.579V71.578C124.262 42.482 100.675 18.895 71.579 18.895Z" fill="white"/>
</g>
<g opacity="0.451">
<path d="M123.965 71.43C123.965 42.4157 100.444 18.895 71.43 18.895C42.4157 18.895 18.895 42.4157 18.895 71.43C18.895 100.444 42.4157 123.965 71.43 123.965C100.444 123.965 123.965 100.444 123.965 71.43Z" fill="white"/>
</g>
<g opacity="0.431">
<path d="M123.669 71.282C123.669 42.3495 100.215 18.895 71.282 18.895C42.3495 18.895 18.895 42.3495 18.895 71.282C18.895 100.215 42.3495 123.669 71.282 123.669C100.215 123.669 123.669 100.215 123.669 71.282Z" fill="white"/>
</g>
<g opacity="0.412">
<path d="M123.373 71.134C123.373 42.2832 99.9848 18.895 71.134 18.895C42.2832 18.895 18.895 42.2832 18.895 71.134C18.895 99.9848 42.2832 123.373 71.134 123.373C99.9848 123.373 123.373 99.9848 123.373 71.134Z" fill="white"/>
</g>
<g opacity="0.392">
<path d="M123.076 70.9855C123.076 42.2167 99.7543 18.895 70.9855 18.895C42.2167 18.895 18.895 42.2167 18.895 70.9855C18.895 99.7543 42.2167 123.076 70.9855 123.076C99.7543 123.076 123.076 99.7543 123.076 70.9855Z" fill="white"/>
</g>
<g opacity="0.373">
<path d="M70.838 18.895H70.837C42.1502 18.895 18.895 42.1502 18.895 70.837V70.838C18.895 99.5248 42.1502 122.78 70.837 122.78H70.838C99.5248 122.78 122.78 99.5248 122.78 70.838V70.837C122.78 42.1502 99.5248 18.895 70.838 18.895Z" fill="white"/>
</g>
<g opacity="0.353">
<path d="M70.69 18.895H70.689C42.084 18.895 18.895 42.084 18.895 70.689V70.69C18.895 99.2951 42.084 122.484 70.689 122.484H70.69C99.2951 122.484 122.484 99.2951 122.484 70.69V70.689C122.484 42.084 99.2951 18.895 70.69 18.895Z" fill="white"/>
</g>
<g opacity="0.333">
<path d="M122.187 70.541C122.187 42.0177 99.0643 18.895 70.541 18.895C42.0177 18.895 18.895 42.0177 18.895 70.541C18.895 99.0643 42.0177 122.187 70.541 122.187C99.0643 122.187 122.187 99.0643 122.187 70.541Z" fill="white"/>
</g>
<g opacity="0.314">
<path d="M121.891 70.393C121.891 41.9515 98.8346 18.895 70.393 18.895C41.9515 18.895 18.895 41.9515 18.895 70.393C18.895 98.8346 41.9515 121.891 70.393 121.891C98.8346 121.891 121.891 98.8346 121.891 70.393Z" fill="white"/>
</g>
<g opacity="0.294">
<path d="M121.594 70.2445C121.594 41.885 98.6041 18.895 70.2445 18.895C41.885 18.895 18.895 41.885 18.895 70.2445C18.895 98.6041 41.885 121.594 70.2445 121.594C98.6041 121.594 121.594 98.6041 121.594 70.2445Z" fill="white"/>
</g>
<g opacity="0.275">
<path d="M121.298 70.0965C121.298 41.8187 98.3743 18.895 70.0965 18.895C41.8187 18.895 18.895 41.8187 18.895 70.0965C18.895 98.3743 41.8187 121.298 70.0965 121.298C98.3743 121.298 121.298 98.3743 121.298 70.0965Z" fill="white"/>
</g>
<g opacity="0.255">
<path d="M69.949 18.895H69.948C41.7522 18.895 18.895 41.7522 18.895 69.948V69.949C18.895 98.1448 41.7522 121.002 69.948 121.002H69.949C98.1448 121.002 121.002 98.1448 121.002 69.949V69.948C121.002 41.7522 98.1448 18.895 69.949 18.895Z" fill="white"/>
</g>
<g opacity="0.235">
<path d="M120.705 69.8C120.705 41.686 97.9141 18.895 69.8 18.895C41.686 18.895 18.895 41.686 18.895 69.8C18.895 97.9141 41.686 120.705 69.8 120.705C97.9141 120.705 120.705 97.9141 120.705 69.8Z" fill="white"/>
</g>
<g opacity="0.216">
<path d="M120.409 69.652C120.409 41.6197 97.6843 18.895 69.652 18.895C41.6197 18.895 18.895 41.6197 18.895 69.652C18.895 97.6843 41.6197 120.409 69.652 120.409C97.6843 120.409 120.409 97.6843 120.409 69.652Z" fill="white"/>
</g>
<g opacity="0.196">
<path d="M120.112 69.5035C120.112 41.5532 97.4538 18.895 69.5035 18.895C41.5532 18.895 18.895 41.5532 18.895 69.5035C18.895 97.4538 41.5532 120.112 69.5035 120.112C97.4538 120.112 120.112 97.4538 120.112 69.5035Z" fill="white"/>
</g>
<g opacity="0.176">
<path d="M119.816 69.3555C119.816 41.487 97.2241 18.895 69.3555 18.895C41.487 18.895 18.895 41.487 18.895 69.3555C18.895 97.2241 41.487 119.816 69.3555 119.816C97.2241 119.816 119.816 97.2241 119.816 69.3555Z" fill="white"/>
</g>
<g opacity="0.157">
<path d="M69.208 18.895H69.207C41.4205 18.895 18.895 41.4205 18.895 69.207V69.208C18.895 96.9946 41.4205 119.52 69.207 119.52H69.208C96.9946 119.52 119.52 96.9946 119.52 69.208V69.207C119.52 41.4205 96.9946 18.895 69.208 18.895Z" fill="white"/>
</g>
<g opacity="0.137">
<path d="M119.223 69.059C119.223 41.3542 96.7638 18.895 69.059 18.895C41.3542 18.895 18.895 41.3542 18.895 69.059C18.895 96.7638 41.3542 119.223 69.059 119.223C96.7638 119.223 119.223 96.7638 119.223 69.059Z" fill="white"/>
</g>
<g opacity="0.118">
<path d="M118.927 68.911C118.927 41.2879 96.5341 18.895 68.911 18.895C41.2879 18.895 18.895 41.2879 18.895 68.911C18.895 96.5341 41.2879 118.927 68.911 118.927C96.5341 118.927 118.927 96.5341 118.927 68.911Z" fill="white"/>
</g>
<g opacity="0.098">
<path d="M118.63 68.7625C118.63 41.2215 96.3036 18.895 68.7625 18.895C41.2215 18.895 18.895 41.2215 18.895 68.7625C18.895 96.3036 41.2215 118.63 68.7625 118.63C96.3036 118.63 118.63 96.3036 118.63 68.7625Z" fill="white"/>
</g>
<g opacity="0.078">
<path d="M118.334 68.6145C118.334 41.1552 96.0738 18.895 68.6145 18.895C41.1552 18.895 18.895 41.1552 18.895 68.6145C18.895 96.0738 41.1552 118.334 68.6145 118.334C96.0738 118.334 118.334 96.0738 118.334 68.6145Z" fill="white"/>
</g>
<g opacity="0.059">
<path d="M68.467 18.895H68.466C41.0887 18.895 18.895 41.0887 18.895 68.466V68.467C18.895 95.8443 41.0887 118.038 68.466 118.038H68.467C95.8443 118.038 118.038 95.8443 118.038 68.467V68.466C118.038 41.0887 95.8443 18.895 68.467 18.895Z" fill="white"/>
</g>
<g opacity="0.039">
<path d="M117.741 68.318C117.741 41.0225 95.6136 18.895 68.318 18.895C41.0225 18.895 18.895 41.0225 18.895 68.318C18.895 95.6136 41.0225 117.741 68.318 117.741C95.6136 117.741 117.741 95.6136 117.741 68.318Z" fill="white"/>
</g>
<g opacity="0.02">
<path d="M117.445 68.17C117.445 40.9562 95.3839 18.895 68.17 18.895C40.9562 18.895 18.895 40.9562 18.895 68.17C18.895 95.3839 40.9562 117.445 68.17 117.445C95.3839 117.445 117.445 95.3839 117.445 68.17Z" fill="white"/>
</g>
</g>
<path d="M75.6971 143.729C57.6289 143.709 40.3065 136.522 27.5303 123.746C14.7541 110.97 7.5675 93.6471 7.54712 75.5789C7.54712 75.1309 7.72508 74.7014 8.04182 74.3846C8.35857 74.0679 8.78818 73.8899 9.23613 73.8899C9.68408 73.8899 10.1137 74.0679 10.4304 74.3846C10.7472 74.7014 10.9251 75.1309 10.9251 75.5789C10.9251 88.3894 14.7239 100.912 21.841 111.564C28.9581 122.215 39.074 130.517 50.9093 135.42C62.7447 140.322 75.768 141.605 88.3323 139.105C100.897 136.606 112.438 130.437 121.496 121.379C130.555 112.321 136.723 100.779 139.223 88.2151C141.722 75.6507 140.439 62.6275 135.537 50.7921C130.634 38.9568 122.332 28.8409 111.681 21.7238C101.029 14.6066 88.5066 10.8079 75.6961 10.8079C75.2482 10.8079 74.8186 10.63 74.5018 10.3132C74.1851 9.99648 74.0071 9.56685 74.0071 9.1189C74.0071 8.67095 74.1851 8.24131 74.5018 7.92456C74.8186 7.60781 75.2482 7.42993 75.6961 7.42993C93.7706 7.42993 111.105 14.61 123.885 27.3906C136.666 40.1712 143.846 57.5055 143.846 75.58C143.846 93.6545 136.666 110.989 123.885 123.769C111.105 136.55 93.7706 143.73 75.6961 143.73L75.6971 143.729Z" fill="#1780C2"/>
<path d="M63.4347 97.8327V97.1296H68.3438V97.8327H66.2855V103.675H65.4929V97.8327H63.4347ZM70.2414 103.79C69.9303 103.79 69.648 103.732 69.3944 103.614C69.1409 103.495 68.9395 103.323 68.7904 103.1C68.6412 102.874 68.5667 102.601 68.5667 102.282C68.5667 102 68.6221 101.772 68.7329 101.598C68.8437 101.421 68.9917 101.282 69.1771 101.182C69.3625 101.082 69.567 101.007 69.7907 100.958C70.0166 100.907 70.2435 100.867 70.4715 100.837C70.7698 100.799 71.0116 100.77 71.197 100.751C71.3845 100.729 71.5209 100.694 71.6061 100.645C71.6934 100.596 71.7371 100.511 71.7371 100.39V100.364C71.7371 100.049 71.6508 99.8036 71.4782 99.6289C71.3078 99.4542 71.0489 99.3668 70.7016 99.3668C70.3415 99.3668 70.0592 99.4456 69.8547 99.6033C69.6501 99.761 69.5063 99.9293 69.4232 100.108L68.7073 99.8526C68.8351 99.5543 69.0056 99.3221 69.2187 99.1559C69.4339 98.9875 69.6682 98.8704 69.9218 98.8043C70.1775 98.7361 70.4289 98.702 70.676 98.702C70.8337 98.702 71.0148 98.7212 71.2194 98.7596C71.426 98.7958 71.6253 98.8714 71.817 98.9865C72.0109 99.1015 72.1718 99.2752 72.2996 99.5074C72.4275 99.7397 72.4914 100.051 72.4914 100.441V103.675H71.7371V103.01H71.6988C71.6476 103.117 71.5624 103.231 71.4431 103.352C71.3238 103.474 71.165 103.577 70.9669 103.662C70.7687 103.747 70.5269 103.79 70.2414 103.79ZM70.3564 103.113C70.6547 103.113 70.9062 103.054 71.1107 102.937C71.3174 102.82 71.4729 102.668 71.5773 102.483C71.6839 102.298 71.7371 102.103 71.7371 101.898V101.208C71.7052 101.246 71.6349 101.281 71.5262 101.313C71.4197 101.343 71.2961 101.37 71.1555 101.393C71.017 101.414 70.8817 101.434 70.7496 101.451C70.6196 101.466 70.5141 101.478 70.4332 101.489C70.2371 101.515 70.0539 101.556 69.8834 101.614C69.7151 101.669 69.5787 101.753 69.4743 101.866C69.3721 101.977 69.3209 102.128 69.3209 102.32C69.3209 102.582 69.4179 102.78 69.6118 102.914C69.8078 103.046 70.056 103.113 70.3564 103.113ZM77.3453 99.8654L76.6678 100.057C76.6252 99.9442 76.5623 99.8345 76.4792 99.728C76.3983 99.6193 76.2875 99.5298 76.1468 99.4595C76.0062 99.3892 75.8262 99.354 75.6067 99.354C75.3063 99.354 75.0559 99.4233 74.8556 99.5618C74.6575 99.6981 74.5584 99.8718 74.5584 100.083C74.5584 100.27 74.6266 100.418 74.763 100.527C74.8993 100.636 75.1124 100.726 75.4022 100.799L76.1309 100.978C76.5698 101.084 76.8968 101.247 77.112 101.467C77.3272 101.684 77.4348 101.964 77.4348 102.307C77.4348 102.588 77.3539 102.84 77.1919 103.061C77.0321 103.283 76.8084 103.458 76.5208 103.586C76.2331 103.713 75.8986 103.777 75.5172 103.777C75.0165 103.777 74.6021 103.669 74.274 103.451C73.9458 103.234 73.7381 102.917 73.6507 102.499L74.3667 102.32C74.4348 102.584 74.5637 102.782 74.7534 102.914C74.9451 103.046 75.1955 103.113 75.5044 103.113C75.856 103.113 76.1351 103.038 76.3418 102.889C76.5506 102.738 76.655 102.556 76.655 102.346C76.655 102.175 76.5953 102.032 76.476 101.917C76.3567 101.8 76.1735 101.713 75.9263 101.655L75.1081 101.463C74.6586 101.357 74.3283 101.192 74.1174 100.968C73.9086 100.742 73.8042 100.46 73.8042 100.121C73.8042 99.8441 73.8819 99.5991 74.0375 99.386C74.1951 99.1729 74.4093 99.0057 74.6799 98.8842C74.9526 98.7628 75.2615 98.702 75.6067 98.702C76.0925 98.702 76.4739 98.8086 76.7509 99.0216C77.03 99.2347 77.2282 99.516 77.3453 99.8654ZM79.2733 101.885L79.2606 100.952H79.414L81.5617 98.766H82.4949L80.2066 101.08H80.1427L79.2733 101.885ZM78.5702 103.675V97.1296H79.3245V103.675H78.5702ZM81.6895 103.675L79.7719 101.246L80.3089 100.722L82.6483 103.675H81.6895ZM86.943 99.8654L86.2654 100.057C86.2228 99.9442 86.16 99.8345 86.0769 99.728C85.9959 99.6193 85.8851 99.5298 85.7445 99.4595C85.6039 99.3892 85.4238 99.354 85.2044 99.354C84.9039 99.354 84.6536 99.4233 84.4533 99.5618C84.2551 99.6981 84.1561 99.8718 84.1561 100.083C84.1561 100.27 84.2243 100.418 84.3606 100.527C84.497 100.636 84.71 100.726 84.9998 100.799L85.7285 100.978C86.1674 101.084 86.4945 101.247 86.7097 101.467C86.9249 101.684 87.0325 101.964 87.0325 102.307C87.0325 102.588 86.9515 102.84 86.7896 103.061C86.6298 103.283 86.4061 103.458 86.1184 103.586C85.8308 103.713 85.4963 103.777 85.1149 103.777C84.6142 103.777 84.1998 103.669 83.8716 103.451C83.5435 103.234 83.3358 102.917 83.2484 102.499L83.9643 102.32C84.0325 102.584 84.1614 102.782 84.351 102.914C84.5428 103.046 84.7931 103.113 85.1021 103.113C85.4537 103.113 85.7328 103.038 85.9395 102.889C86.1483 102.738 86.2527 102.556 86.2527 102.346C86.2527 102.175 86.193 102.032 86.0737 101.917C85.9544 101.8 85.7711 101.713 85.524 101.655L84.7058 101.463C84.2562 101.357 83.926 101.192 83.715 100.968C83.5062 100.742 83.4018 100.46 83.4018 100.121C83.4018 99.8441 83.4796 99.5991 83.6351 99.386C83.7928 99.1729 84.0069 99.0057 84.2775 98.8842C84.5502 98.7628 84.8592 98.702 85.2044 98.702C85.6902 98.702 86.0716 98.8086 86.3485 99.0216C86.6277 99.2347 86.8258 99.516 86.943 99.8654Z" fill="#5B749E"/>
<mask id="mask0_3209_2121" style="mask-type:luminance" maskUnits="userSpaceOnUse" x="59" y="54" width="34" height="35">
<path d="M92.83 54.9099H59V88.7489H92.83V54.9099Z" fill="white"/>
</mask>
<g mask="url(#mask0_3209_2121)">
<path d="M75.9181 54.9299C77.8981 54.9299 79.8781 54.9009 81.8581 54.9389C83.4724 54.9538 85.0738 55.2297 86.6001 55.7559C88.0253 56.2329 89.3008 57.0747 90.2999 58.1974C91.299 59.3202 91.9869 60.6849 92.2951 62.1559C92.6453 63.5152 92.8224 64.9133 92.8221 66.3169C92.8311 70.1299 92.8421 73.9429 92.8081 77.7559C92.8023 79.3947 92.5193 81.0206 91.9711 82.5649C91.5078 83.9351 90.7042 85.1653 89.6358 86.1402C88.5673 87.1151 87.2688 87.8028 85.8621 88.1389C84.2444 88.57 82.5749 88.7752 80.9011 88.7489C77.2611 88.7489 73.6201 88.7659 69.9831 88.7199C68.146 88.7232 66.3263 88.3644 64.6281 87.6639C63.3918 87.1476 62.2947 86.347 61.4259 85.327C60.5571 84.3071 59.9412 83.0966 59.6281 81.7939C59.2267 80.3214 59.0226 78.8022 59.0211 77.2759C59.0001 75.9919 59.0001 74.7099 59.0001 73.4339C58.9854 73.2713 59.0046 73.1073 59.0563 72.9524C59.108 72.7975 59.1911 72.6549 59.3005 72.5336C59.4099 72.4123 59.5431 72.3149 59.6919 72.2475C59.8407 72.1801 60.0017 72.1442 60.1651 72.1419C60.3287 72.1442 60.4901 72.1796 60.6397 72.2461C60.7892 72.3126 60.9237 72.4087 61.0351 72.5286C61.1464 72.6485 61.2323 72.7898 61.2874 72.9439C61.3426 73.0979 61.3659 73.2616 61.3561 73.4249C61.3681 74.8489 61.3501 76.2769 61.3851 77.7039C61.4055 78.9714 61.6041 80.2298 61.9751 81.4419C62.2784 82.5206 62.865 83.4983 63.6739 84.2736C64.4828 85.0489 65.4845 85.5936 66.5751 85.8509C68.0026 86.229 69.4755 86.408 70.9521 86.3829C74.5521 86.3829 78.1581 86.3889 81.7611 86.3599C83.0043 86.3482 84.2396 86.1604 85.4301 85.8019C86.5367 85.5088 87.5423 84.9191 88.3385 84.0965C89.1346 83.2739 89.6912 82.2495 89.9481 81.1339C90.2874 79.8866 90.4596 78.5996 90.4601 77.3069C90.4691 73.5309 90.4721 69.7559 90.4461 65.9799C90.435 64.761 90.255 63.5494 89.9111 62.3799C89.6112 61.2225 88.9916 60.1728 88.1231 59.351C87.2546 58.5292 86.1723 57.9684 85.0001 57.7329C83.647 57.4097 82.259 57.2558 80.8681 57.2749C77.2681 57.2809 73.6621 57.2689 70.0591 57.2979C68.8045 57.3116 67.5584 57.5056 66.3591 57.8739C65.2669 58.1716 64.2754 58.7586 63.4891 59.573C62.7029 60.3874 62.1511 61.399 61.8921 62.5009C61.5178 63.9557 61.3399 65.454 61.3631 66.9559C61.3915 67.2471 61.314 67.5388 61.1448 67.7776C60.9757 68.0163 60.7262 68.1862 60.4421 68.2559C60.2836 68.2971 60.1181 68.3036 59.9569 68.2751C59.7957 68.2465 59.6425 68.1836 59.5079 68.0905C59.3732 67.9974 59.2602 67.8763 59.1765 67.7356C59.0928 67.5948 59.0405 67.4377 59.0231 67.2749C58.8346 64.6227 59.3642 61.9687 60.5561 59.5919C61.1328 58.5784 61.9117 57.6942 62.8444 56.9942C63.7771 56.2943 64.8437 55.7935 65.9781 55.5229C67.7047 55.072 69.4861 54.8656 71.2701 54.9099C72.8181 54.9099 74.3701 54.9099 75.9171 54.9099L75.9181 54.9299Z" fill="#1780C2"/>
<path d="M80.6172 79.1289C79.2762 79.1289 77.9382 79.1349 76.5972 79.1289C76.4367 79.1403 76.2756 79.119 76.1237 79.0663C75.9717 79.0137 75.832 78.9307 75.7131 78.8224C75.5942 78.7141 75.4984 78.5828 75.4318 78.4364C75.3651 78.2901 75.3288 78.1317 75.3252 77.9709C75.3174 77.8166 75.3411 77.6623 75.3947 77.5174C75.4483 77.3725 75.5307 77.2399 75.637 77.1277C75.7433 77.0156 75.8712 76.9261 76.013 76.8648C76.1549 76.8035 76.3076 76.7715 76.4622 76.7709C79.2388 76.7622 82.0168 76.7622 84.7962 76.7709C85.0819 76.7745 85.3564 76.8829 85.5675 77.0756C85.7785 77.2682 85.9115 77.5317 85.9412 77.8159C85.9686 78.0996 85.8926 78.3836 85.7272 78.6156C85.5619 78.8477 85.3182 79.0122 85.0412 79.0789C84.8737 79.113 84.703 79.1284 84.5322 79.1249C83.2322 79.1309 81.9252 79.1249 80.6212 79.1249" fill="#1780C2"/>
<path d="M80.6261 68.098C79.2991 68.098 77.9701 68.092 76.6431 68.098C76.4148 68.1166 76.1859 68.0717 75.9816 67.968C75.7774 67.8644 75.6058 67.7062 75.4861 67.511C75.3868 67.3475 75.3296 67.162 75.3195 66.971C75.3094 66.78 75.3468 66.5894 75.4283 66.4164C75.5098 66.2434 75.6329 66.0932 75.7866 65.9794C75.9403 65.8655 76.1198 65.7915 76.3091 65.764C76.6513 65.7299 76.9955 65.7202 77.3391 65.735C79.7738 65.735 82.2071 65.735 84.6391 65.735C84.8367 65.7142 85.0364 65.7437 85.2196 65.8206C85.4028 65.8976 85.5636 66.0196 85.6871 66.1753C85.8105 66.331 85.8927 66.5153 85.9259 66.7112C85.9591 66.9072 85.9423 67.1083 85.8771 67.296C85.8132 67.5168 85.6812 67.7118 85.4997 67.853C85.3183 67.9942 85.0969 68.0744 84.8671 68.082C84.3671 68.108 83.8571 68.096 83.3531 68.099C82.4441 68.099 81.5341 68.099 80.6251 68.099" fill="#1780C2"/>
<path d="M68.22 66.4639C69.129 65.5549 69.964 64.7059 70.82 63.8739C71.005 63.6815 71.2295 63.5314 71.478 63.4339C71.7218 63.3571 71.9843 63.3647 72.2232 63.4554C72.4622 63.5461 72.6636 63.7147 72.795 63.9339C72.9286 64.1485 72.9899 64.4004 72.9697 64.6524C72.9495 64.9044 72.849 65.1433 72.683 65.3339C72.628 65.3999 72.568 65.4609 72.507 65.5209C71.4077 66.6169 70.3107 67.7112 69.216 68.8039C69.1047 68.9535 68.9601 69.0751 68.7936 69.159C68.6272 69.243 68.4434 69.287 68.257 69.2876C68.0706 69.2882 67.8865 69.2453 67.7196 69.1624C67.5526 69.0795 67.4072 68.9588 67.295 68.8099C66.955 68.4699 66.613 68.1369 66.282 67.7909C66.165 67.6859 66.0705 67.5584 66.0039 67.416C65.9373 67.2736 65.9001 67.1192 65.8945 66.9622C65.8889 66.8051 65.9151 66.6485 65.9713 66.5017C66.0276 66.3549 66.1128 66.221 66.222 66.1079C66.3329 65.9923 66.466 65.9003 66.6134 65.8374C66.7607 65.7745 66.9193 65.7421 67.0795 65.7421C67.2397 65.7421 67.3983 65.7745 67.5456 65.8374C67.693 65.9003 67.8261 65.9923 67.937 66.1079C68.0394 66.2205 68.1356 66.3387 68.225 66.4619" fill="#1780C2"/>
<path d="M68.2661 77.4539C69.1781 76.5359 70.0591 75.6439 70.9481 74.7599C71.1188 74.5798 71.3426 74.4588 71.5869 74.4148C71.8312 74.3707 72.0831 74.4058 72.3061 74.5149C72.5267 74.6154 72.7089 74.7847 72.8252 74.9975C72.9415 75.2102 72.9856 75.455 72.9511 75.6949C72.909 75.9593 72.7921 76.206 72.6141 76.4059C71.4571 77.5979 70.2831 78.7689 69.1011 79.9349C68.9918 80.0535 68.8589 80.1479 68.7111 80.2121C68.5632 80.2764 68.4036 80.3091 68.2424 80.3081C68.0811 80.3072 67.9219 80.2726 67.7748 80.2066C67.6277 80.1407 67.496 80.0447 67.3881 79.9249C67.0081 79.5596 66.6341 79.1866 66.2661 78.8059C66.15 78.6975 66.057 78.5668 65.9927 78.4216C65.9283 78.2764 65.8939 78.1197 65.8915 77.9609C65.8891 77.8021 65.9187 77.6445 65.9787 77.4974C66.0386 77.3503 66.1276 77.2168 66.2403 77.1049C66.353 76.993 66.4871 76.905 66.6346 76.8461C66.7821 76.7873 66.94 76.7588 67.0988 76.7623C67.2575 76.7659 67.414 76.8014 67.5587 76.8668C67.7034 76.9322 67.8335 77.0261 67.9411 77.1429C68.0361 77.2319 68.1341 77.3269 68.2661 77.4539Z" fill="#1780C2"/>
</g>
</svg>
