<svg width="152" height="152" viewBox="0 0 152 152" fill="none" xmlns="http://www.w3.org/2000/svg">
<path d="M151.159 75.5795C151.159 33.8381 117.321 0 75.5795 0C33.8381 0 0 33.8381 0 75.5795C0 117.321 33.8381 151.159 75.5795 151.159C117.321 151.159 151.159 117.321 151.159 75.5795Z" fill="#F2F3F7"/>
<g opacity="0.8">
<path d="M132.264 75.5795C132.264 44.2735 106.886 18.895 75.5795 18.895C44.2735 18.895 18.895 44.2735 18.895 75.5795C18.895 106.886 44.2735 132.264 75.5795 132.264C106.886 132.264 132.264 106.886 132.264 75.5795Z" fill="white"/>
<g opacity="0.98">
<path d="M131.968 75.4315C131.968 44.2073 106.656 18.895 75.4315 18.895C44.2073 18.895 18.895 44.2073 18.895 75.4315C18.895 106.656 44.2073 131.968 75.4315 131.968C106.656 131.968 131.968 106.656 131.968 75.4315Z" fill="white"/>
</g>
<g opacity="0.961">
<path d="M75.284 18.895H75.283C44.1408 18.895 18.895 44.1408 18.895 75.283V75.284C18.895 106.426 44.1408 131.672 75.283 131.672H75.284C106.426 131.672 131.672 106.426 131.672 75.284V75.283C131.672 44.1408 106.426 18.895 75.284 18.895Z" fill="white"/>
</g>
<g opacity="0.941">
<path d="M131.375 75.135C131.375 44.0745 106.196 18.895 75.135 18.895C44.0745 18.895 18.895 44.0745 18.895 75.135C18.895 106.196 44.0745 131.375 75.135 131.375C106.196 131.375 131.375 106.196 131.375 75.135Z" fill="white"/>
</g>
<g opacity="0.922">
<path d="M131.079 74.987C131.079 44.0083 105.966 18.895 74.987 18.895C44.0083 18.895 18.895 44.0083 18.895 74.987C18.895 105.966 44.0083 131.079 74.987 131.079C105.966 131.079 131.079 105.966 131.079 74.987Z" fill="white"/>
</g>
<g opacity="0.902">
<path d="M130.782 74.8385C130.782 43.9418 105.735 18.895 74.8385 18.895C43.9418 18.895 18.895 43.9418 18.895 74.8385C18.895 105.735 43.9418 130.782 74.8385 130.782C105.735 130.782 130.782 105.735 130.782 74.8385Z" fill="white"/>
</g>
<g opacity="0.882">
<path d="M130.486 74.6905C130.486 43.8755 105.506 18.895 74.6905 18.895C43.8755 18.895 18.895 43.8755 18.895 74.6905C18.895 105.506 43.8755 130.486 74.6905 130.486C105.506 130.486 130.486 105.506 130.486 74.6905Z" fill="white"/>
</g>
<g opacity="0.863">
<path d="M74.543 18.895H74.542C43.809 18.895 18.895 43.809 18.895 74.542V74.543C18.895 105.276 43.809 130.19 74.542 130.19H74.543C105.276 130.19 130.19 105.276 130.19 74.543V74.542C130.19 43.809 105.276 18.895 74.543 18.895Z" fill="white"/>
</g>
<g opacity="0.843">
<path d="M129.893 74.394C129.893 43.7428 105.045 18.895 74.394 18.895C43.7428 18.895 18.895 43.7428 18.895 74.394C18.895 105.045 43.7428 129.893 74.394 129.893C105.045 129.893 129.893 105.045 129.893 74.394Z" fill="white"/>
</g>
<g opacity="0.824">
<path d="M129.597 74.246C129.597 43.6765 104.816 18.895 74.246 18.895C43.6765 18.895 18.895 43.6765 18.895 74.246C18.895 104.816 43.6765 129.597 74.246 129.597C104.816 129.597 129.597 104.816 129.597 74.246Z" fill="white"/>
</g>
<g opacity="0.804">
<path d="M129.301 74.098C129.301 43.6102 104.586 18.895 74.098 18.895C43.6102 18.895 18.895 43.6102 18.895 74.098C18.895 104.586 43.6102 129.301 74.098 129.301C104.586 129.301 129.301 104.586 129.301 74.098Z" fill="white"/>
</g>
<g opacity="0.784">
<path d="M129.004 73.9495C129.004 43.5438 104.355 18.895 73.9495 18.895C43.5438 18.895 18.895 43.5438 18.895 73.9495C18.895 104.355 43.5438 129.004 73.9495 129.004C104.355 129.004 129.004 104.355 129.004 73.9495Z" fill="white"/>
</g>
<g opacity="0.765">
<path d="M73.801 18.895C88.363 18.895 102.329 24.6797 112.625 34.9766C122.922 45.2735 128.707 59.239 128.707 73.801C128.707 88.363 122.922 102.329 112.625 112.625C102.329 122.922 88.363 128.707 73.801 128.707C59.239 128.707 45.2735 122.922 34.9766 112.625C24.6797 102.329 18.895 88.363 18.895 73.801C18.895 59.239 24.6797 45.2735 34.9766 34.9766C45.2735 24.6797 59.239 18.895 73.801 18.895Z" fill="white"/>
</g>
<g opacity="0.745">
<path d="M128.411 73.653C128.411 43.411 103.895 18.895 73.653 18.895C43.411 18.895 18.895 43.411 18.895 73.653C18.895 103.895 43.411 128.411 73.653 128.411C103.895 128.411 128.411 103.895 128.411 73.653Z" fill="white"/>
</g>
<g opacity="0.725">
<path d="M128.115 73.505C128.115 43.3447 103.665 18.895 73.505 18.895C43.3447 18.895 18.895 43.3447 18.895 73.505C18.895 103.665 43.3447 128.115 73.505 128.115C103.665 128.115 128.115 103.665 128.115 73.505Z" fill="white"/>
</g>
<g opacity="0.706">
<path d="M127.819 73.357C127.819 43.2785 103.436 18.895 73.357 18.895C43.2785 18.895 18.895 43.2785 18.895 73.357C18.895 103.436 43.2785 127.819 73.357 127.819C103.436 127.819 127.819 103.436 127.819 73.357Z" fill="white"/>
</g>
<g opacity="0.686">
<path d="M127.522 73.2085C127.522 43.212 103.205 18.895 73.2085 18.895C43.212 18.895 18.895 43.212 18.895 73.2085C18.895 103.205 43.212 127.522 73.2085 127.522C103.205 127.522 127.522 103.205 127.522 73.2085Z" fill="white"/>
</g>
<g opacity="0.667">
<path d="M73.061 18.895H73.06C43.1455 18.895 18.895 43.1455 18.895 73.06V73.061C18.895 102.976 43.1455 127.226 73.06 127.226H73.061C102.976 127.226 127.226 102.976 127.226 73.061V73.06C127.226 43.1455 102.976 18.895 73.061 18.895Z" fill="white"/>
</g>
<g opacity="0.647">
<path d="M126.929 72.912C126.929 43.0793 102.745 18.895 72.912 18.895C43.0793 18.895 18.895 43.0793 18.895 72.912C18.895 102.745 43.0793 126.929 72.912 126.929C102.745 126.929 126.929 102.745 126.929 72.912Z" fill="white"/>
</g>
<g opacity="0.627">
<path d="M126.633 72.764C126.633 43.013 102.515 18.895 72.764 18.895C43.013 18.895 18.895 43.013 18.895 72.764C18.895 102.515 43.013 126.633 72.764 126.633C102.515 126.633 126.633 102.515 126.633 72.764Z" fill="white"/>
</g>
<g opacity="0.608">
<path d="M126.337 72.616C126.337 42.9467 102.285 18.895 72.616 18.895C42.9467 18.895 18.895 42.9467 18.895 72.616C18.895 102.285 42.9467 126.337 72.616 126.337C102.285 126.337 126.337 102.285 126.337 72.616Z" fill="white"/>
</g>
<g opacity="0.588">
<path d="M126.04 72.4675C126.04 42.8802 102.055 18.895 72.4675 18.895C42.8802 18.895 18.895 42.8802 18.895 72.4675C18.895 102.055 42.8802 126.04 72.4675 126.04C102.055 126.04 126.04 102.055 126.04 72.4675Z" fill="white"/>
</g>
<g opacity="0.569">
<path d="M72.32 18.895H72.319C42.8138 18.895 18.895 42.8138 18.895 72.319V72.32C18.895 101.825 42.8138 125.744 72.319 125.744H72.32C101.825 125.744 125.744 101.825 125.744 72.32V72.319C125.744 42.8138 101.825 18.895 72.32 18.895Z" fill="white"/>
</g>
<g opacity="0.549">
<path d="M125.447 72.171C125.447 42.7475 101.595 18.895 72.171 18.895C42.7475 18.895 18.895 42.7475 18.895 72.171C18.895 101.595 42.7475 125.447 72.171 125.447C101.595 125.447 125.447 101.595 125.447 72.171Z" fill="white"/>
</g>
<g opacity="0.529">
<path d="M125.151 72.023C125.151 42.6812 101.365 18.895 72.023 18.895C42.6812 18.895 18.895 42.6812 18.895 72.023C18.895 101.365 42.6812 125.151 72.023 125.151C101.365 125.151 125.151 101.365 125.151 72.023Z" fill="white"/>
</g>
<g opacity="0.51">
<path d="M124.855 71.875C124.855 42.615 101.135 18.895 71.875 18.895C42.615 18.895 18.895 42.615 18.895 71.875C18.895 101.135 42.615 124.855 71.875 124.855C101.135 124.855 124.855 101.135 124.855 71.875Z" fill="white"/>
</g>
<g opacity="0.49">
<path d="M124.558 71.7265C124.558 42.5485 100.905 18.895 71.7265 18.895C42.5485 18.895 18.895 42.5485 18.895 71.7265C18.895 100.905 42.5485 124.558 71.7265 124.558C100.905 124.558 124.558 100.905 124.558 71.7265Z" fill="white"/>
</g>
<g opacity="0.471">
<path d="M71.579 18.895H71.578C42.482 18.895 18.895 42.482 18.895 71.578V71.579C18.895 100.675 42.482 124.262 71.578 124.262H71.579C100.675 124.262 124.262 100.675 124.262 71.579V71.578C124.262 42.482 100.675 18.895 71.579 18.895Z" fill="white"/>
</g>
<g opacity="0.451">
<path d="M123.965 71.43C123.965 42.4157 100.444 18.895 71.43 18.895C42.4157 18.895 18.895 42.4157 18.895 71.43C18.895 100.444 42.4157 123.965 71.43 123.965C100.444 123.965 123.965 100.444 123.965 71.43Z" fill="white"/>
</g>
<g opacity="0.431">
<path d="M123.669 71.282C123.669 42.3495 100.215 18.895 71.282 18.895C42.3495 18.895 18.895 42.3495 18.895 71.282C18.895 100.215 42.3495 123.669 71.282 123.669C100.215 123.669 123.669 100.215 123.669 71.282Z" fill="white"/>
</g>
<g opacity="0.412">
<path d="M123.373 71.134C123.373 42.2832 99.9848 18.895 71.134 18.895C42.2832 18.895 18.895 42.2832 18.895 71.134C18.895 99.9848 42.2832 123.373 71.134 123.373C99.9848 123.373 123.373 99.9848 123.373 71.134Z" fill="white"/>
</g>
<g opacity="0.392">
<path d="M123.076 70.9855C123.076 42.2167 99.7543 18.895 70.9855 18.895C42.2167 18.895 18.895 42.2167 18.895 70.9855C18.895 99.7543 42.2167 123.076 70.9855 123.076C99.7543 123.076 123.076 99.7543 123.076 70.9855Z" fill="white"/>
</g>
<g opacity="0.373">
<path d="M70.838 18.895H70.837C42.1502 18.895 18.895 42.1502 18.895 70.837V70.838C18.895 99.5248 42.1502 122.78 70.837 122.78H70.838C99.5248 122.78 122.78 99.5248 122.78 70.838V70.837C122.78 42.1502 99.5248 18.895 70.838 18.895Z" fill="white"/>
</g>
<g opacity="0.353">
<path d="M70.69 18.895H70.689C42.084 18.895 18.895 42.084 18.895 70.689V70.69C18.895 99.2951 42.084 122.484 70.689 122.484H70.69C99.2951 122.484 122.484 99.2951 122.484 70.69V70.689C122.484 42.084 99.2951 18.895 70.69 18.895Z" fill="white"/>
</g>
<g opacity="0.333">
<path d="M122.187 70.541C122.187 42.0177 99.0643 18.895 70.541 18.895C42.0177 18.895 18.895 42.0177 18.895 70.541C18.895 99.0643 42.0177 122.187 70.541 122.187C99.0643 122.187 122.187 99.0643 122.187 70.541Z" fill="white"/>
</g>
<g opacity="0.314">
<path d="M121.891 70.393C121.891 41.9515 98.8346 18.895 70.393 18.895C41.9515 18.895 18.895 41.9515 18.895 70.393C18.895 98.8346 41.9515 121.891 70.393 121.891C98.8346 121.891 121.891 98.8346 121.891 70.393Z" fill="white"/>
</g>
<g opacity="0.294">
<path d="M121.594 70.2445C121.594 41.885 98.6041 18.895 70.2445 18.895C41.885 18.895 18.895 41.885 18.895 70.2445C18.895 98.6041 41.885 121.594 70.2445 121.594C98.6041 121.594 121.594 98.6041 121.594 70.2445Z" fill="white"/>
</g>
<g opacity="0.275">
<path d="M121.298 70.0965C121.298 41.8187 98.3743 18.895 70.0965 18.895C41.8187 18.895 18.895 41.8187 18.895 70.0965C18.895 98.3743 41.8187 121.298 70.0965 121.298C98.3743 121.298 121.298 98.3743 121.298 70.0965Z" fill="white"/>
</g>
<g opacity="0.255">
<path d="M69.949 18.895H69.948C41.7522 18.895 18.895 41.7522 18.895 69.948V69.949C18.895 98.1448 41.7522 121.002 69.948 121.002H69.949C98.1448 121.002 121.002 98.1448 121.002 69.949V69.948C121.002 41.7522 98.1448 18.895 69.949 18.895Z" fill="white"/>
</g>
<g opacity="0.235">
<path d="M120.705 69.8C120.705 41.686 97.9141 18.895 69.8 18.895C41.686 18.895 18.895 41.686 18.895 69.8C18.895 97.9141 41.686 120.705 69.8 120.705C97.9141 120.705 120.705 97.9141 120.705 69.8Z" fill="white"/>
</g>
<g opacity="0.216">
<path d="M120.409 69.652C120.409 41.6197 97.6843 18.895 69.652 18.895C41.6197 18.895 18.895 41.6197 18.895 69.652C18.895 97.6843 41.6197 120.409 69.652 120.409C97.6843 120.409 120.409 97.6843 120.409 69.652Z" fill="white"/>
</g>
<g opacity="0.196">
<path d="M120.112 69.5035C120.112 41.5532 97.4538 18.895 69.5035 18.895C41.5532 18.895 18.895 41.5532 18.895 69.5035C18.895 97.4538 41.5532 120.112 69.5035 120.112C97.4538 120.112 120.112 97.4538 120.112 69.5035Z" fill="white"/>
</g>
<g opacity="0.176">
<path d="M119.816 69.3555C119.816 41.487 97.2241 18.895 69.3555 18.895C41.487 18.895 18.895 41.487 18.895 69.3555C18.895 97.2241 41.487 119.816 69.3555 119.816C97.2241 119.816 119.816 97.2241 119.816 69.3555Z" fill="white"/>
</g>
<g opacity="0.157">
<path d="M69.208 18.895H69.207C41.4205 18.895 18.895 41.4205 18.895 69.207V69.208C18.895 96.9946 41.4205 119.52 69.207 119.52H69.208C96.9946 119.52 119.52 96.9946 119.52 69.208V69.207C119.52 41.4205 96.9946 18.895 69.208 18.895Z" fill="white"/>
</g>
<g opacity="0.137">
<path d="M119.223 69.059C119.223 41.3542 96.7638 18.895 69.059 18.895C41.3542 18.895 18.895 41.3542 18.895 69.059C18.895 96.7638 41.3542 119.223 69.059 119.223C96.7638 119.223 119.223 96.7638 119.223 69.059Z" fill="white"/>
</g>
<g opacity="0.118">
<path d="M118.927 68.911C118.927 41.2879 96.5341 18.895 68.911 18.895C41.2879 18.895 18.895 41.2879 18.895 68.911C18.895 96.5341 41.2879 118.927 68.911 118.927C96.5341 118.927 118.927 96.5341 118.927 68.911Z" fill="white"/>
</g>
<g opacity="0.098">
<path d="M118.63 68.7625C118.63 41.2215 96.3036 18.895 68.7625 18.895C41.2215 18.895 18.895 41.2215 18.895 68.7625C18.895 96.3036 41.2215 118.63 68.7625 118.63C96.3036 118.63 118.63 96.3036 118.63 68.7625Z" fill="white"/>
</g>
<g opacity="0.078">
<path d="M118.334 68.6145C118.334 41.1552 96.0738 18.895 68.6145 18.895C41.1552 18.895 18.895 41.1552 18.895 68.6145C18.895 96.0738 41.1552 118.334 68.6145 118.334C96.0738 118.334 118.334 96.0738 118.334 68.6145Z" fill="white"/>
</g>
<g opacity="0.059">
<path d="M68.467 18.895H68.466C41.0887 18.895 18.895 41.0887 18.895 68.466V68.467C18.895 95.8443 41.0887 118.038 68.466 118.038H68.467C95.8443 118.038 118.038 95.8443 118.038 68.467V68.466C118.038 41.0887 95.8443 18.895 68.467 18.895Z" fill="white"/>
</g>
<g opacity="0.039">
<path d="M117.741 68.318C117.741 41.0225 95.6136 18.895 68.318 18.895C41.0225 18.895 18.895 41.0225 18.895 68.318C18.895 95.6136 41.0225 117.741 68.318 117.741C95.6136 117.741 117.741 95.6136 117.741 68.318Z" fill="white"/>
</g>
<g opacity="0.02">
<path d="M117.445 68.17C117.445 40.9562 95.3839 18.895 68.17 18.895C40.9562 18.895 18.895 40.9562 18.895 68.17C18.895 95.3839 40.9562 117.445 68.17 117.445C95.3839 117.445 117.445 95.3839 117.445 68.17Z" fill="white"/>
</g>
</g>
<path d="M75.6971 143.729C57.6289 143.709 40.3065 136.522 27.5303 123.746C14.7541 110.97 7.5675 93.6471 7.54712 75.5789C7.54712 75.1309 7.72506 74.7014 8.04181 74.3846C8.35856 74.0679 8.78819 73.8899 9.23615 73.8899C9.6841 73.8899 10.1137 74.0679 10.4304 74.3846C10.7472 74.7014 10.9251 75.1309 10.9251 75.5789C10.9251 88.3894 14.7239 100.912 21.841 111.564C28.9581 122.215 39.0739 130.517 50.9093 135.42C62.7447 140.322 75.768 141.605 88.3323 139.105C100.897 136.606 112.438 130.437 121.496 121.379C130.555 112.321 136.723 100.779 139.223 88.2151C141.722 75.6507 140.439 62.6275 135.537 50.7921C130.634 38.9568 122.333 28.8409 111.681 21.7238C101.029 14.6066 88.5066 10.8079 75.6961 10.8079C75.2482 10.8079 74.8186 10.63 74.5018 10.3132C74.1851 9.99648 74.0071 9.56685 74.0071 9.1189C74.0071 8.67095 74.1851 8.24131 74.5018 7.92456C74.8186 7.60781 75.2482 7.42993 75.6961 7.42993C93.7706 7.42993 111.105 14.61 123.885 27.3906C136.666 40.1712 143.846 57.5055 143.846 75.58C143.846 93.6545 136.666 110.989 123.885 123.769C111.105 136.55 93.7706 143.73 75.6961 143.73L75.6971 143.729Z" fill="#09CE43"/>
<path d="M60.4456 90.7047V90.0015H65.3547V90.7047H63.2965V96.547H62.5039V90.7047H60.4456ZM67.7581 96.6493C67.315 96.6493 66.9261 96.5438 66.5916 96.3329C66.2592 96.1219 65.9993 95.8268 65.8118 95.4476C65.6264 95.0683 65.5337 94.6251 65.5337 94.118C65.5337 93.6067 65.6264 93.1603 65.8118 92.7789C65.9993 92.3975 66.2592 92.1013 66.5916 91.8904C66.9261 91.6795 67.315 91.574 67.7581 91.574C68.2013 91.574 68.5891 91.6795 68.9215 91.8904C69.256 92.1013 69.516 92.3975 69.7013 92.7789C69.8888 93.1603 69.9826 93.6067 69.9826 94.118C69.9826 94.6251 69.8888 95.0683 69.7013 95.4476C69.516 95.8268 69.256 96.1219 68.9215 96.3329C68.5891 96.5438 68.2013 96.6493 67.7581 96.6493ZM67.7581 95.9717C68.0948 95.9717 68.3718 95.8854 68.5891 95.7128C68.8064 95.5402 68.9673 95.3133 69.0717 95.0321C69.1761 94.7508 69.2283 94.4461 69.2283 94.118C69.2283 93.7899 69.1761 93.4841 69.0717 93.2008C68.9673 92.9174 68.8064 92.6883 68.5891 92.5136C68.3718 92.3389 68.0948 92.2515 67.7581 92.2515C67.4215 92.2515 67.1445 92.3389 66.9272 92.5136C66.7099 92.6883 66.549 92.9174 66.4446 93.2008C66.3402 93.4841 66.288 93.7899 66.288 94.118C66.288 94.4461 66.3402 94.7508 66.4446 95.0321C66.549 95.3133 66.7099 95.5402 66.9272 95.7128C67.1445 95.8854 67.4215 95.9717 67.7581 95.9717ZM72.9876 96.6493C72.5785 96.6493 72.2174 96.5459 71.9042 96.3393C71.591 96.1304 71.3459 95.8364 71.1691 95.4572C70.9923 95.0758 70.9038 94.6251 70.9038 94.1052C70.9038 93.5896 70.9923 93.1422 71.1691 92.7629C71.3459 92.3836 71.592 92.0907 71.9074 91.884C72.2227 91.6773 72.5871 91.574 73.0004 91.574C73.32 91.574 73.5725 91.6273 73.7579 91.7338C73.9454 91.8382 74.0881 91.9575 74.1861 92.0917C74.2863 92.2238 74.3641 92.3325 74.4195 92.4177H74.4834V90.0015H75.2376V96.547H74.5089V95.7927H74.4195C74.3641 95.8822 74.2852 95.9952 74.183 96.1315C74.0807 96.2657 73.9347 96.3861 73.7451 96.4927C73.5555 96.5971 73.303 96.6493 72.9876 96.6493ZM73.0899 95.9717C73.3925 95.9717 73.6481 95.8929 73.857 95.7352C74.0658 95.5754 74.2245 95.3549 74.3332 95.0736C74.4418 94.7902 74.4962 94.4632 74.4962 94.0925C74.4962 93.726 74.4429 93.4053 74.3364 93.1304C74.2298 92.8535 74.0722 92.6383 73.8633 92.4849C73.6545 92.3293 73.3967 92.2515 73.0899 92.2515C72.7703 92.2515 72.504 92.3336 72.2909 92.4976C72.08 92.6596 71.9212 92.8801 71.8147 93.1592C71.7103 93.4362 71.6581 93.7473 71.6581 94.0925C71.6581 94.4419 71.7114 94.7594 71.8179 95.0449C71.9266 95.3282 72.0864 95.5541 72.2973 95.7224C72.5104 95.8886 72.7746 95.9717 73.0899 95.9717ZM78.1684 96.6621C77.8573 96.6621 77.575 96.6035 77.3214 96.4863C77.0679 96.367 76.8665 96.1954 76.7174 95.9717C76.5682 95.7459 76.4937 95.4731 76.4937 95.1535C76.4937 94.8723 76.5491 94.6443 76.6599 94.4696C76.7707 94.2927 76.9187 94.1542 77.1041 94.0541C77.2895 93.954 77.494 93.8794 77.7178 93.8304C77.9436 93.7792 78.1705 93.7388 78.3985 93.7089C78.6968 93.6706 78.9386 93.6418 79.124 93.6226C79.3115 93.6013 79.4479 93.5662 79.5331 93.5172C79.6205 93.4682 79.6641 93.3829 79.6641 93.2615V93.2359C79.6641 92.9206 79.5778 92.6755 79.4053 92.5008C79.2348 92.3261 78.9759 92.2388 78.6286 92.2388C78.2685 92.2388 77.9862 92.3176 77.7817 92.4753C77.5771 92.6329 77.4333 92.8013 77.3502 92.9802L76.6343 92.7246C76.7621 92.4263 76.9326 92.194 77.1457 92.0278C77.3609 91.8595 77.5952 91.7423 77.8488 91.6763C78.1045 91.6081 78.3559 91.574 78.603 91.574C78.7607 91.574 78.9418 91.5932 79.1464 91.6315C79.353 91.6677 79.5523 91.7434 79.744 91.8584C79.9379 91.9735 80.0988 92.1471 80.2266 92.3794C80.3545 92.6116 80.4184 92.9227 80.4184 93.3126V96.547H79.6641V95.8822H79.6258C79.5746 95.9888 79.4894 96.1027 79.3701 96.2242C79.2508 96.3456 79.092 96.449 78.8939 96.5342C78.6957 96.6194 78.4539 96.6621 78.1684 96.6621ZM78.2834 95.9845C78.5817 95.9845 78.8332 95.9259 79.0377 95.8087C79.2444 95.6915 79.3999 95.5402 79.5043 95.3549C79.6109 95.1695 79.6641 94.9746 79.6641 94.77V94.0797C79.6322 94.118 79.5619 94.1532 79.4532 94.1851C79.3467 94.215 79.2231 94.2416 79.0825 94.265C78.944 94.2863 78.8087 94.3055 78.6766 94.3226C78.5466 94.3375 78.4411 94.3503 78.3602 94.3609C78.1641 94.3865 77.9809 94.428 77.8104 94.4856C77.6421 94.541 77.5057 94.6251 77.4013 94.738C77.2991 94.8488 77.2479 95.0001 77.2479 95.1919C77.2479 95.454 77.3449 95.6521 77.5388 95.7863C77.7348 95.9184 77.983 95.9845 78.2834 95.9845ZM82.1051 98.3879C81.9773 98.3879 81.8633 98.3773 81.7631 98.3559C81.663 98.3368 81.5937 98.3176 81.5554 98.2984L81.7471 97.6336C81.9304 97.6805 82.0923 97.6976 82.2329 97.6848C82.3736 97.672 82.4982 97.6091 82.6069 97.4962C82.7177 97.3854 82.8189 97.2054 82.9105 96.9561L83.0511 96.5726L81.2358 91.6379H82.054L83.4091 95.5498H83.4602L84.8153 91.6379H85.6335L83.5497 97.2629C83.4559 97.5165 83.3398 97.7263 83.2013 97.8925C83.0628 98.0608 82.902 98.1855 82.7187 98.2665C82.5376 98.3474 82.3331 98.3879 82.1051 98.3879ZM87.6102 90.0015V90.5768C87.6102 90.7515 87.5783 90.938 87.5144 91.1361C87.4526 91.3322 87.361 91.5228 87.2395 91.7082C87.1202 91.8915 86.9753 92.0513 86.8048 92.1876L86.3958 91.8552C86.53 91.6635 86.6461 91.4643 86.7441 91.2576C86.8443 91.0488 86.8943 90.8261 86.8943 90.5896V90.0015H87.6102ZM91.3895 92.7373L90.712 92.9291C90.6694 92.8162 90.6065 92.7064 90.5234 92.5999C90.4424 92.4912 90.3317 92.4018 90.191 92.3314C90.0504 92.2611 89.8704 92.226 89.6509 92.226C89.3505 92.226 89.1001 92.2952 88.8998 92.4337C88.7017 92.5701 88.6026 92.7437 88.6026 92.9547C88.6026 93.1422 88.6708 93.2902 88.8072 93.3989C88.9435 93.5076 89.1566 93.5981 89.4464 93.6706L90.175 93.8496C90.614 93.9561 90.941 94.1191 91.1562 94.3385C91.3714 94.5559 91.479 94.8361 91.479 95.1791C91.479 95.4603 91.3981 95.7118 91.2361 95.9334C91.0763 96.155 90.8526 96.3297 90.565 96.4575C90.2773 96.5853 89.9428 96.6493 89.5614 96.6493C89.0607 96.6493 88.6463 96.5406 88.3182 96.3233C87.99 96.1059 87.7823 95.7885 87.6949 95.3709L88.4108 95.1919C88.479 95.4561 88.6079 95.6542 88.7976 95.7863C88.9893 95.9184 89.2397 95.9845 89.5486 95.9845C89.9002 95.9845 90.1793 95.9099 90.386 95.7608C90.5948 95.6095 90.6992 95.4284 90.6992 95.2175C90.6992 95.047 90.6395 94.9042 90.5202 94.7892C90.4009 94.672 90.2177 94.5846 89.9705 94.5271L89.1523 94.3353C88.7027 94.2288 88.3725 94.0637 88.1616 93.84C87.9527 93.6141 87.8483 93.3318 87.8483 92.993C87.8483 92.716 87.9261 92.471 88.0817 92.2579C88.2393 92.0449 88.4535 91.8776 88.7241 91.7562C88.9968 91.6347 89.3057 91.574 89.6509 91.574C90.1367 91.574 90.5181 91.6805 90.7951 91.8936C91.0742 92.1067 91.2724 92.3879 91.3895 92.7373Z" fill="#5B749E"/>
<path d="M60.1676 104.737L59.4901 104.929C59.4474 104.816 59.3846 104.706 59.3015 104.6C59.2205 104.491 59.1097 104.402 58.9691 104.331C58.8285 104.261 58.6484 104.226 58.429 104.226C58.1286 104.226 57.8782 104.295 57.6779 104.434C57.4798 104.57 57.3807 104.744 57.3807 104.955C57.3807 105.142 57.4489 105.29 57.5852 105.399C57.7216 105.508 57.9347 105.598 58.2244 105.671L58.9531 105.85C59.392 105.956 59.7191 106.119 59.9343 106.339C60.1495 106.556 60.2571 106.836 60.2571 107.179C60.2571 107.46 60.1761 107.712 60.0142 107.933C59.8544 108.155 59.6307 108.33 59.343 108.458C59.0554 108.585 58.7209 108.649 58.3395 108.649C57.8388 108.649 57.4244 108.541 57.0962 108.323C56.7681 108.106 56.5604 107.788 56.473 107.371L57.1889 107.192C57.2571 107.456 57.386 107.654 57.5756 107.786C57.7674 107.918 58.0178 107.984 58.3267 107.984C58.6783 107.984 58.9574 107.91 59.1641 107.761C59.3729 107.609 59.4773 107.428 59.4773 107.217C59.4773 107.047 59.4176 106.904 59.2983 106.789C59.179 106.672 58.9957 106.585 58.7486 106.527L57.9304 106.335C57.4808 106.229 57.1506 106.064 56.9396 105.84C56.7308 105.614 56.6264 105.332 56.6264 104.993C56.6264 104.716 56.7042 104.471 56.8597 104.258C57.0174 104.045 57.2315 103.878 57.5021 103.756C57.7749 103.635 58.0838 103.574 58.429 103.574C58.9148 103.574 59.2962 103.681 59.5732 103.894C59.8523 104.107 60.0504 104.388 60.1676 104.737ZM63.3868 108.649C62.9266 108.649 62.5303 108.541 62.1979 108.323C61.8655 108.106 61.6098 107.807 61.4308 107.425C61.2519 107.044 61.1624 106.608 61.1624 106.118C61.1624 105.619 61.254 105.179 61.4372 104.798C61.6226 104.415 61.8804 104.115 62.2107 103.9C62.5431 103.683 62.9308 103.574 63.374 103.574C63.7192 103.574 64.0303 103.638 64.3073 103.766C64.5843 103.894 64.8112 104.073 64.988 104.303C65.1649 104.533 65.2746 104.801 65.3172 105.108H64.5629C64.5054 104.884 64.3776 104.686 64.1794 104.514C63.9834 104.339 63.7192 104.252 63.3868 104.252C63.0928 104.252 62.835 104.328 62.6134 104.482C62.3939 104.633 62.2224 104.847 62.0988 105.124C61.9774 105.399 61.9166 105.722 61.9166 106.092C61.9166 106.472 61.9763 106.802 62.0956 107.083C62.2171 107.364 62.3875 107.583 62.607 107.738C62.8286 107.894 63.0885 107.972 63.3868 107.972C63.5828 107.972 63.7607 107.938 63.9205 107.869C64.0803 107.801 64.2156 107.703 64.3264 107.575C64.4372 107.448 64.5161 107.294 64.5629 107.115H65.3172C65.2746 107.405 65.1691 107.666 65.0008 107.898C64.8346 108.128 64.6141 108.312 64.3392 108.448C64.0665 108.582 63.749 108.649 63.3868 108.649ZM67.1741 105.594V108.547H66.4198V102.002H67.1741V104.405H67.238C67.3531 104.151 67.5257 103.95 67.7558 103.801C67.988 103.65 68.297 103.574 68.6826 103.574C69.0171 103.574 69.3101 103.641 69.5615 103.775C69.8129 103.907 70.0079 104.111 70.1464 104.386C70.287 104.659 70.3573 105.006 70.3573 105.428V108.547H69.6031V105.479C69.6031 105.089 69.5019 104.787 69.2994 104.574C69.0992 104.359 68.8211 104.252 68.4653 104.252C68.2181 104.252 67.9965 104.304 67.8005 104.408C67.6066 104.513 67.4532 104.665 67.3403 104.865C67.2295 105.065 67.1741 105.308 67.1741 105.594ZM73.7955 108.649C73.3224 108.649 72.9144 108.545 72.5714 108.336C72.2305 108.125 71.9673 107.831 71.782 107.454C71.5987 107.075 71.5071 106.634 71.5071 106.131C71.5071 105.628 71.5987 105.185 71.782 104.801C71.9673 104.416 72.2251 104.115 72.5554 103.9C72.8878 103.683 73.2756 103.574 73.7188 103.574C73.9744 103.574 74.2269 103.617 74.4762 103.702C74.7255 103.787 74.9524 103.926 75.157 104.117C75.3615 104.307 75.5245 104.558 75.646 104.872C75.7674 105.185 75.8281 105.57 75.8281 106.029V106.348H72.044V105.696H75.0611C75.0611 105.419 75.0057 105.172 74.8949 104.955C74.7862 104.737 74.6307 104.566 74.4283 104.44C74.228 104.314 73.9915 104.252 73.7188 104.252C73.4183 104.252 73.1584 104.326 72.9389 104.475C72.7216 104.622 72.5543 104.814 72.4371 105.051C72.32 105.287 72.2614 105.541 72.2614 105.811V106.246C72.2614 106.617 72.3253 106.931 72.4531 107.189C72.5831 107.444 72.7631 107.639 72.9933 107.774C73.2234 107.906 73.4908 107.972 73.7955 107.972C73.9936 107.972 74.1726 107.944 74.3324 107.889C74.4943 107.831 74.6339 107.746 74.7511 107.633C74.8683 107.518 74.9588 107.375 75.0227 107.205L75.7514 107.409C75.6747 107.656 75.5458 107.874 75.3647 108.061C75.1836 108.247 74.9599 108.391 74.6935 108.496C74.4272 108.598 74.1278 108.649 73.7955 108.649ZM78.8292 108.649C78.4201 108.649 78.0589 108.546 77.7457 108.339C77.4325 108.13 77.1875 107.836 77.0107 107.457C76.8338 107.076 76.7454 106.625 76.7454 106.105C76.7454 105.59 76.8338 105.142 77.0107 104.763C77.1875 104.384 77.4336 104.091 77.7489 103.884C78.0643 103.677 78.4286 103.574 78.842 103.574C79.1616 103.574 79.4141 103.627 79.5994 103.734C79.7869 103.838 79.9297 103.958 80.0277 104.092C80.1278 104.224 80.2056 104.333 80.261 104.418H80.3249V102.002H81.0792V108.547H80.3505V107.793H80.261C80.2056 107.882 80.1268 107.995 80.0245 108.132C79.9222 108.266 79.7763 108.386 79.5866 108.493C79.397 108.597 79.1445 108.649 78.8292 108.649ZM78.9315 107.972C79.234 107.972 79.4897 107.893 79.6985 107.735C79.9073 107.575 80.0661 107.355 80.1747 107.074C80.2834 106.79 80.3377 106.463 80.3377 106.092C80.3377 105.726 80.2844 105.405 80.1779 105.13C80.0714 104.853 79.9137 104.638 79.7049 104.485C79.4961 104.329 79.2383 104.252 78.9315 104.252C78.6119 104.252 78.3455 104.334 78.1325 104.498C77.9215 104.66 77.7628 104.88 77.6562 105.159C77.5518 105.436 77.4996 105.747 77.4996 106.092C77.4996 106.442 77.5529 106.759 77.6594 107.045C77.7681 107.328 77.9279 107.554 78.1388 107.722C78.3519 107.889 78.6161 107.972 78.9315 107.972ZM85.6591 106.54V103.638H86.4134V108.547H85.6591V107.716H85.608C85.4929 107.965 85.3139 108.177 85.071 108.352C84.8281 108.525 84.5213 108.611 84.1506 108.611C83.8438 108.611 83.571 108.544 83.3324 108.41C83.0938 108.273 82.9063 108.069 82.7699 107.796C82.6335 107.521 82.5653 107.175 82.5653 106.757V103.638H83.3196V106.706C83.3196 107.064 83.4197 107.35 83.62 107.563C83.8224 107.776 84.0803 107.882 84.3935 107.882C84.581 107.882 84.7717 107.834 84.9656 107.738C85.1616 107.643 85.3256 107.496 85.4577 107.297C85.592 107.099 85.6591 106.847 85.6591 106.54ZM88.5491 102.002V108.547H87.7948V102.002H88.5491ZM91.9888 108.649C91.5158 108.649 91.1078 108.545 90.7647 108.336C90.4238 108.125 90.1607 107.831 89.9753 107.454C89.7921 107.075 89.7005 106.634 89.7005 106.131C89.7005 105.628 89.7921 105.185 89.9753 104.801C90.1607 104.416 90.4185 104.115 90.7488 103.9C91.0811 103.683 91.4689 103.574 91.9121 103.574C92.1678 103.574 92.4203 103.617 92.6696 103.702C92.9189 103.787 93.1458 103.926 93.3503 104.117C93.5549 104.307 93.7179 104.558 93.8393 104.872C93.9608 105.185 94.0215 105.57 94.0215 106.029V106.348H90.2374V105.696H93.2544C93.2544 105.419 93.199 105.172 93.0882 104.955C92.9796 104.737 92.824 104.566 92.6216 104.44C92.4213 104.314 92.1848 104.252 91.9121 104.252C91.6117 104.252 91.3517 104.326 91.1323 104.475C90.915 104.622 90.7477 104.814 90.6305 105.051C90.5133 105.287 90.4547 105.541 90.4547 105.811V106.246C90.4547 106.617 90.5186 106.931 90.6465 107.189C90.7765 107.444 90.9565 107.639 91.1866 107.774C91.4167 107.906 91.6841 107.972 91.9888 107.972C92.187 107.972 92.3659 107.944 92.5257 107.889C92.6877 107.831 92.8272 107.746 92.9444 107.633C93.0616 107.518 93.1522 107.375 93.2161 107.205L93.9448 107.409C93.8681 107.656 93.7392 107.874 93.5581 108.061C93.377 108.247 93.1532 108.391 92.8869 108.496C92.6206 108.598 92.3212 108.649 91.9888 108.649Z" fill="#5B749E"/>
<mask id="mask0_3209_1576" style="mask-type:luminance" maskUnits="userSpaceOnUse" x="58" y="48" width="35" height="35">
<path d="M92.3801 48.4141H58.5471V82.2271H92.3801V48.4141Z" fill="white"/>
</mask>
<g mask="url(#mask0_3209_1576)">
<path d="M92.3782 54.5341V65.9021C92.2922 65.8211 92.2052 65.7411 92.1162 65.6601C91.4282 65.0481 90.7472 64.4131 90.0472 63.8271C89.945 63.7605 89.862 63.6683 89.8064 63.5597C89.7508 63.4512 89.7245 63.3299 89.7302 63.2081C89.7532 62.4191 89.7392 61.6311 89.7392 60.8371H61.1892V61.2171C61.1892 66.8118 61.1892 72.4074 61.1892 78.0041C61.1892 79.0831 61.6892 79.5841 62.7572 79.5841C66.1702 79.5841 69.5842 79.5981 72.9972 79.5671C73.2363 79.5262 73.4823 79.5655 73.6968 79.6789C73.9113 79.7923 74.0823 79.9734 74.1832 80.1941C74.2419 80.3009 74.3168 80.3981 74.4052 80.4821C74.9552 81.0661 75.5052 81.6451 76.0542 82.2261H62.0472L61.6352 82.1261C60.7458 81.9266 59.9526 81.426 59.3899 80.7089C58.8272 79.9919 58.5295 79.1024 58.5472 78.1911C58.5438 74.6058 58.5438 71.0161 58.5472 67.4221C58.5472 63.3034 58.5472 59.1851 58.5472 55.0671C58.5212 54.1549 58.8169 53.2626 59.3826 52.5465C59.9482 51.8304 60.7478 51.3361 61.6412 51.1501C62.3267 51.0567 63.0185 51.0182 63.7102 51.0351C63.8372 51.0291 63.9632 51.0351 64.1102 51.0351V48.4131H66.7472V51.0131H84.1932V48.4131H86.8412V51.0351C87.4142 51.0351 87.9612 51.0181 88.5072 51.0351C89.1099 51.0463 89.7018 51.1965 90.2369 51.474C90.772 51.7515 91.2358 52.1489 91.5922 52.6351C91.9929 53.2017 92.2615 53.851 92.3782 54.5351M84.1932 53.7001H66.7322V56.3001H64.0852V53.6771C63.5552 53.6771 63.0602 53.6711 62.5652 53.6771C62.3826 53.6693 62.2004 53.6995 62.0302 53.7659C61.8599 53.8323 61.7054 53.9333 61.5762 54.0626C61.4471 54.1919 61.3463 54.3466 61.2802 54.517C61.2141 54.6873 61.1841 54.8695 61.1922 55.0521C61.1832 55.8581 61.1922 56.6611 61.1922 57.4671V58.1461H89.7302C89.7302 57.0551 89.7472 55.9901 89.7242 54.9231C89.7209 54.6209 89.6073 54.3304 89.4047 54.1062C89.2021 53.8821 88.9245 53.7398 88.6242 53.7061C88.0402 53.6541 87.4472 53.6941 86.8242 53.6941V56.3041H84.1932V53.7001Z" fill="#09CE43"/>
<path d="M82.7971 82.2271C81.9235 82.0763 81.0617 81.8638 80.2181 81.5911C78.9217 81.122 77.7596 80.3433 76.8327 79.3227C75.9059 78.3021 75.2425 77.0705 74.9001 75.7351C74.3928 74.1066 74.384 72.3637 74.8747 70.7302C75.3655 69.0968 76.3334 67.6473 77.6541 66.5681C78.6015 65.7013 79.7357 65.0642 80.9687 64.7059C82.2018 64.3476 83.5008 64.2779 84.7651 64.5021C86.264 64.6975 87.6851 65.2839 88.8856 66.2025C90.0861 67.1211 91.0236 68.3394 91.6041 69.7351C91.9113 70.5677 92.1491 71.4243 92.3151 72.2961C92.3471 72.4111 92.3581 72.5291 92.3781 72.6471V73.9681C92.2661 74.5461 92.2021 75.1421 92.0361 75.7061C91.6819 77.036 91.0157 78.2624 90.0927 79.2834C89.1698 80.3045 88.0167 81.0907 86.7291 81.5771C85.8755 81.8547 85.0033 82.0719 84.1191 82.2271H82.7971ZM83.4731 67.0271C82.232 67.0241 81.0179 67.3892 79.9842 68.0761C78.9504 68.763 78.1436 69.7409 77.6655 70.8863C77.1875 72.0316 77.0597 73.293 77.2983 74.511C77.537 75.729 78.1313 76.8488 79.0063 77.7291C79.8812 78.6094 80.9975 79.2105 82.214 79.4565C83.4305 79.7025 84.6926 79.5824 85.8409 79.1112C86.9891 78.6401 87.9719 77.8392 88.6651 76.8096C89.3582 75.7801 89.7306 74.5682 89.7351 73.3271C89.7352 71.6628 89.0766 70.0661 87.9034 68.8857C86.7301 67.7053 85.1374 67.0371 83.4731 67.0271Z" fill="#09CE43"/>
<path d="M66.1912 63.6151H63.5862V66.2171H66.1912V63.6151Z" fill="#09CE43"/>
<path d="M71.4752 63.618H68.8732V66.22H71.4752V63.618Z" fill="#09CE43"/>
<path d="M76.7622 63.6041H74.1602V66.2111H76.7622V63.6041Z" fill="#09CE43"/>
<path d="M66.1851 68.894H63.5831V71.496H66.1851V68.894Z" fill="#09CE43"/>
<path d="M71.4752 68.905H68.8732V71.507H71.4752V68.905Z" fill="#09CE43"/>
<path d="M66.2022 74.1921H63.5892V76.7881H66.2022V74.1921Z" fill="#09CE43"/>
<path d="M71.4802 74.1891H68.8732V76.7911H71.4802V74.1891Z" fill="#09CE43"/>
<path d="M82.0952 68.8931H84.7052V71.9771H86.9412V74.6161H82.0952V68.8931Z" fill="#09CE43"/>
</g>
</svg>
