<svg width="152" height="152" viewBox="0 0 152 152" fill="none" xmlns="http://www.w3.org/2000/svg">
<path d="M151.159 75.5795C151.159 33.8381 117.321 0 75.5795 0C33.8381 0 0 33.8381 0 75.5795C0 117.321 33.8381 151.159 75.5795 151.159C117.321 151.159 151.159 117.321 151.159 75.5795Z" fill="#F2F3F7"/>
<g opacity="0.8">
<path d="M132.264 75.5795C132.264 44.2735 106.885 18.895 75.5793 18.895C44.2733 18.895 18.8948 44.2735 18.8948 75.5795C18.8948 106.886 44.2733 132.264 75.5793 132.264C106.885 132.264 132.264 106.886 132.264 75.5795Z" fill="white"/>
<g opacity="0.98">
<path d="M131.968 75.4315C131.968 44.2073 106.656 18.895 75.4313 18.895C44.207 18.895 18.8948 44.2073 18.8948 75.4315C18.8948 106.656 44.207 131.968 75.4313 131.968C106.656 131.968 131.968 106.656 131.968 75.4315Z" fill="white"/>
</g>
<g opacity="0.961">
<path d="M75.2838 18.895H75.2828C44.1405 18.895 18.8948 44.1408 18.8948 75.283V75.284C18.8948 106.426 44.1405 131.672 75.2828 131.672H75.2838C106.426 131.672 131.672 106.426 131.672 75.284V75.283C131.672 44.1408 106.426 18.895 75.2838 18.895Z" fill="white"/>
</g>
<g opacity="0.941">
<path d="M131.375 75.135C131.375 44.0745 106.195 18.895 75.1348 18.895C44.0743 18.895 18.8948 44.0745 18.8948 75.135C18.8948 106.196 44.0743 131.375 75.1348 131.375C106.195 131.375 131.375 106.196 131.375 75.135Z" fill="white"/>
</g>
<g opacity="0.922">
<path d="M131.079 74.987C131.079 44.0083 105.966 18.895 74.9868 18.895C44.008 18.895 18.8948 44.0083 18.8948 74.987C18.8948 105.966 44.008 131.079 74.9868 131.079C105.966 131.079 131.079 105.966 131.079 74.987Z" fill="white"/>
</g>
<g opacity="0.902">
<path d="M130.782 74.8385C130.782 43.9418 105.735 18.895 74.8383 18.895C43.9415 18.895 18.8948 43.9418 18.8948 74.8385C18.8948 105.735 43.9415 130.782 74.8383 130.782C105.735 130.782 130.782 105.735 130.782 74.8385Z" fill="white"/>
</g>
<g opacity="0.882">
<path d="M130.486 74.6905C130.486 43.8755 105.505 18.895 74.6903 18.895C43.8753 18.895 18.8948 43.8755 18.8948 74.6905C18.8948 105.506 43.8753 130.486 74.6903 130.486C105.505 130.486 130.486 105.506 130.486 74.6905Z" fill="white"/>
</g>
<g opacity="0.863">
<path d="M74.5428 18.895H74.5418C43.8088 18.895 18.8948 43.809 18.8948 74.542V74.543C18.8948 105.276 43.8088 130.19 74.5418 130.19H74.5428C105.276 130.19 130.19 105.276 130.19 74.543V74.542C130.19 43.809 105.276 18.895 74.5428 18.895Z" fill="white"/>
</g>
<g opacity="0.843">
<path d="M129.893 74.394C129.893 43.7428 105.045 18.895 74.3938 18.895C43.7425 18.895 18.8948 43.7428 18.8948 74.394C18.8948 105.045 43.7425 129.893 74.3938 129.893C105.045 129.893 129.893 105.045 129.893 74.394Z" fill="white"/>
</g>
<g opacity="0.824">
<path d="M129.597 74.246C129.597 43.6765 104.815 18.895 74.2458 18.895C43.6763 18.895 18.8948 43.6765 18.8948 74.246C18.8948 104.816 43.6763 129.597 74.2458 129.597C104.815 129.597 129.597 104.816 129.597 74.246Z" fill="white"/>
</g>
<g opacity="0.804">
<path d="M129.301 74.098C129.301 43.6102 104.586 18.895 74.0978 18.895C43.61 18.895 18.8948 43.6102 18.8948 74.098C18.8948 104.586 43.61 129.301 74.0978 129.301C104.586 129.301 129.301 104.586 129.301 74.098Z" fill="white"/>
</g>
<g opacity="0.784">
<path d="M129.004 73.9495C129.004 43.5438 104.355 18.895 73.9493 18.895C43.5435 18.895 18.8948 43.5438 18.8948 73.9495C18.8948 104.355 43.5435 129.004 73.9493 129.004C104.355 129.004 129.004 104.355 129.004 73.9495Z" fill="white"/>
</g>
<g opacity="0.765">
<path d="M73.8008 18.895C88.3628 18.895 102.328 24.6797 112.625 34.9766C122.922 45.2735 128.707 59.239 128.707 73.801C128.707 88.363 122.922 102.329 112.625 112.625C102.328 122.922 88.3628 128.707 73.8008 128.707C59.2388 128.707 45.2732 122.922 34.9764 112.625C24.6795 102.329 18.8948 88.363 18.8948 73.801C18.8948 59.239 24.6795 45.2735 34.9764 34.9766C45.2732 24.6797 59.2388 18.895 73.8008 18.895Z" fill="white"/>
</g>
<g opacity="0.745">
<path d="M128.411 73.653C128.411 43.411 103.895 18.895 73.6528 18.895C43.4108 18.895 18.8948 43.411 18.8948 73.653C18.8948 103.895 43.4108 128.411 73.6528 128.411C103.895 128.411 128.411 103.895 128.411 73.653Z" fill="white"/>
</g>
<g opacity="0.725">
<path d="M128.115 73.505C128.115 43.3447 103.665 18.895 73.5048 18.895C43.3445 18.895 18.8948 43.3447 18.8948 73.505C18.8948 103.665 43.3445 128.115 73.5048 128.115C103.665 128.115 128.115 103.665 128.115 73.505Z" fill="white"/>
</g>
<g opacity="0.706">
<path d="M127.819 73.357C127.819 43.2785 103.435 18.895 73.3568 18.895C43.2782 18.895 18.8948 43.2785 18.8948 73.357C18.8948 103.436 43.2782 127.819 73.3568 127.819C103.435 127.819 127.819 103.436 127.819 73.357Z" fill="white"/>
</g>
<g opacity="0.686">
<path d="M127.522 73.2085C127.522 43.212 103.205 18.895 73.2083 18.895C43.2118 18.895 18.8948 43.212 18.8948 73.2085C18.8948 103.205 43.2118 127.522 73.2083 127.522C103.205 127.522 127.522 103.205 127.522 73.2085Z" fill="white"/>
</g>
<g opacity="0.667">
<path d="M73.0608 18.895H73.0598C43.1453 18.895 18.8948 43.1455 18.8948 73.06V73.061C18.8948 102.976 43.1453 127.226 73.0598 127.226H73.0608C102.975 127.226 127.226 102.976 127.226 73.061V73.06C127.226 43.1455 102.975 18.895 73.0608 18.895Z" fill="white"/>
</g>
<g opacity="0.647">
<path d="M126.929 72.912C126.929 43.0793 102.745 18.895 72.9118 18.895C43.079 18.895 18.8948 43.0793 18.8948 72.912C18.8948 102.745 43.079 126.929 72.9118 126.929C102.745 126.929 126.929 102.745 126.929 72.912Z" fill="white"/>
</g>
<g opacity="0.627">
<path d="M126.633 72.764C126.633 43.013 102.515 18.895 72.7638 18.895C43.0127 18.895 18.8948 43.013 18.8948 72.764C18.8948 102.515 43.0127 126.633 72.7638 126.633C102.515 126.633 126.633 102.515 126.633 72.764Z" fill="white"/>
</g>
<g opacity="0.608">
<path d="M126.337 72.616C126.337 42.9467 102.285 18.895 72.6158 18.895C42.9465 18.895 18.8948 42.9467 18.8948 72.616C18.8948 102.285 42.9465 126.337 72.6158 126.337C102.285 126.337 126.337 102.285 126.337 72.616Z" fill="white"/>
</g>
<g opacity="0.588">
<path d="M126.04 72.4675C126.04 42.8802 102.055 18.895 72.4673 18.895C42.88 18.895 18.8948 42.8802 18.8948 72.4675C18.8948 102.055 42.88 126.04 72.4673 126.04C102.055 126.04 126.04 102.055 126.04 72.4675Z" fill="white"/>
</g>
<g opacity="0.569">
<path d="M72.3198 18.895H72.3188C42.8135 18.895 18.8948 42.8138 18.8948 72.319V72.32C18.8948 101.825 42.8135 125.744 72.3188 125.744H72.3198C101.825 125.744 125.744 101.825 125.744 72.32V72.319C125.744 42.8138 101.825 18.895 72.3198 18.895Z" fill="white"/>
</g>
<g opacity="0.549">
<path d="M125.447 72.171C125.447 42.7475 101.594 18.895 72.1708 18.895C42.7473 18.895 18.8948 42.7475 18.8948 72.171C18.8948 101.595 42.7473 125.447 72.1708 125.447C101.594 125.447 125.447 101.595 125.447 72.171Z" fill="white"/>
</g>
<g opacity="0.529">
<path d="M125.151 72.023C125.151 42.6812 101.365 18.895 72.0228 18.895C42.681 18.895 18.8948 42.6812 18.8948 72.023C18.8948 101.365 42.681 125.151 72.0228 125.151C101.365 125.151 125.151 101.365 125.151 72.023Z" fill="white"/>
</g>
<g opacity="0.51">
<path d="M124.855 71.875C124.855 42.615 101.135 18.895 71.8748 18.895C42.6147 18.895 18.8948 42.615 18.8948 71.875C18.8948 101.135 42.6147 124.855 71.8748 124.855C101.135 124.855 124.855 101.135 124.855 71.875Z" fill="white"/>
</g>
<g opacity="0.49">
<path d="M124.558 71.7265C124.558 42.5485 100.904 18.895 71.7263 18.895C42.5482 18.895 18.8948 42.5485 18.8948 71.7265C18.8948 100.905 42.5482 124.558 71.7263 124.558C100.904 124.558 124.558 100.905 124.558 71.7265Z" fill="white"/>
</g>
<g opacity="0.471">
<path d="M71.5788 18.895H71.5778C42.4818 18.895 18.8948 42.482 18.8948 71.578V71.579C18.8948 100.675 42.4818 124.262 71.5778 124.262H71.5788C100.675 124.262 124.262 100.675 124.262 71.579V71.578C124.262 42.482 100.675 18.895 71.5788 18.895Z" fill="white"/>
</g>
<g opacity="0.451">
<path d="M123.965 71.43C123.965 42.4157 100.444 18.895 71.4298 18.895C42.4155 18.895 18.8948 42.4157 18.8948 71.43C18.8948 100.444 42.4155 123.965 71.4298 123.965C100.444 123.965 123.965 100.444 123.965 71.43Z" fill="white"/>
</g>
<g opacity="0.431">
<path d="M123.669 71.282C123.669 42.3495 100.214 18.895 71.2818 18.895C42.3492 18.895 18.8948 42.3495 18.8948 71.282C18.8948 100.215 42.3492 123.669 71.2818 123.669C100.214 123.669 123.669 100.215 123.669 71.282Z" fill="white"/>
</g>
<g opacity="0.412">
<path d="M123.373 71.134C123.373 42.2832 99.9846 18.895 71.1338 18.895C42.283 18.895 18.8948 42.2832 18.8948 71.134C18.8948 99.9848 42.283 123.373 71.1338 123.373C99.9846 123.373 123.373 99.9848 123.373 71.134Z" fill="white"/>
</g>
<g opacity="0.392">
<path d="M123.076 70.9855C123.076 42.2167 99.7541 18.895 70.9853 18.895C42.2165 18.895 18.8948 42.2167 18.8948 70.9855C18.8948 99.7543 42.2165 123.076 70.9853 123.076C99.7541 123.076 123.076 99.7543 123.076 70.9855Z" fill="white"/>
</g>
<g opacity="0.373">
<path d="M70.8378 18.895H70.8368C42.15 18.895 18.8948 42.1502 18.8948 70.837V70.838C18.8948 99.5248 42.15 122.78 70.8368 122.78H70.8378C99.5246 122.78 122.78 99.5248 122.78 70.838V70.837C122.78 42.1502 99.5246 18.895 70.8378 18.895Z" fill="white"/>
</g>
<g opacity="0.353">
<path d="M70.6898 18.895H70.6888C42.0837 18.895 18.8948 42.084 18.8948 70.689V70.69C18.8948 99.2951 42.0837 122.484 70.6888 122.484H70.6898C99.2948 122.484 122.484 99.2951 122.484 70.69V70.689C122.484 42.084 99.2948 18.895 70.6898 18.895Z" fill="white"/>
</g>
<g opacity="0.333">
<path d="M122.187 70.541C122.187 42.0177 99.0641 18.895 70.5408 18.895C42.0175 18.895 18.8948 42.0177 18.8948 70.541C18.8948 99.0643 42.0175 122.187 70.5408 122.187C99.0641 122.187 122.187 99.0643 122.187 70.541Z" fill="white"/>
</g>
<g opacity="0.314">
<path d="M121.891 70.393C121.891 41.9515 98.8343 18.895 70.3928 18.895C41.9512 18.895 18.8948 41.9515 18.8948 70.393C18.8948 98.8346 41.9512 121.891 70.3928 121.891C98.8343 121.891 121.891 98.8346 121.891 70.393Z" fill="white"/>
</g>
<g opacity="0.294">
<path d="M121.594 70.2445C121.594 41.885 98.6038 18.895 70.2443 18.895C41.8847 18.895 18.8948 41.885 18.8948 70.2445C18.8948 98.6041 41.8847 121.594 70.2443 121.594C98.6038 121.594 121.594 98.6041 121.594 70.2445Z" fill="white"/>
</g>
<g opacity="0.275">
<path d="M121.298 70.0965C121.298 41.8187 98.3741 18.895 70.0963 18.895C41.8185 18.895 18.8948 41.8187 18.8948 70.0965C18.8948 98.3743 41.8185 121.298 70.0963 121.298C98.3741 121.298 121.298 98.3743 121.298 70.0965Z" fill="white"/>
</g>
<g opacity="0.255">
<path d="M69.9488 18.895H69.9478C41.752 18.895 18.8948 41.7522 18.8948 69.948V69.949C18.8948 98.1448 41.752 121.002 69.9478 121.002H69.9488C98.1446 121.002 121.002 98.1448 121.002 69.949V69.948C121.002 41.7522 98.1446 18.895 69.9488 18.895Z" fill="white"/>
</g>
<g opacity="0.235">
<path d="M120.705 69.8C120.705 41.686 97.9138 18.895 69.7998 18.895C41.6857 18.895 18.8948 41.686 18.8948 69.8C18.8948 97.9141 41.6857 120.705 69.7998 120.705C97.9138 120.705 120.705 97.9141 120.705 69.8Z" fill="white"/>
</g>
<g opacity="0.216">
<path d="M120.409 69.652C120.409 41.6197 97.6841 18.895 69.6518 18.895C41.6195 18.895 18.8948 41.6197 18.8948 69.652C18.8948 97.6843 41.6195 120.409 69.6518 120.409C97.6841 120.409 120.409 97.6843 120.409 69.652Z" fill="white"/>
</g>
<g opacity="0.196">
<path d="M120.112 69.5035C120.112 41.5532 97.4536 18.895 69.5033 18.895C41.553 18.895 18.8948 41.5532 18.8948 69.5035C18.8948 97.4538 41.553 120.112 69.5033 120.112C97.4536 120.112 120.112 97.4538 120.112 69.5035Z" fill="white"/>
</g>
<g opacity="0.176">
<path d="M119.816 69.3555C119.816 41.487 97.2238 18.895 69.3553 18.895C41.4867 18.895 18.8948 41.487 18.8948 69.3555C18.8948 97.2241 41.4867 119.816 69.3553 119.816C97.2238 119.816 119.816 97.2241 119.816 69.3555Z" fill="white"/>
</g>
<g opacity="0.157">
<path d="M69.2078 18.895H69.2068C41.4202 18.895 18.8948 41.4205 18.8948 69.207V69.208C18.8948 96.9946 41.4202 119.52 69.2068 119.52H69.2078C96.9943 119.52 119.52 96.9946 119.52 69.208V69.207C119.52 41.4205 96.9943 18.895 69.2078 18.895Z" fill="white"/>
</g>
<g opacity="0.137">
<path d="M119.223 69.059C119.223 41.3542 96.7636 18.895 69.0588 18.895C41.354 18.895 18.8948 41.3542 18.8948 69.059C18.8948 96.7638 41.354 119.223 69.0588 119.223C96.7636 119.223 119.223 96.7638 119.223 69.059Z" fill="white"/>
</g>
<g opacity="0.118">
<path d="M118.927 68.911C118.927 41.2879 96.5338 18.895 68.9108 18.895C41.2877 18.895 18.8948 41.2879 18.8948 68.911C18.8948 96.5341 41.2877 118.927 68.9108 118.927C96.5338 118.927 118.927 96.5341 118.927 68.911Z" fill="white"/>
</g>
<g opacity="0.098">
<path d="M118.63 68.7625C118.63 41.2215 96.3033 18.895 68.7623 18.895C41.2212 18.895 18.8948 41.2215 18.8948 68.7625C18.8948 96.3036 41.2212 118.63 68.7623 118.63C96.3033 118.63 118.63 96.3036 118.63 68.7625Z" fill="white"/>
</g>
<g opacity="0.078">
<path d="M118.334 68.6145C118.334 41.1552 96.0736 18.895 68.6143 18.895C41.155 18.895 18.8948 41.1552 18.8948 68.6145C18.8948 96.0738 41.155 118.334 68.6143 118.334C96.0736 118.334 118.334 96.0738 118.334 68.6145Z" fill="white"/>
</g>
<g opacity="0.059">
<path d="M68.4668 18.895H68.4658C41.0885 18.895 18.8948 41.0887 18.8948 68.466V68.467C18.8948 95.8443 41.0885 118.038 68.4658 118.038H68.4668C95.8441 118.038 118.038 95.8443 118.038 68.467V68.466C118.038 41.0887 95.8441 18.895 68.4668 18.895Z" fill="white"/>
</g>
<g opacity="0.039">
<path d="M117.741 68.318C117.741 41.0225 95.6133 18.895 68.3178 18.895C41.0222 18.895 18.8948 41.0225 18.8948 68.318C18.8948 95.6136 41.0222 117.741 68.3178 117.741C95.6133 117.741 117.741 95.6136 117.741 68.318Z" fill="white"/>
</g>
<g opacity="0.02">
<path d="M117.445 68.17C117.445 40.9562 95.3836 18.895 68.1698 18.895C40.9559 18.895 18.8948 40.9562 18.8948 68.17C18.8948 95.3839 40.9559 117.445 68.1698 117.445C95.3836 117.445 117.445 95.3839 117.445 68.17Z" fill="white"/>
</g>
</g>
<path d="M75.6969 143.729C57.6287 143.709 40.3062 136.522 27.53 123.746C14.7538 110.97 7.56726 93.6472 7.54688 75.579C7.54688 75.131 7.72482 74.7015 8.04156 74.3848C8.35831 74.068 8.78795 73.89 9.2359 73.89C9.68385 73.89 10.1134 74.068 10.4302 74.3848C10.7469 74.7015 10.9249 75.131 10.9249 75.579C10.9249 88.3895 14.7236 100.912 21.8408 111.564C28.9579 122.215 39.0737 130.517 50.9091 135.42C62.7444 140.322 75.7677 141.605 88.3321 139.105C100.896 136.606 112.438 130.437 121.496 121.379C130.554 112.321 136.723 100.78 139.222 88.2152C141.721 75.6509 140.439 62.6276 135.536 50.7922C130.634 38.9569 122.332 28.841 111.681 21.7239C101.029 14.6067 88.5064 10.808 75.6959 10.808C75.2479 10.808 74.8183 10.6301 74.5016 10.3134C74.1848 9.99661 74.0069 9.56697 74.0069 9.11902C74.0069 8.67107 74.1848 8.24143 74.5016 7.92468C74.8183 7.60793 75.2479 7.43005 75.6959 7.43005C93.7704 7.43005 111.105 14.6101 123.885 27.3907C136.666 40.1714 143.846 57.5056 143.846 75.5801C143.846 93.6546 136.666 110.989 123.885 123.769C111.105 136.55 93.7704 143.73 75.6959 143.73L75.6969 143.729Z" fill="#0DBA63"/>
<path d="M48.4347 90.2056V89.5025H53.3438V90.2056H51.2855V96.048H50.4929V90.2056H48.4347ZM53.955 96.048V91.1389H54.6837V91.8804H54.7348C54.8243 91.6375 54.9862 91.4404 55.2206 91.2891C55.455 91.1378 55.7192 91.0622 56.0132 91.0622C56.0686 91.0622 56.1379 91.0632 56.221 91.0654C56.3041 91.0675 56.3669 91.0707 56.4095 91.075V91.842C56.384 91.8356 56.3254 91.826 56.2338 91.8132C56.1443 91.7983 56.0494 91.7909 55.9493 91.7909C55.7107 91.7909 55.4976 91.8409 55.3101 91.9411C55.1247 92.0391 54.9777 92.1755 54.8691 92.3502C54.7625 92.5228 54.7093 92.7198 54.7093 92.9414V96.048H53.955ZM58.7482 96.163C58.4371 96.163 58.1548 96.1044 57.9013 95.9872C57.6477 95.8679 57.4464 95.6964 57.2972 95.4727C57.1481 95.2468 57.0735 94.9741 57.0735 94.6545C57.0735 94.3733 57.1289 94.1453 57.2397 93.9706C57.3505 93.7937 57.4986 93.6552 57.6839 93.5551C57.8693 93.4549 58.0739 93.3804 58.2976 93.3314C58.5234 93.2802 58.7504 93.2397 58.9783 93.2099C59.2766 93.1716 59.5185 93.1428 59.7038 93.1236C59.8913 93.1023 60.0277 93.0671 60.1129 93.0181C60.2003 92.9691 60.244 92.8839 60.244 92.7625V92.7369C60.244 92.4216 60.1577 92.1765 59.9851 92.0018C59.8146 91.8271 59.5558 91.7397 59.2085 91.7397C58.8484 91.7397 58.5661 91.8186 58.3615 91.9762C58.157 92.1339 58.0131 92.3022 57.93 92.4812L57.2141 92.2255C57.342 91.9272 57.5124 91.695 57.7255 91.5288C57.9407 91.3605 58.1751 91.2433 58.4286 91.1772C58.6843 91.1091 58.9357 91.075 59.1829 91.075C59.3406 91.075 59.5217 91.0941 59.7262 91.1325C59.9329 91.1687 60.1321 91.2444 60.3239 91.3594C60.5178 91.4745 60.6786 91.6481 60.8065 91.8804C60.9343 92.1126 60.9982 92.4237 60.9982 92.8136V96.048H60.244V95.3832H60.2056C60.1545 95.4897 60.0692 95.6037 59.9499 95.7252C59.8306 95.8466 59.6719 95.95 59.4737 96.0352C59.2756 96.1204 59.0337 96.163 58.7482 96.163ZM58.8633 95.4855C59.1616 95.4855 59.413 95.4269 59.6175 95.3097C59.8242 95.1925 59.9798 95.0412 60.0842 94.8559C60.1907 94.6705 60.244 94.4755 60.244 94.271V93.5806C60.212 93.619 60.1417 93.6542 60.033 93.6861C59.9265 93.7159 59.8029 93.7426 59.6623 93.766C59.5238 93.7873 59.3885 93.8065 59.2564 93.8235C59.1264 93.8385 59.021 93.8512 58.94 93.8619C58.744 93.8875 58.5607 93.929 58.3903 93.9865C58.2219 94.0419 58.0856 94.1261 57.9812 94.239C57.8789 94.3498 57.8278 94.5011 57.8278 94.6929C57.8278 94.9549 57.9247 95.1531 58.1186 95.2873C58.3146 95.4194 58.5629 95.4855 58.8633 95.4855ZM63.1292 93.0948V96.048H62.3749V91.1389H63.1036V91.9059H63.1675C63.2826 91.6566 63.4573 91.4564 63.6917 91.3051C63.926 91.1517 64.2286 91.075 64.5993 91.075C64.9317 91.075 65.2226 91.1431 65.4719 91.2795C65.7211 91.4137 65.915 91.6183 66.0535 91.8931C66.192 92.1659 66.2613 92.511 66.2613 92.9287V96.048H65.507V92.9798C65.507 92.5941 65.4069 92.2937 65.2066 92.0785C65.0063 91.8612 64.7314 91.7525 64.382 91.7525C64.1412 91.7525 63.926 91.8047 63.7364 91.9091C63.5489 92.0135 63.4008 92.1659 63.2922 92.3662C63.1835 92.5664 63.1292 92.8093 63.1292 93.0948ZM71.1168 92.2383L70.4393 92.4301C70.3967 92.3171 70.3338 92.2074 70.2507 92.1009C70.1697 91.9922 70.0589 91.9027 69.9183 91.8324C69.7777 91.7621 69.5977 91.727 69.3782 91.727C69.0778 91.727 68.8274 91.7962 68.6271 91.9347C68.429 92.0711 68.3299 92.2447 68.3299 92.4556C68.3299 92.6431 68.3981 92.7912 68.5344 92.8999C68.6708 93.0086 68.8839 93.0991 69.1737 93.1716L69.9023 93.3505C70.3413 93.4571 70.6683 93.6201 70.8835 93.8395C71.0987 94.0569 71.2063 94.337 71.2063 94.6801C71.2063 94.9613 71.1254 95.2127 70.9634 95.4343C70.8036 95.6559 70.5799 95.8306 70.2923 95.9585C70.0046 96.0863 69.6701 96.1502 69.2887 96.1502C68.788 96.1502 68.3736 96.0416 68.0455 95.8243C67.7173 95.6069 67.5096 95.2895 67.4222 94.8718L68.1381 94.6929C68.2063 94.9571 68.3352 95.1552 68.5249 95.2873C68.7166 95.4194 68.967 95.4855 69.2759 95.4855C69.6275 95.4855 69.9066 95.4109 70.1133 95.2618C70.3221 95.1105 70.4265 94.9294 70.4265 94.7184C70.4265 94.548 70.3668 94.4052 70.2475 94.2902C70.1282 94.173 69.945 94.0856 69.6978 94.0281L68.8796 93.8363C68.43 93.7298 68.0998 93.5647 67.8888 93.3409C67.68 93.1151 67.5756 92.8328 67.5756 92.494C67.5756 92.217 67.6534 91.972 67.8089 91.7589C67.9666 91.5458 68.1808 91.3786 68.4513 91.2571C68.7241 91.1357 69.033 91.075 69.3782 91.075C69.864 91.075 70.2454 91.1815 70.5224 91.3946C70.8015 91.6076 70.9996 91.8889 71.1168 92.2383ZM73.7863 96.163C73.4752 96.163 73.1929 96.1044 72.9394 95.9872C72.6858 95.8679 72.4845 95.6964 72.3353 95.4727C72.1862 95.2468 72.1116 94.9741 72.1116 94.6545C72.1116 94.3733 72.167 94.1453 72.2778 93.9706C72.3886 93.7937 72.5367 93.6552 72.722 93.5551C72.9074 93.4549 73.1119 93.3804 73.3357 93.3314C73.5615 93.2802 73.7884 93.2397 74.0164 93.2099C74.3147 93.1716 74.5566 93.1428 74.7419 93.1236C74.9294 93.1023 75.0658 93.0671 75.151 93.0181C75.2384 92.9691 75.282 92.8839 75.282 92.7625V92.7369C75.282 92.4216 75.1958 92.1765 75.0232 92.0018C74.8527 91.8271 74.5938 91.7397 74.2465 91.7397C73.8865 91.7397 73.6041 91.8186 73.3996 91.9762C73.195 92.1339 73.0512 92.3022 72.9681 92.4812L72.2522 92.2255C72.3801 91.9272 72.5505 91.695 72.7636 91.5288C72.9788 91.3605 73.2132 91.2433 73.4667 91.1772C73.7224 91.1091 73.9738 91.075 74.221 91.075C74.3786 91.075 74.5597 91.0941 74.7643 91.1325C74.971 91.1687 75.1702 91.2444 75.3619 91.3594C75.5558 91.4745 75.7167 91.6481 75.8445 91.8804C75.9724 92.1126 76.0363 92.4237 76.0363 92.8136V96.048H75.282V95.3832H75.2437C75.1926 95.4897 75.1073 95.6037 74.988 95.7252C74.8687 95.8466 74.71 95.95 74.5118 96.0352C74.3137 96.1204 74.0718 96.163 73.7863 96.163ZM73.9014 95.4855C74.1997 95.4855 74.4511 95.4269 74.6556 95.3097C74.8623 95.1925 75.0178 95.0412 75.1222 94.8559C75.2288 94.6705 75.282 94.4755 75.282 94.271V93.5806C75.2501 93.619 75.1798 93.6542 75.0711 93.6861C74.9646 93.7159 74.841 93.7426 74.7004 93.766C74.5619 93.7873 74.4266 93.8065 74.2945 93.8235C74.1645 93.8385 74.059 93.8512 73.9781 93.8619C73.782 93.8875 73.5988 93.929 73.4284 93.9865C73.26 94.0419 73.1237 94.1261 73.0193 94.239C72.917 94.3498 72.8659 94.5011 72.8659 94.6929C72.8659 94.9549 72.9628 95.1531 73.1567 95.2873C73.3527 95.4194 73.6009 95.4855 73.9014 95.4855ZM79.4073 96.1502C78.9471 96.1502 78.5508 96.0416 78.2184 95.8243C77.886 95.6069 77.6303 95.3076 77.4513 94.9262C77.2724 94.5448 77.1829 94.1091 77.1829 93.619C77.1829 93.1204 77.2745 92.6804 77.4577 92.299C77.6431 91.9155 77.9009 91.6162 78.2312 91.401C78.5636 91.1836 78.9513 91.075 79.3945 91.075C79.7397 91.075 80.0508 91.1389 80.3278 91.2667C80.6048 91.3946 80.8317 91.5735 81.0085 91.8037C81.1854 92.0338 81.2951 92.3022 81.3377 92.6091H80.5835C80.5259 92.3853 80.3981 92.1872 80.1999 92.0146C80.0039 91.8399 79.7397 91.7525 79.4073 91.7525C79.1133 91.7525 78.8555 91.8292 78.6339 91.9826C78.4144 92.1339 78.2429 92.348 78.1193 92.625C77.9979 92.8999 77.9371 93.2227 77.9371 93.5934C77.9371 93.9727 77.9968 94.3029 78.1161 94.5842C78.2376 94.8654 78.408 95.0838 78.6275 95.2394C78.8491 95.3949 79.109 95.4727 79.4073 95.4727C79.6033 95.4727 79.7812 95.4386 79.9411 95.3704C80.1009 95.3022 80.2362 95.2042 80.3469 95.0764C80.4577 94.9485 80.5366 94.7951 80.5835 94.6162H81.3377C81.2951 94.9059 81.1896 95.1669 81.0213 95.3992C80.8551 95.6293 80.6346 95.8125 80.3597 95.9489C80.087 96.0831 79.7695 96.1502 79.4073 96.1502ZM84.5753 91.1389V91.7781H82.0312V91.1389H84.5753ZM82.7727 89.9627H83.527V94.6417C83.527 94.8548 83.5579 95.0146 83.6197 95.1211C83.6836 95.2255 83.7646 95.2958 83.8626 95.3321C83.9627 95.3662 84.0682 95.3832 84.179 95.3832C84.2621 95.3832 84.3303 95.3789 84.3835 95.3704C84.4368 95.3598 84.4794 95.3512 84.5114 95.3448L84.6648 96.0224C84.6136 96.0416 84.5423 96.0608 84.4506 96.0799C84.359 96.1012 84.2429 96.1119 84.1023 96.1119C83.8892 96.1119 83.6804 96.0661 83.4759 95.9745C83.2734 95.8828 83.1051 95.7433 82.9709 95.5558C82.8388 95.3683 82.7727 95.1318 82.7727 94.8463V89.9627ZM85.7099 96.048V91.1389H86.4641V96.048H85.7099ZM86.0934 90.3207C85.9464 90.3207 85.8196 90.2706 85.7131 90.1705C85.6087 90.0703 85.5565 89.95 85.5565 89.8093C85.5565 89.6687 85.6087 89.5483 85.7131 89.4482C85.8196 89.348 85.9464 89.298 86.0934 89.298C86.2404 89.298 86.3661 89.348 86.4705 89.4482C86.5771 89.5483 86.6303 89.6687 86.6303 89.8093C86.6303 89.95 86.5771 90.0703 86.4705 90.1705C86.3661 90.2706 86.2404 90.3207 86.0934 90.3207ZM89.8399 96.1502C89.3968 96.1502 89.0079 96.0448 88.6734 95.8338C88.341 95.6229 88.0811 95.3278 87.8936 94.9485C87.7082 94.5693 87.6155 94.1261 87.6155 93.619C87.6155 93.1076 87.7082 92.6613 87.8936 92.2799C88.0811 91.8985 88.341 91.6023 88.6734 91.3914C89.0079 91.1804 89.3968 91.075 89.8399 91.075C90.2831 91.075 90.6709 91.1804 91.0033 91.3914C91.3378 91.6023 91.5977 91.8985 91.7831 92.2799C91.9706 92.6613 92.0644 93.1076 92.0644 93.619C92.0644 94.1261 91.9706 94.5693 91.7831 94.9485C91.5977 95.3278 91.3378 95.6229 91.0033 95.8338C90.6709 96.0448 90.2831 96.1502 89.8399 96.1502ZM89.8399 95.4727C90.1766 95.4727 90.4536 95.3864 90.6709 95.2138C90.8882 95.0412 91.0491 94.8143 91.1535 94.5331C91.2579 94.2518 91.3101 93.9471 91.3101 93.619C91.3101 93.2909 91.2579 92.9851 91.1535 92.7017C91.0491 92.4184 90.8882 92.1893 90.6709 92.0146C90.4536 91.8399 90.1766 91.7525 89.8399 91.7525C89.5033 91.7525 89.2263 91.8399 89.009 92.0146C88.7916 92.1893 88.6308 92.4184 88.5264 92.7017C88.422 92.9851 88.3698 93.2909 88.3698 93.619C88.3698 93.9471 88.422 94.2518 88.5264 94.5331C88.6308 94.8143 88.7916 95.0412 89.009 95.2138C89.2263 95.3864 89.5033 95.4727 89.8399 95.4727ZM93.97 93.0948V96.048H93.2157V91.1389H93.9444V91.9059H94.0083C94.1234 91.6566 94.2981 91.4564 94.5325 91.3051C94.7669 91.1517 95.0694 91.075 95.4402 91.075C95.7725 91.075 96.0634 91.1431 96.3127 91.2795C96.562 91.4137 96.7559 91.6183 96.8944 91.8931C97.0328 92.1659 97.1021 92.511 97.1021 92.9287V96.048H96.3478V92.9798C96.3478 92.5941 96.2477 92.2937 96.0474 92.0785C95.8471 91.8612 95.5723 91.7525 95.2228 91.7525C94.9821 91.7525 94.7669 91.8047 94.5772 91.9091C94.3897 92.0135 94.2417 92.1659 94.133 92.3662C94.0243 92.5664 93.97 92.8093 93.97 93.0948ZM101.958 92.2383L101.28 92.4301C101.237 92.3171 101.175 92.2074 101.092 92.1009C101.011 91.9922 100.9 91.9027 100.759 91.8324C100.619 91.7621 100.438 91.727 100.219 91.727C99.9186 91.727 99.6682 91.7962 99.468 91.9347C99.2698 92.0711 99.1707 92.2447 99.1707 92.4556C99.1707 92.6431 99.2389 92.7912 99.3753 92.8999C99.5116 93.0086 99.7247 93.0991 100.014 93.1716L100.743 93.3505C101.182 93.4571 101.509 93.6201 101.724 93.8395C101.94 94.0569 102.047 94.337 102.047 94.6801C102.047 94.9613 101.966 95.2127 101.804 95.4343C101.644 95.6559 101.421 95.8306 101.133 95.9585C100.845 96.0863 100.511 96.1502 100.13 96.1502C99.6288 96.1502 99.2144 96.0416 98.8863 95.8243C98.5581 95.6069 98.3504 95.2895 98.2631 94.8718L98.979 94.6929C99.0471 94.9571 99.176 95.1552 99.3657 95.2873C99.5574 95.4194 99.8078 95.4855 100.117 95.4855C100.468 95.4855 100.747 95.4109 100.954 95.2618C101.163 95.1105 101.267 94.9294 101.267 94.7184C101.267 94.548 101.208 94.4052 101.088 94.2902C100.969 94.173 100.786 94.0856 100.539 94.0281L99.7204 93.8363C99.2709 93.7298 98.9406 93.5647 98.7297 93.3409C98.5209 93.1151 98.4165 92.8328 98.4165 92.494C98.4165 92.217 98.4942 91.972 98.6498 91.7589C98.8074 91.5458 99.0216 91.3786 99.2922 91.2571C99.5649 91.1357 99.8738 91.075 100.219 91.075C100.705 91.075 101.086 91.1815 101.363 91.3946C101.642 91.6076 101.84 91.8889 101.958 92.2383Z" fill="#5B749E"/>
<path d="M60.7926 108.048V101.503H61.5852V104.417H65.0753V101.503H65.8679V108.048H65.0753V105.12H61.5852V108.048H60.7926ZM67.3525 108.048V103.139H68.1067V108.048H67.3525ZM67.736 102.321C67.589 102.321 67.4622 102.271 67.3556 102.17C67.2512 102.07 67.199 101.95 67.199 101.809C67.199 101.669 67.2512 101.548 67.3556 101.448C67.4622 101.348 67.589 101.298 67.736 101.298C67.883 101.298 68.0087 101.348 68.1131 101.448C68.2196 101.548 68.2729 101.669 68.2729 101.809C68.2729 101.95 68.2196 102.07 68.1131 102.17C68.0087 102.271 67.883 102.321 67.736 102.321ZM72.9655 104.238L72.2879 104.43C72.2453 104.317 72.1824 104.207 72.0993 104.101C72.0184 103.992 71.9076 103.903 71.767 103.832C71.6263 103.762 71.4463 103.727 71.2268 103.727C70.9264 103.727 70.676 103.796 70.4758 103.935C70.2776 104.071 70.1785 104.245 70.1785 104.456C70.1785 104.643 70.2467 104.791 70.3831 104.9C70.5194 105.009 70.7325 105.099 71.0223 105.172L71.751 105.351C72.1899 105.457 72.517 105.62 72.7322 105.84C72.9474 106.057 73.055 106.337 73.055 106.68C73.055 106.961 72.974 107.213 72.8121 107.434C72.6523 107.656 72.4285 107.831 72.1409 107.958C71.8532 108.086 71.5187 108.15 71.1373 108.15C70.6366 108.15 70.2222 108.042 69.8941 107.824C69.566 107.607 69.3582 107.289 69.2709 106.872L69.9868 106.693C70.055 106.957 70.1839 107.155 70.3735 107.287C70.5653 107.419 70.8156 107.485 71.1246 107.485C71.4761 107.485 71.7552 107.411 71.9619 107.262C72.1707 107.11 72.2751 106.929 72.2751 106.718C72.2751 106.548 72.2155 106.405 72.0961 106.29C71.9768 106.173 71.7936 106.086 71.5464 106.028L70.7282 105.836C70.2787 105.73 69.9484 105.565 69.7375 105.341C69.5287 105.115 69.4243 104.833 69.4243 104.494C69.4243 104.217 69.502 103.972 69.6576 103.759C69.8153 103.546 70.0294 103.379 70.3 103.257C70.5727 103.136 70.8817 103.075 71.2268 103.075C71.7126 103.075 72.094 103.181 72.371 103.395C72.6501 103.608 72.8483 103.889 72.9655 104.238ZM76.3253 103.139V103.778H73.7812V103.139H76.3253ZM74.5227 101.963H75.277V106.642C75.277 106.855 75.3079 107.015 75.3697 107.121C75.4336 107.226 75.5146 107.296 75.6126 107.332C75.7127 107.366 75.8182 107.383 75.929 107.383C76.0121 107.383 76.0803 107.379 76.1335 107.37C76.1868 107.36 76.2294 107.351 76.2614 107.345L76.4148 108.022C76.3636 108.042 76.2923 108.061 76.2006 108.08C76.109 108.101 75.9929 108.112 75.8523 108.112C75.6392 108.112 75.4304 108.066 75.2259 107.974C75.0234 107.883 74.8551 107.743 74.7209 107.556C74.5888 107.368 74.5227 107.132 74.5227 106.846V101.963ZM79.4015 108.15C78.9583 108.15 78.5694 108.045 78.2349 107.834C77.9025 107.623 77.6426 107.328 77.4551 106.949C77.2697 106.569 77.177 106.126 77.177 105.619C77.177 105.108 77.2697 104.661 77.4551 104.28C77.6426 103.898 77.9025 103.602 78.2349 103.391C78.5694 103.18 78.9583 103.075 79.4015 103.075C79.8446 103.075 80.2324 103.18 80.5648 103.391C80.8993 103.602 81.1593 103.898 81.3446 104.28C81.5321 104.661 81.6259 105.108 81.6259 105.619C81.6259 106.126 81.5321 106.569 81.3446 106.949C81.1593 107.328 80.8993 107.623 80.5648 107.834C80.2324 108.045 79.8446 108.15 79.4015 108.15ZM79.4015 107.473C79.7381 107.473 80.0151 107.386 80.2324 107.214C80.4498 107.041 80.6106 106.814 80.715 106.533C80.8194 106.252 80.8716 105.947 80.8716 105.619C80.8716 105.291 80.8194 104.985 80.715 104.702C80.6106 104.418 80.4498 104.189 80.2324 104.015C80.0151 103.84 79.7381 103.753 79.4015 103.753C79.0648 103.753 78.7878 103.84 78.5705 104.015C78.3532 104.189 78.1923 104.418 78.0879 104.702C77.9835 104.985 77.9313 105.291 77.9313 105.619C77.9313 105.947 77.9835 106.252 78.0879 106.533C78.1923 106.814 78.3532 107.041 78.5705 107.214C78.7878 107.386 79.0648 107.473 79.4015 107.473ZM82.7773 108.048V103.139H83.5059V103.88H83.5571C83.6466 103.637 83.8085 103.44 84.0429 103.289C84.2773 103.138 84.5415 103.062 84.8355 103.062C84.8909 103.062 84.9601 103.063 85.0432 103.065C85.1263 103.068 85.1892 103.071 85.2318 103.075V103.842C85.2062 103.836 85.1476 103.826 85.056 103.813C84.9665 103.798 84.8717 103.791 84.7716 103.791C84.5329 103.791 84.3199 103.841 84.1324 103.941C83.947 104.039 83.8 104.175 83.6913 104.35C83.5848 104.523 83.5315 104.72 83.5315 104.941V108.048H82.7773ZM86.7611 109.889C86.6333 109.889 86.5193 109.878 86.4191 109.857C86.319 109.838 86.2497 109.819 86.2114 109.799L86.4031 109.135C86.5864 109.181 86.7483 109.199 86.8889 109.186C87.0296 109.173 87.1542 109.11 87.2629 108.997C87.3737 108.886 87.4749 108.706 87.5665 108.457L87.7071 108.074L85.8918 103.139H86.71L88.0651 107.051H88.1162L89.4713 103.139H90.2895L88.2057 108.764C88.1119 109.017 87.9958 109.227 87.8573 109.393C87.7188 109.562 87.558 109.686 87.3747 109.767C87.1936 109.848 86.9891 109.889 86.7611 109.889Z" fill="#5B749E"/>
<mask id="mask0_3209_1822" style="mask-type:luminance" maskUnits="userSpaceOnUse" x="58" y="53" width="35" height="24">
<path d="M92.3769 53.4141H58.5469V76.5291H92.3769V53.4141Z" fill="white"/>
</mask>
<g mask="url(#mask0_3209_1822)">
<path d="M86.0338 57.8391C85.4848 57.3151 85.0828 56.9491 84.6998 56.5621C84.5159 56.4078 84.3656 56.2175 84.258 56.0029C84.1503 55.7883 84.0877 55.554 84.0739 55.3143C84.0602 55.0747 84.0956 54.8347 84.1779 54.6093C84.2603 54.3838 84.3878 54.1775 84.5528 54.0031C84.7148 53.8255 84.9105 53.682 85.1286 53.5809C85.3466 53.4798 85.5827 53.4232 85.8229 53.4143C86.0631 53.4055 86.3026 53.4446 86.5275 53.5294C86.7525 53.6141 86.9582 53.7429 87.1328 53.9081C88.7261 55.3748 90.2911 56.8711 91.8278 58.3971C92.0024 58.5558 92.1415 58.7496 92.2361 58.9657C92.3307 59.1818 92.3787 59.4154 92.3769 59.6514C92.3751 59.8873 92.3236 60.1202 92.2257 60.3348C92.1278 60.5495 91.9857 60.7411 91.8088 60.8971C90.2868 62.4018 88.7395 63.8804 87.1668 65.3331C86.9904 65.5059 86.7809 65.6412 86.5507 65.7309C86.3206 65.8205 86.0747 65.8625 85.8279 65.8545C85.5811 65.8464 85.3385 65.7885 85.1147 65.6841C84.8909 65.5797 84.6906 65.4311 84.5258 65.2471C84.3663 65.0681 84.2446 64.8587 84.1681 64.6315C84.0916 64.4043 84.0617 64.164 84.0804 63.925C84.0991 63.686 84.1659 63.4532 84.2768 63.2406C84.3877 63.0281 84.5404 62.8402 84.7258 62.6881C85.0958 62.3161 85.4838 61.9601 86.0328 61.4361H68.8368C68.6118 61.4361 68.3818 61.4471 68.1568 61.4281C67.6899 61.4212 67.2442 61.2317 66.9152 60.9003C66.5861 60.5689 66.3999 60.1218 66.3964 59.6548C66.3929 59.1878 66.5723 58.738 66.8963 58.4016C67.2202 58.0653 67.663 57.8691 68.1298 57.8551C68.3811 57.8375 68.633 57.8325 68.8848 57.8401L86.0338 57.8391Z" fill="#0DBA63"/>
<path d="M65.0688 68.5191H82.1768C83.7008 68.5191 84.5768 69.1861 84.5548 70.3191C84.5318 71.4321 83.6818 72.0701 82.1998 72.0701C76.7665 72.0701 71.3332 72.0701 65.8998 72.0701H64.8598C65.3438 72.5561 65.6998 72.9121 66.0528 73.2701C66.2546 73.4217 66.4223 73.614 66.5449 73.8346C66.6675 74.0552 66.7424 74.2991 66.7647 74.5505C66.7869 74.8019 66.7561 75.0552 66.6741 75.2939C66.5921 75.5326 66.4608 75.7514 66.2888 75.9361C66.1132 76.1275 65.8989 76.2795 65.6602 76.3819C65.4215 76.4844 65.1638 76.535 64.904 76.5305C64.6443 76.5259 64.3885 76.4663 64.1535 76.3556C63.9185 76.2449 63.7097 76.0855 63.5408 75.8881C62.0868 74.4961 60.6462 73.0904 59.2188 71.6711C59.0078 71.5062 58.8374 71.295 58.721 71.0538C58.6046 70.8125 58.5452 70.5478 58.5474 70.2799C58.5496 70.0121 58.6134 69.7484 58.7338 69.5091C58.8542 69.2699 59.028 69.0615 59.2418 68.9001C60.6538 67.5001 62.0765 66.1128 63.5098 64.7381C63.6783 64.541 63.8859 64.381 64.1194 64.2683C64.3529 64.1555 64.6072 64.0924 64.8664 64.083C65.1255 64.0736 65.3838 64.1181 65.6248 64.2136C65.8659 64.3092 66.0845 64.4537 66.2668 64.6381C66.4427 64.8193 66.5781 65.0357 66.6642 65.273C66.7502 65.5104 66.785 65.7633 66.7661 66.0151C66.7472 66.2669 66.6751 66.5118 66.5545 66.7336C66.434 66.9555 66.2678 67.1492 66.0668 67.3021C65.7128 67.6561 65.3348 67.9821 64.9668 68.3211C65.0028 68.3881 65.0358 68.4541 65.0668 68.5211" fill="#0DBA63"/>
<path d="M61.0678 61.4601C60.678 61.4489 60.2896 61.4088 59.9058 61.3401C59.5203 61.2591 59.1753 61.046 58.9302 60.7376C58.6852 60.4292 58.5556 60.0449 58.5638 59.6511C58.5369 59.2564 58.6566 58.8657 58.9 58.5538C59.1434 58.242 59.4934 58.0309 59.8828 57.9611C60.7241 57.8379 61.5786 57.8345 62.4208 57.9511C62.8244 58.0202 63.1871 58.2389 63.4364 58.5637C63.6857 58.8885 63.8034 59.2954 63.7658 59.7031C63.756 60.1091 63.6045 60.4988 63.3374 60.8048C63.0704 61.1107 62.7047 61.3136 62.3038 61.3781C61.8942 61.4305 61.4807 61.4579 61.0678 61.4601Z" fill="#0DBA63"/>
<path d="M89.7618 68.5461C90.1136 68.5281 90.4662 68.5301 90.8178 68.5521C91.2471 68.603 91.642 68.8122 91.9254 69.1388C92.2087 69.4654 92.36 69.8859 92.3498 70.3181C92.3511 70.7383 92.1982 71.1444 91.9201 71.4594C91.642 71.7744 91.2579 71.9764 90.8408 72.0271C90.1386 72.0891 89.4323 72.0911 88.7298 72.0331C88.2996 71.994 87.8997 71.7949 87.6094 71.4751C87.319 71.1552 87.1593 70.7381 87.1618 70.3061C87.159 69.8617 87.325 69.4329 87.6263 69.1062C87.9276 68.7795 88.3416 68.5793 88.7848 68.5461C89.1088 68.5141 89.4388 68.5401 89.7658 68.5401V68.5461" fill="#0DBA63"/>
</g>
</svg>
