<svg width="152" height="152" viewBox="0 0 152 152" fill="none" xmlns="http://www.w3.org/2000/svg">
<path d="M151.159 75.5795C151.159 33.8381 117.321 0 75.5795 0C33.8381 0 0 33.8381 0 75.5795C0 117.321 33.8381 151.159 75.5795 151.159C117.321 151.159 151.159 117.321 151.159 75.5795Z" fill="#F2F3F7"/>
<g opacity="0.8">
<path d="M132.264 75.5795C132.264 44.2735 106.886 18.895 75.5795 18.895C44.2735 18.895 18.895 44.2735 18.895 75.5795C18.895 106.886 44.2735 132.264 75.5795 132.264C106.886 132.264 132.264 106.886 132.264 75.5795Z" fill="#FCFDFD"/>
<g opacity="0.98">
<path d="M131.968 75.4315C131.968 44.2073 106.656 18.895 75.4315 18.895C44.2073 18.895 18.895 44.2073 18.895 75.4315C18.895 106.656 44.2073 131.968 75.4315 131.968C106.656 131.968 131.968 106.656 131.968 75.4315Z" fill="#FCFDFD"/>
</g>
<g opacity="0.961">
<path d="M75.284 18.895H75.283C44.1408 18.895 18.895 44.1408 18.895 75.283V75.284C18.895 106.426 44.1408 131.672 75.283 131.672H75.284C106.426 131.672 131.672 106.426 131.672 75.284V75.283C131.672 44.1408 106.426 18.895 75.284 18.895Z" fill="#FCFDFD"/>
</g>
<g opacity="0.941">
<path d="M131.375 75.135C131.375 44.0745 106.196 18.895 75.135 18.895C44.0745 18.895 18.895 44.0745 18.895 75.135C18.895 106.196 44.0745 131.375 75.135 131.375C106.196 131.375 131.375 106.196 131.375 75.135Z" fill="#FCFDFD"/>
</g>
<g opacity="0.922">
<path d="M131.079 74.987C131.079 44.0083 105.966 18.895 74.987 18.895C44.0083 18.895 18.895 44.0083 18.895 74.987C18.895 105.966 44.0083 131.079 74.987 131.079C105.966 131.079 131.079 105.966 131.079 74.987Z" fill="#FCFDFD"/>
</g>
<g opacity="0.902">
<path d="M130.782 74.8385C130.782 43.9418 105.735 18.895 74.8385 18.895C43.9418 18.895 18.895 43.9418 18.895 74.8385C18.895 105.735 43.9418 130.782 74.8385 130.782C105.735 130.782 130.782 105.735 130.782 74.8385Z" fill="#FCFDFD"/>
</g>
<g opacity="0.882">
<path d="M130.486 74.6905C130.486 43.8755 105.506 18.895 74.6905 18.895C43.8755 18.895 18.895 43.8755 18.895 74.6905C18.895 105.506 43.8755 130.486 74.6905 130.486C105.506 130.486 130.486 105.506 130.486 74.6905Z" fill="#FCFDFD"/>
</g>
<g opacity="0.863">
<path d="M74.543 18.895H74.542C43.809 18.895 18.895 43.809 18.895 74.542V74.543C18.895 105.276 43.809 130.19 74.542 130.19H74.543C105.276 130.19 130.19 105.276 130.19 74.543V74.542C130.19 43.809 105.276 18.895 74.543 18.895Z" fill="#FCFDFD"/>
</g>
<g opacity="0.843">
<path d="M129.893 74.394C129.893 43.7428 105.045 18.895 74.394 18.895C43.7428 18.895 18.895 43.7428 18.895 74.394C18.895 105.045 43.7428 129.893 74.394 129.893C105.045 129.893 129.893 105.045 129.893 74.394Z" fill="#FCFDFD"/>
</g>
<g opacity="0.824">
<path d="M129.597 74.246C129.597 43.6765 104.816 18.895 74.246 18.895C43.6765 18.895 18.895 43.6765 18.895 74.246C18.895 104.816 43.6765 129.597 74.246 129.597C104.816 129.597 129.597 104.816 129.597 74.246Z" fill="#FCFDFD"/>
</g>
<g opacity="0.804">
<path d="M129.301 74.098C129.301 43.6102 104.586 18.895 74.098 18.895C43.6102 18.895 18.895 43.6102 18.895 74.098C18.895 104.586 43.6102 129.301 74.098 129.301C104.586 129.301 129.301 104.586 129.301 74.098Z" fill="#FCFDFD"/>
</g>
<g opacity="0.784">
<path d="M129.004 73.9495C129.004 43.5438 104.355 18.895 73.9495 18.895C43.5438 18.895 18.895 43.5438 18.895 73.9495C18.895 104.355 43.5438 129.004 73.9495 129.004C104.355 129.004 129.004 104.355 129.004 73.9495Z" fill="#FCFDFD"/>
</g>
<g opacity="0.765">
<path d="M73.801 18.895C88.363 18.895 102.329 24.6797 112.625 34.9766C122.922 45.2735 128.707 59.239 128.707 73.801C128.707 88.363 122.922 102.329 112.625 112.625C102.329 122.922 88.363 128.707 73.801 128.707C59.239 128.707 45.2735 122.922 34.9766 112.625C24.6797 102.329 18.895 88.363 18.895 73.801C18.895 59.239 24.6797 45.2735 34.9766 34.9766C45.2735 24.6797 59.239 18.895 73.801 18.895Z" fill="#FCFDFD"/>
</g>
<g opacity="0.745">
<path d="M128.411 73.653C128.411 43.411 103.895 18.895 73.653 18.895C43.411 18.895 18.895 43.411 18.895 73.653C18.895 103.895 43.411 128.411 73.653 128.411C103.895 128.411 128.411 103.895 128.411 73.653Z" fill="#FCFDFD"/>
</g>
<g opacity="0.725">
<path d="M128.115 73.505C128.115 43.3447 103.665 18.895 73.505 18.895C43.3447 18.895 18.895 43.3447 18.895 73.505C18.895 103.665 43.3447 128.115 73.505 128.115C103.665 128.115 128.115 103.665 128.115 73.505Z" fill="#FCFDFD"/>
</g>
<g opacity="0.706">
<path d="M127.819 73.357C127.819 43.2785 103.436 18.895 73.357 18.895C43.2785 18.895 18.895 43.2785 18.895 73.357C18.895 103.436 43.2785 127.819 73.357 127.819C103.436 127.819 127.819 103.436 127.819 73.357Z" fill="#FCFDFD"/>
</g>
<g opacity="0.686">
<path d="M127.522 73.2085C127.522 43.212 103.205 18.895 73.2085 18.895C43.212 18.895 18.895 43.212 18.895 73.2085C18.895 103.205 43.212 127.522 73.2085 127.522C103.205 127.522 127.522 103.205 127.522 73.2085Z" fill="#FCFDFD"/>
</g>
<g opacity="0.667">
<path d="M73.061 18.895H73.06C43.1455 18.895 18.895 43.1455 18.895 73.06V73.061C18.895 102.976 43.1455 127.226 73.06 127.226H73.061C102.976 127.226 127.226 102.976 127.226 73.061V73.06C127.226 43.1455 102.976 18.895 73.061 18.895Z" fill="#FCFDFD"/>
</g>
<g opacity="0.647">
<path d="M126.929 72.912C126.929 43.0793 102.745 18.895 72.912 18.895C43.0793 18.895 18.895 43.0793 18.895 72.912C18.895 102.745 43.0793 126.929 72.912 126.929C102.745 126.929 126.929 102.745 126.929 72.912Z" fill="#FCFDFD"/>
</g>
<g opacity="0.627">
<path d="M126.633 72.764C126.633 43.013 102.515 18.895 72.764 18.895C43.013 18.895 18.895 43.013 18.895 72.764C18.895 102.515 43.013 126.633 72.764 126.633C102.515 126.633 126.633 102.515 126.633 72.764Z" fill="#FCFDFD"/>
</g>
<g opacity="0.608">
<path d="M126.337 72.616C126.337 42.9467 102.285 18.895 72.616 18.895C42.9467 18.895 18.895 42.9467 18.895 72.616C18.895 102.285 42.9467 126.337 72.616 126.337C102.285 126.337 126.337 102.285 126.337 72.616Z" fill="#FCFDFD"/>
</g>
<g opacity="0.588">
<path d="M126.04 72.4675C126.04 42.8802 102.055 18.895 72.4675 18.895C42.8802 18.895 18.895 42.8802 18.895 72.4675C18.895 102.055 42.8802 126.04 72.4675 126.04C102.055 126.04 126.04 102.055 126.04 72.4675Z" fill="#FCFDFD"/>
</g>
<g opacity="0.569">
<path d="M72.32 18.895H72.319C42.8138 18.895 18.895 42.8138 18.895 72.319V72.32C18.895 101.825 42.8138 125.744 72.319 125.744H72.32C101.825 125.744 125.744 101.825 125.744 72.32V72.319C125.744 42.8138 101.825 18.895 72.32 18.895Z" fill="#FCFDFD"/>
</g>
<g opacity="0.549">
<path d="M125.447 72.171C125.447 42.7475 101.595 18.895 72.171 18.895C42.7475 18.895 18.895 42.7475 18.895 72.171C18.895 101.595 42.7475 125.447 72.171 125.447C101.595 125.447 125.447 101.595 125.447 72.171Z" fill="#FCFDFD"/>
</g>
<g opacity="0.529">
<path d="M125.151 72.023C125.151 42.6812 101.365 18.895 72.023 18.895C42.6812 18.895 18.895 42.6812 18.895 72.023C18.895 101.365 42.6812 125.151 72.023 125.151C101.365 125.151 125.151 101.365 125.151 72.023Z" fill="#FCFDFD"/>
</g>
<g opacity="0.51">
<path d="M124.855 71.875C124.855 42.615 101.135 18.895 71.875 18.895C42.615 18.895 18.895 42.615 18.895 71.875C18.895 101.135 42.615 124.855 71.875 124.855C101.135 124.855 124.855 101.135 124.855 71.875Z" fill="#FCFDFD"/>
</g>
<g opacity="0.49">
<path d="M124.558 71.7265C124.558 42.5485 100.905 18.895 71.7265 18.895C42.5485 18.895 18.895 42.5485 18.895 71.7265C18.895 100.905 42.5485 124.558 71.7265 124.558C100.905 124.558 124.558 100.905 124.558 71.7265Z" fill="#FCFDFD"/>
</g>
<g opacity="0.471">
<path d="M71.579 18.895H71.578C42.482 18.895 18.895 42.482 18.895 71.578V71.579C18.895 100.675 42.482 124.262 71.578 124.262H71.579C100.675 124.262 124.262 100.675 124.262 71.579V71.578C124.262 42.482 100.675 18.895 71.579 18.895Z" fill="#FCFDFD"/>
</g>
<g opacity="0.451">
<path d="M123.965 71.43C123.965 42.4157 100.444 18.895 71.43 18.895C42.4157 18.895 18.895 42.4157 18.895 71.43C18.895 100.444 42.4157 123.965 71.43 123.965C100.444 123.965 123.965 100.444 123.965 71.43Z" fill="#FCFDFD"/>
</g>
<g opacity="0.431">
<path d="M123.669 71.282C123.669 42.3495 100.215 18.895 71.282 18.895C42.3495 18.895 18.895 42.3495 18.895 71.282C18.895 100.215 42.3495 123.669 71.282 123.669C100.215 123.669 123.669 100.215 123.669 71.282Z" fill="#FCFDFD"/>
</g>
<g opacity="0.412">
<path d="M123.373 71.134C123.373 42.2832 99.9848 18.895 71.134 18.895C42.2832 18.895 18.895 42.2832 18.895 71.134C18.895 99.9848 42.2832 123.373 71.134 123.373C99.9848 123.373 123.373 99.9848 123.373 71.134Z" fill="#FCFDFD"/>
</g>
<g opacity="0.392">
<path d="M123.076 70.9855C123.076 42.2167 99.7543 18.895 70.9855 18.895C42.2167 18.895 18.895 42.2167 18.895 70.9855C18.895 99.7543 42.2167 123.076 70.9855 123.076C99.7543 123.076 123.076 99.7543 123.076 70.9855Z" fill="#FCFDFD"/>
</g>
<g opacity="0.373">
<path d="M70.838 18.895H70.837C42.1502 18.895 18.895 42.1502 18.895 70.837V70.838C18.895 99.5248 42.1502 122.78 70.837 122.78H70.838C99.5248 122.78 122.78 99.5248 122.78 70.838V70.837C122.78 42.1502 99.5248 18.895 70.838 18.895Z" fill="#FCFDFD"/>
</g>
<g opacity="0.353">
<path d="M70.69 18.895H70.689C42.084 18.895 18.895 42.084 18.895 70.689V70.69C18.895 99.2951 42.084 122.484 70.689 122.484H70.69C99.2951 122.484 122.484 99.2951 122.484 70.69V70.689C122.484 42.084 99.2951 18.895 70.69 18.895Z" fill="#FCFDFD"/>
</g>
<g opacity="0.333">
<path d="M122.187 70.541C122.187 42.0177 99.0643 18.895 70.541 18.895C42.0177 18.895 18.895 42.0177 18.895 70.541C18.895 99.0643 42.0177 122.187 70.541 122.187C99.0643 122.187 122.187 99.0643 122.187 70.541Z" fill="#FCFDFD"/>
</g>
<g opacity="0.314">
<path d="M121.891 70.393C121.891 41.9515 98.8346 18.895 70.393 18.895C41.9515 18.895 18.895 41.9515 18.895 70.393C18.895 98.8346 41.9515 121.891 70.393 121.891C98.8346 121.891 121.891 98.8346 121.891 70.393Z" fill="#FCFDFD"/>
</g>
<g opacity="0.294">
<path d="M121.594 70.2445C121.594 41.885 98.6041 18.895 70.2445 18.895C41.885 18.895 18.895 41.885 18.895 70.2445C18.895 98.6041 41.885 121.594 70.2445 121.594C98.6041 121.594 121.594 98.6041 121.594 70.2445Z" fill="#FCFDFD"/>
</g>
<g opacity="0.275">
<path d="M121.298 70.0965C121.298 41.8187 98.3743 18.895 70.0965 18.895C41.8187 18.895 18.895 41.8187 18.895 70.0965C18.895 98.3743 41.8187 121.298 70.0965 121.298C98.3743 121.298 121.298 98.3743 121.298 70.0965Z" fill="#FCFDFD"/>
</g>
<g opacity="0.255">
<path d="M69.949 18.895H69.948C41.7522 18.895 18.895 41.7522 18.895 69.948V69.949C18.895 98.1448 41.7522 121.002 69.948 121.002H69.949C98.1448 121.002 121.002 98.1448 121.002 69.949V69.948C121.002 41.7522 98.1448 18.895 69.949 18.895Z" fill="#FCFDFD"/>
</g>
<g opacity="0.235">
<path d="M120.705 69.8C120.705 41.686 97.9141 18.895 69.8 18.895C41.686 18.895 18.895 41.686 18.895 69.8C18.895 97.9141 41.686 120.705 69.8 120.705C97.9141 120.705 120.705 97.9141 120.705 69.8Z" fill="#FCFDFD"/>
</g>
<g opacity="0.216">
<path d="M120.409 69.652C120.409 41.6197 97.6843 18.895 69.652 18.895C41.6197 18.895 18.895 41.6197 18.895 69.652C18.895 97.6843 41.6197 120.409 69.652 120.409C97.6843 120.409 120.409 97.6843 120.409 69.652Z" fill="#FCFDFD"/>
</g>
<g opacity="0.196">
<path d="M120.112 69.5035C120.112 41.5532 97.4538 18.895 69.5035 18.895C41.5532 18.895 18.895 41.5532 18.895 69.5035C18.895 97.4538 41.5532 120.112 69.5035 120.112C97.4538 120.112 120.112 97.4538 120.112 69.5035Z" fill="#FCFDFD"/>
</g>
<g opacity="0.176">
<path d="M119.816 69.3555C119.816 41.487 97.2241 18.895 69.3555 18.895C41.487 18.895 18.895 41.487 18.895 69.3555C18.895 97.2241 41.487 119.816 69.3555 119.816C97.2241 119.816 119.816 97.2241 119.816 69.3555Z" fill="#FCFDFD"/>
</g>
<g opacity="0.157">
<path d="M69.208 18.895H69.207C41.4205 18.895 18.895 41.4205 18.895 69.207V69.208C18.895 96.9946 41.4205 119.52 69.207 119.52H69.208C96.9946 119.52 119.52 96.9946 119.52 69.208V69.207C119.52 41.4205 96.9946 18.895 69.208 18.895Z" fill="#FCFDFD"/>
</g>
<g opacity="0.137">
<path d="M119.223 69.059C119.223 41.3542 96.7638 18.895 69.059 18.895C41.3542 18.895 18.895 41.3542 18.895 69.059C18.895 96.7638 41.3542 119.223 69.059 119.223C96.7638 119.223 119.223 96.7638 119.223 69.059Z" fill="#FCFDFD"/>
</g>
<g opacity="0.118">
<path d="M118.927 68.911C118.927 41.2879 96.5341 18.895 68.911 18.895C41.2879 18.895 18.895 41.2879 18.895 68.911C18.895 96.5341 41.2879 118.927 68.911 118.927C96.5341 118.927 118.927 96.5341 118.927 68.911Z" fill="#FCFDFD"/>
</g>
<g opacity="0.098">
<path d="M118.63 68.7625C118.63 41.2215 96.3036 18.895 68.7625 18.895C41.2215 18.895 18.895 41.2215 18.895 68.7625C18.895 96.3036 41.2215 118.63 68.7625 118.63C96.3036 118.63 118.63 96.3036 118.63 68.7625Z" fill="#FCFDFD"/>
</g>
<g opacity="0.078">
<path d="M118.334 68.6145C118.334 41.1552 96.0738 18.895 68.6145 18.895C41.1552 18.895 18.895 41.1552 18.895 68.6145C18.895 96.0738 41.1552 118.334 68.6145 118.334C96.0738 118.334 118.334 96.0738 118.334 68.6145Z" fill="#FCFDFD"/>
</g>
<g opacity="0.059">
<path d="M68.467 18.895H68.466C41.0887 18.895 18.895 41.0887 18.895 68.466V68.467C18.895 95.8443 41.0887 118.038 68.466 118.038H68.467C95.8443 118.038 118.038 95.8443 118.038 68.467V68.466C118.038 41.0887 95.8443 18.895 68.467 18.895Z" fill="#FCFDFD"/>
</g>
<g opacity="0.039">
<path d="M117.741 68.318C117.741 41.0225 95.6136 18.895 68.318 18.895C41.0225 18.895 18.895 41.0225 18.895 68.318C18.895 95.6136 41.0225 117.741 68.318 117.741C95.6136 117.741 117.741 95.6136 117.741 68.318Z" fill="#FCFDFD"/>
</g>
<g opacity="0.02">
<path d="M117.445 68.17C117.445 40.9562 95.3839 18.895 68.17 18.895C40.9562 18.895 18.895 40.9562 18.895 68.17C18.895 95.3839 40.9562 117.445 68.17 117.445C95.3839 117.445 117.445 95.3839 117.445 68.17Z" fill="#FCFDFD"/>
</g>
</g>
<path d="M75.15 143.73C57.0818 143.71 39.7594 136.523 26.9832 123.747C14.207 110.971 7.02038 93.6482 7 75.58C7 75.132 7.17796 74.7025 7.49471 74.3857C7.81145 74.069 8.24106 73.891 8.68901 73.891C9.13696 73.891 9.56655 74.069 9.8833 74.3857C10.2 74.7025 10.378 75.132 10.378 75.58C10.378 88.3904 14.1768 100.913 21.2939 111.565C28.411 122.216 38.5269 130.518 50.3622 135.421C62.1976 140.323 75.2209 141.606 87.7852 139.106C100.35 136.607 111.891 130.438 120.949 121.38C130.007 112.322 136.176 100.781 138.675 88.2162C141.175 75.6518 139.892 62.6286 134.99 50.7932C130.087 38.9579 121.785 28.842 111.134 21.7249C100.482 14.6077 87.9595 10.809 75.149 10.809C74.7011 10.809 74.2714 10.6311 73.9547 10.3143C73.6379 9.99758 73.46 9.56795 73.46 9.12C73.46 8.67204 73.6379 8.24241 73.9547 7.92566C74.2714 7.60891 74.7011 7.43103 75.149 7.43103C93.2235 7.43103 110.558 14.6111 123.338 27.3917C136.119 40.1723 143.299 57.5066 143.299 75.5811C143.299 93.6556 136.119 110.99 123.338 123.77C110.558 136.551 93.2235 143.731 75.149 143.731L75.15 143.73Z" fill="#1493A2"/>
<path d="M59.0881 99.1976H59.8807V103.531C59.8807 103.979 59.7752 104.378 59.5643 104.73C59.3555 105.079 59.0604 105.355 58.679 105.558C58.2976 105.758 57.8501 105.858 57.3366 105.858C56.8232 105.858 56.3757 105.758 55.9943 105.558C55.6129 105.355 55.3168 105.079 55.1058 104.73C54.897 104.378 54.7926 103.979 54.7926 103.531V99.1976H55.5852V103.467C55.5852 103.787 55.6555 104.072 55.7962 104.321C55.9368 104.568 56.1371 104.763 56.397 104.906C56.6591 105.046 56.9723 105.117 57.3366 105.117C57.701 105.117 58.0142 105.046 58.2763 104.906C58.5384 104.763 58.7386 104.568 58.8771 104.321C59.0178 104.072 59.0881 103.787 59.0881 103.467V99.1976ZM62.1155 102.79V105.743H61.3612V100.834H62.0899V101.601H62.1539C62.2689 101.352 62.4436 101.151 62.678 101C62.9124 100.847 63.2149 100.77 63.5857 100.77C63.9181 100.77 64.2089 100.838 64.4582 100.975C64.7075 101.109 64.9014 101.313 65.0399 101.588C65.1784 101.861 65.2476 102.206 65.2476 102.624V105.743H64.4933V102.675C64.4933 102.289 64.3932 101.989 64.1929 101.774C63.9926 101.556 63.7178 101.448 63.3683 101.448C63.1276 101.448 62.9124 101.5 62.7227 101.604C62.5352 101.709 62.3872 101.861 62.2785 102.061C62.1698 102.262 62.1155 102.504 62.1155 102.79ZM67.3801 99.1976V105.743H66.6259V99.1976H67.3801ZM70.7559 105.845C70.3128 105.845 69.9239 105.74 69.5894 105.529C69.257 105.318 68.9971 105.023 68.8096 104.644C68.6242 104.264 68.5315 103.821 68.5315 103.314C68.5315 102.803 68.6242 102.356 68.8096 101.975C68.9971 101.594 69.257 101.297 69.5894 101.086C69.9239 100.875 70.3128 100.77 70.7559 100.77C71.1991 100.77 71.5869 100.875 71.9193 101.086C72.2538 101.297 72.5138 101.594 72.6991 101.975C72.8866 102.356 72.9804 102.803 72.9804 103.314C72.9804 103.821 72.8866 104.264 72.6991 104.644C72.5138 105.023 72.2538 105.318 71.9193 105.529C71.5869 105.74 71.1991 105.845 70.7559 105.845ZM70.7559 105.168C71.0926 105.168 71.3696 105.081 71.5869 104.909C71.8042 104.736 71.9651 104.509 72.0695 104.228C72.1739 103.947 72.2261 103.642 72.2261 103.314C72.2261 102.986 72.1739 102.68 72.0695 102.397C71.9651 102.113 71.8042 101.884 71.5869 101.71C71.3696 101.535 71.0926 101.448 70.7559 101.448C70.4193 101.448 70.1423 101.535 69.925 101.71C69.7077 101.884 69.5468 102.113 69.4424 102.397C69.338 102.68 69.2858 102.986 69.2858 103.314C69.2858 103.642 69.338 103.947 69.4424 104.228C69.5468 104.509 69.7077 104.736 69.925 104.909C70.1423 105.081 70.4193 105.168 70.7559 105.168ZM75.5763 105.858C75.2653 105.858 74.983 105.8 74.7294 105.682C74.4759 105.563 74.2745 105.391 74.1254 105.168C73.9762 104.942 73.9016 104.669 73.9016 104.35C73.9016 104.068 73.957 103.84 74.0678 103.666C74.1786 103.489 74.3267 103.35 74.5121 103.25C74.6974 103.15 74.902 103.075 75.1257 103.026C75.3516 102.975 75.5785 102.935 75.8065 102.905C76.1048 102.867 76.3466 102.838 76.532 102.819C76.7195 102.797 76.8558 102.762 76.9411 102.713C77.0284 102.664 77.0721 102.579 77.0721 102.458V102.432C77.0721 102.117 76.9858 101.872 76.8132 101.697C76.6428 101.522 76.3839 101.435 76.0366 101.435C75.6765 101.435 75.3942 101.514 75.1896 101.671C74.9851 101.829 74.8413 101.997 74.7582 102.176L74.0423 101.921C74.1701 101.622 74.3406 101.39 74.5536 101.224C74.7688 101.056 75.0032 100.938 75.2567 100.872C75.5124 100.804 75.7638 100.77 76.011 100.77C76.1687 100.77 76.3498 100.789 76.5543 100.828C76.761 100.864 76.9602 100.939 77.152 101.054C77.3459 101.17 77.5067 101.343 77.6346 101.575C77.7624 101.808 77.8263 102.119 77.8263 102.509V105.743H77.0721V105.078H77.0337C76.9826 105.185 76.8974 105.299 76.7781 105.42C76.6587 105.542 76.5 105.645 76.3018 105.73C76.1037 105.815 75.8619 105.858 75.5763 105.858ZM75.6914 105.181C75.9897 105.181 76.2411 105.122 76.4457 105.005C76.6523 104.888 76.8079 104.736 76.9123 104.551C77.0188 104.366 77.0721 104.171 77.0721 103.966V103.276C77.0401 103.314 76.9698 103.349 76.8612 103.381C76.7546 103.411 76.631 103.438 76.4904 103.461C76.3519 103.482 76.2166 103.502 76.0845 103.519C75.9545 103.534 75.8491 103.546 75.7681 103.557C75.5721 103.583 75.3888 103.624 75.2184 103.682C75.0501 103.737 74.9137 103.821 74.8093 103.934C74.707 104.045 74.6559 104.196 74.6559 104.388C74.6559 104.65 74.7528 104.848 74.9467 104.982C75.1428 105.114 75.391 105.181 75.6914 105.181ZM81.0567 105.845C80.6476 105.845 80.2865 105.742 79.9733 105.535C79.6601 105.326 79.415 105.032 79.2382 104.653C79.0613 104.272 78.9729 103.821 78.9729 103.301C78.9729 102.786 79.0613 102.338 79.2382 101.959C79.415 101.58 79.6611 101.287 79.9765 101.08C80.2918 100.873 80.6562 100.77 81.0695 100.77C81.3891 100.77 81.6416 100.823 81.827 100.93C82.0145 101.034 82.1572 101.154 82.2552 101.288C82.3554 101.42 82.4332 101.529 82.4885 101.614H82.5525V99.1976H83.3067V105.743H82.578V104.989H82.4885C82.4332 105.078 82.3543 105.191 82.252 105.328C82.1498 105.462 82.0038 105.582 81.8142 105.689C81.6246 105.793 81.3721 105.845 81.0567 105.845ZM81.159 105.168C81.4616 105.168 81.7172 105.089 81.926 104.931C82.1349 104.771 82.2936 104.551 82.4023 104.27C82.5109 103.986 82.5653 103.659 82.5653 103.288C82.5653 102.922 82.512 102.601 82.4055 102.326C82.2989 102.05 82.1412 101.834 81.9324 101.681C81.7236 101.525 81.4658 101.448 81.159 101.448C80.8394 101.448 80.5731 101.53 80.36 101.694C80.1491 101.856 79.9903 102.076 79.8838 102.355C79.7794 102.632 79.7272 102.943 79.7272 103.288C79.7272 103.638 79.7805 103.955 79.887 104.241C79.9956 104.524 80.1555 104.75 80.3664 104.918C80.5795 105.085 80.8437 105.168 81.159 105.168ZM84.7929 105.743V100.834H85.5471V105.743H84.7929ZM85.1764 100.016C85.0294 100.016 84.9026 99.9657 84.7961 99.8656C84.6917 99.7654 84.6395 99.645 84.6395 99.5044C84.6395 99.3638 84.6917 99.2434 84.7961 99.1433C84.9026 99.0431 85.0294 98.993 85.1764 98.993C85.3234 98.993 85.4491 99.0431 85.5535 99.1433C85.6601 99.2434 85.7133 99.3638 85.7133 99.5044C85.7133 99.645 85.6601 99.7654 85.5535 99.8656C85.4491 99.9657 85.3234 100.016 85.1764 100.016ZM87.6829 102.79V105.743H86.9286V100.834H87.6573V101.601H87.7212C87.8363 101.352 88.011 101.151 88.2454 101C88.4798 100.847 88.7823 100.77 89.1531 100.77C89.4854 100.77 89.7763 100.838 90.0256 100.975C90.2749 101.109 90.4688 101.313 90.6072 101.588C90.7457 101.861 90.815 102.206 90.815 102.624V105.743H90.0607V102.675C90.0607 102.289 89.9606 101.989 89.7603 101.774C89.56 101.556 89.2852 101.448 88.9357 101.448C88.695 101.448 88.4798 101.5 88.2901 101.604C88.1026 101.709 87.9545 101.861 87.8459 102.061C87.7372 102.262 87.6829 102.504 87.6829 102.79ZM94.1748 107.686C93.8105 107.686 93.4972 107.639 93.2352 107.546C92.9731 107.454 92.7547 107.333 92.58 107.181C92.4074 107.032 92.27 106.872 92.1677 106.702L92.7686 106.28C92.8367 106.369 92.923 106.472 93.0274 106.587C93.1318 106.704 93.2746 106.805 93.4557 106.89C93.6389 106.978 93.8786 107.021 94.1748 107.021C94.5711 107.021 94.8982 106.926 95.156 106.734C95.4138 106.542 95.5427 106.242 95.5427 105.833V104.835H95.4788C95.4234 104.925 95.3445 105.036 95.2423 105.168C95.1421 105.298 94.9972 105.414 94.8076 105.516C94.6201 105.616 94.3666 105.666 94.047 105.666C93.6507 105.666 93.2948 105.573 92.9795 105.385C92.6663 105.198 92.4181 104.925 92.2348 104.567C92.0537 104.209 91.9632 103.774 91.9632 103.263C91.9632 102.76 92.0516 102.322 92.2284 101.949C92.4053 101.574 92.6514 101.285 92.9667 101.08C93.282 100.873 93.6464 100.77 94.0597 100.77C94.3794 100.77 94.6329 100.823 94.8204 100.93C95.01 101.034 95.1549 101.154 95.2551 101.288C95.3573 101.42 95.4362 101.529 95.4916 101.614H95.5683V100.834H96.297V105.884C96.297 106.306 96.2011 106.649 96.0093 106.913C95.8197 107.179 95.564 107.374 95.2423 107.498C94.9227 107.623 94.5669 107.686 94.1748 107.686ZM94.1492 104.989C94.4518 104.989 94.7075 104.92 94.9163 104.781C95.1251 104.643 95.2838 104.443 95.3925 104.183C95.5012 103.923 95.5555 103.612 95.5555 103.25C95.5555 102.896 95.5022 102.584 95.3957 102.314C95.2892 102.043 95.1315 101.831 94.9227 101.678C94.7139 101.524 94.4561 101.448 94.1492 101.448C93.8296 101.448 93.5633 101.529 93.3502 101.69C93.1393 101.852 92.9806 102.07 92.874 102.342C92.7696 102.615 92.7174 102.918 92.7174 103.25C92.7174 103.591 92.7707 103.893 92.8772 104.155C92.9859 104.415 93.1457 104.619 93.3566 104.768C93.5697 104.915 93.8339 104.989 94.1492 104.989Z" fill="#5B749E"/>
<mask id="mask0_3209_1978" style="mask-type:luminance" maskUnits="userSpaceOnUse" x="59" y="54" width="34" height="36">
<path d="M92.83 54.243H59V89.622H92.83V54.243Z" fill="white"/>
</mask>
<g mask="url(#mask0_3209_1978)">
<path d="M72.4109 89.6211C71.7479 89.4797 71.1225 89.1992 70.5759 88.7981C70.1552 88.4648 69.81 88.0459 69.5633 87.5692C69.3166 87.0925 69.174 86.5688 69.145 86.0328C69.116 85.4968 69.2012 84.9607 69.3949 84.4602C69.5887 83.9596 69.8866 83.5059 70.2689 83.1291C70.3464 83.0666 70.4018 82.981 70.4272 82.8847C70.4526 82.7885 70.4465 82.6867 70.4099 82.5941C68.1433 74.1941 65.8833 65.7908 63.6299 57.3841C63.6002 57.2087 63.5345 57.0414 63.4368 56.8928C63.3392 56.7441 63.2117 56.6174 63.0626 56.5205C62.9134 56.4236 62.7458 56.3587 62.5703 56.3299C62.3948 56.3011 62.2152 56.309 62.0429 56.3531C61.8706 56.3972 61.7093 56.4766 61.5693 56.5863C61.4292 56.6959 61.3135 56.8334 61.2293 56.9901C61.1451 57.1467 61.0943 57.3192 61.0801 57.4965C61.0659 57.6737 61.0887 57.8521 61.1469 58.0201C61.2039 58.2431 61.2729 58.4641 61.3199 58.6891C61.3694 58.934 61.3287 59.1886 61.2055 59.406C61.0822 59.6233 60.8846 59.7888 60.6489 59.8721C60.4194 59.961 60.1648 59.9602 59.9358 59.87C59.7068 59.7798 59.5202 59.6067 59.4129 59.3851C59.1005 58.7962 58.9581 58.1319 59.0015 57.4667C59.045 56.8015 59.2726 56.1614 59.6589 55.6181C60.0034 55.114 60.486 54.7201 61.0488 54.4835C61.6117 54.2468 62.2308 54.1776 62.8319 54.2841C63.469 54.3504 64.0707 54.6093 64.5568 55.0263C65.043 55.4433 65.3905 55.9986 65.5529 56.6181C66.0369 58.2361 66.4429 59.8781 66.8829 61.5091C67.0049 61.9611 67.1289 62.4091 67.2579 62.8831C68.7079 62.4981 70.1279 62.1191 71.5469 61.7381C75.2669 60.7408 78.9846 59.7421 82.6999 58.7421C82.8571 58.6722 83.0287 58.6407 83.2005 58.6501C83.3723 58.6596 83.5393 58.7097 83.6879 58.7965C83.8365 58.8832 83.9623 59.004 84.055 59.149C84.1477 59.2939 84.2046 59.4588 84.2209 59.6301C86.0456 66.4501 87.8686 73.2691 89.6899 80.0871C89.7169 80.1871 89.7509 80.2871 89.7899 80.4151C90.1599 80.3151 90.5239 80.2241 90.8899 80.1311C91.0314 80.078 91.1827 80.0566 91.3333 80.0684C91.4839 80.0802 91.6301 80.1249 91.7615 80.1994C91.893 80.2739 92.0064 80.3763 92.0939 80.4995C92.1814 80.6226 92.2408 80.7635 92.2679 80.9121C92.4509 81.5521 92.6259 82.1961 92.7879 82.8441C92.8314 82.979 92.8468 83.1214 92.833 83.2624C92.8193 83.4035 92.7767 83.5402 92.708 83.6642C92.6393 83.7881 92.5459 83.8966 92.4336 83.983C92.3212 84.0695 92.1924 84.1319 92.0549 84.1665C91.9175 84.2011 91.7744 84.2072 91.6346 84.1843C91.4947 84.1614 91.361 84.1101 91.2418 84.0334C91.1226 83.9568 91.0203 83.8566 90.9414 83.7388C90.8625 83.6211 90.8086 83.4885 90.7829 83.3491C90.6949 83.0401 90.6129 82.7301 90.5139 82.3751C90.0379 82.5101 89.5839 82.6461 89.1229 82.7751C85.1143 83.8484 81.1046 84.9194 77.0939 85.9881C76.9789 86.0011 76.8724 86.0554 76.7942 86.1409C76.7161 86.2264 76.6716 86.3373 76.6689 86.4531C76.5445 87.214 76.1905 87.9187 75.6543 88.4728C75.1181 89.0268 74.4254 89.4038 73.6689 89.5531C73.5941 89.574 73.5203 89.5987 73.4479 89.6271L72.4109 89.6211ZM87.7859 80.9641C85.9949 74.2721 84.2169 67.6261 82.4369 60.9641C77.5369 62.2751 72.6919 63.5731 67.8369 64.8761C67.8599 64.9941 67.8709 65.0761 67.8919 65.1471C69.3679 70.6771 70.8436 76.2088 72.3189 81.7421C72.3819 81.9761 72.4619 82.0421 72.7099 82.0351C73.3921 81.9842 74.075 82.1235 74.6828 82.4373C75.2906 82.7512 75.7995 83.2274 76.1529 83.8131C76.1704 83.8534 76.1957 83.8898 76.2274 83.9201C76.2591 83.9505 76.2965 83.9742 76.3375 83.9898C76.3785 84.0055 76.4223 84.0128 76.4661 84.0113C76.51 84.0098 76.5531 83.9995 76.5929 83.9811C79.1543 83.2824 81.7183 82.5914 84.2849 81.9081L87.7849 80.9671M71.2149 85.8321C71.2152 86.2855 71.3955 86.7203 71.7161 87.041C72.0367 87.3616 72.4715 87.5418 72.9249 87.5421C73.2675 87.5455 73.6033 87.4468 73.8896 87.2587C74.1759 87.0707 74.3998 86.8016 74.5327 86.4859C74.6656 86.1702 74.7016 85.8221 74.636 85.4858C74.5704 85.1496 74.4063 84.8405 74.1645 84.5979C73.9227 84.3552 73.6142 84.19 73.2782 84.1233C72.9422 84.0565 72.5939 84.0913 72.2778 84.2231C71.9616 84.3549 71.6918 84.5778 71.5027 84.8635C71.3136 85.1491 71.2138 85.4845 71.2159 85.8271" fill="#1493A2"/>
<path d="M79.29 74.3731C79.608 75.5561 79.909 76.6501 80.19 77.7481C80.2504 77.9148 80.2668 78.0943 80.2374 78.2692C80.208 78.4441 80.134 78.6084 80.0224 78.7463C79.9108 78.8841 79.7655 78.9908 79.6006 79.0559C79.4356 79.1211 79.2566 79.1425 79.081 79.1181C78.8664 79.0975 78.6644 79.0078 78.5053 78.8624C78.3463 78.717 78.2387 78.5239 78.199 78.3121C77.928 77.3121 77.66 76.3121 77.389 75.3171C77.36 75.2101 77.328 75.1001 77.28 74.9301C77.112 75.2101 76.98 75.4461 76.836 75.6771C76.7729 75.8025 76.685 75.9138 76.5775 76.0043C76.4701 76.0947 76.3454 76.1623 76.2111 76.2031C76.0767 76.2438 75.9354 76.2568 75.7959 76.2413C75.6563 76.2258 75.5214 76.1821 75.3993 76.1128C75.2771 76.0435 75.1703 75.9501 75.0854 75.8383C75.0005 75.7265 74.9392 75.5986 74.9052 75.4623C74.8712 75.3261 74.8653 75.1844 74.8878 75.0458C74.9102 74.9072 74.9607 74.7746 75.036 74.6561C75.5953 73.6767 76.162 72.7024 76.736 71.7331C76.8014 71.6071 76.8926 71.4961 77.0035 71.4075C77.1144 71.3188 77.2427 71.2544 77.38 71.2183C77.5174 71.1822 77.6608 71.1753 77.801 71.198C77.9411 71.2207 78.075 71.2725 78.194 71.3501C79.164 71.8971 80.13 72.4571 81.094 73.0211C81.2224 73.0844 81.3364 73.1736 81.4287 73.2831C81.521 73.3927 81.5897 73.5201 81.6304 73.6575C81.671 73.7948 81.6828 73.9391 81.665 74.0812C81.6472 74.2233 81.6002 74.3602 81.5269 74.4833C81.4536 74.6063 81.3556 74.7129 81.2391 74.7963C81.1226 74.8796 80.9901 74.938 80.85 74.9676C80.7099 74.9973 80.5651 74.9976 80.4248 74.9686C80.2846 74.9396 80.1518 74.8819 80.035 74.7991C79.814 74.6771 79.597 74.5511 79.296 74.3781" fill="#1493A2"/>
<path d="M76.9609 64.9981C77.2286 64.9622 77.5001 65.0267 77.7231 65.179C77.9461 65.3313 78.1049 65.5607 78.1689 65.8231C78.227 66.0491 78.2004 66.2886 78.0941 66.4964C77.9879 66.7042 77.8092 66.8659 77.5919 66.9511C76.7519 67.2181 75.8979 67.4511 75.0369 67.6351C74.7996 67.6683 74.5585 67.6119 74.3604 67.4769C74.1624 67.342 74.0218 67.1381 73.9659 66.9051C73.8876 66.685 73.8938 66.4437 73.9832 66.228C74.0726 66.0122 74.2389 65.8373 74.4499 65.7371C75.3339 65.4281 76.2499 65.2051 76.9609 64.9981Z" fill="#1493A2"/>
</g>
</svg>
