<svg width="152" height="152" viewBox="0 0 152 152" fill="none" xmlns="http://www.w3.org/2000/svg">
<path d="M151.159 75.5795C151.159 33.8381 117.321 0 75.5795 0C33.8381 0 0 33.8381 0 75.5795C0 117.321 33.8381 151.159 75.5795 151.159C117.321 151.159 151.159 117.321 151.159 75.5795Z" fill="#F2F3F7"/>
<g opacity="0.725">
<path d="M128.115 73.505C128.115 43.3447 103.665 18.895 73.5048 18.895C43.3445 18.895 18.8948 43.3447 18.8948 73.505C18.8948 103.665 43.3445 128.115 73.5048 128.115C103.665 128.115 128.115 103.665 128.115 73.505Z" fill="white"/>
</g>
<path d="M75.58 143.729C57.5117 143.709 40.1893 136.522 27.4131 123.746C14.6369 110.97 7.45031 93.6471 7.42993 75.5789C7.42993 75.1309 7.60787 74.7014 7.92462 74.3846C8.24137 74.0679 8.67101 73.8899 9.11896 73.8899C9.56691 73.8899 9.99648 74.0679 10.3132 74.3846C10.63 74.7014 10.8079 75.1309 10.8079 75.5789C10.8079 88.3894 14.6067 100.912 21.7238 111.564C28.8409 122.215 38.9568 130.517 50.7921 135.42C62.6275 140.322 75.6508 141.605 88.2151 139.105C100.779 136.606 112.321 130.437 121.379 121.379C130.437 112.321 136.606 100.779 139.105 88.2151C141.605 75.6507 140.322 62.6275 135.42 50.7921C130.517 38.9568 122.215 28.8409 111.564 21.7238C100.912 14.6066 88.3894 10.8079 75.5789 10.8079C75.131 10.8079 74.7014 10.63 74.3846 10.3132C74.0679 9.99648 73.89 9.56685 73.89 9.1189C73.89 8.67095 74.0679 8.24131 74.3846 7.92456C74.7014 7.60781 75.131 7.42993 75.5789 7.42993C93.6534 7.42993 110.988 14.61 123.768 27.3906C136.549 40.1712 143.729 57.5055 143.729 75.58C143.729 93.6545 136.549 110.989 123.768 123.769C110.988 136.55 93.6534 143.73 75.5789 143.73L75.58 143.729Z" fill="#10A783"/>
<path d="M64.9815 106.547L63.1918 100.002H63.9972L65.3651 105.333H65.429L66.8224 100.002H67.7173L69.1108 105.333H69.1747L70.5426 100.002H71.348L69.5582 106.547H68.7401L67.2955 101.331H67.2443L65.7997 106.547H64.9815ZM73.2209 106.662C72.9098 106.662 72.6275 106.603 72.3739 106.486C72.1204 106.367 71.919 106.195 71.7699 105.972C71.6207 105.746 71.5462 105.473 71.5462 105.154C71.5462 104.872 71.6016 104.644 71.7124 104.47C71.8232 104.293 71.9712 104.154 72.1566 104.054C72.342 103.954 72.5465 103.879 72.7702 103.83C72.9961 103.779 73.223 103.739 73.451 103.709C73.7493 103.671 73.9911 103.642 74.1765 103.623C74.364 103.601 74.5004 103.566 74.5856 103.517C74.6729 103.468 74.7166 103.383 74.7166 103.261V103.236C74.7166 102.921 74.6303 102.676 74.4577 102.501C74.2873 102.326 74.0284 102.239 73.6811 102.239C73.321 102.239 73.0387 102.318 72.8342 102.475C72.6296 102.633 72.4858 102.801 72.4027 102.98L71.6868 102.725C71.8146 102.426 71.9851 102.194 72.1982 102.028C72.4134 101.859 72.6477 101.742 72.9013 101.676C73.157 101.608 73.4084 101.574 73.6555 101.574C73.8132 101.574 73.9943 101.593 74.1989 101.632C74.4055 101.668 74.6048 101.743 74.7965 101.858C74.9904 101.973 75.1513 102.147 75.2791 102.379C75.407 102.612 75.4709 102.923 75.4709 103.313V106.547H74.7166V105.882H74.6783C74.6271 105.989 74.5419 106.103 74.4226 106.224C74.3033 106.346 74.1445 106.449 73.9464 106.534C73.7482 106.619 73.5064 106.662 73.2209 106.662ZM73.3359 105.984C73.6342 105.984 73.8857 105.926 74.0902 105.809C74.2969 105.692 74.4524 105.54 74.5568 105.355C74.6634 105.17 74.7166 104.975 74.7166 104.77V104.08C74.6847 104.118 74.6143 104.153 74.5057 104.185C74.3991 104.215 74.2756 104.242 74.1349 104.265C73.9964 104.286 73.8612 104.306 73.729 104.323C73.5991 104.337 73.4936 104.35 73.4126 104.361C73.2166 104.386 73.0334 104.428 72.8629 104.486C72.6946 104.541 72.5582 104.625 72.4538 104.738C72.3516 104.849 72.3004 105 72.3004 105.192C72.3004 105.454 72.3974 105.652 72.5913 105.786C72.7873 105.918 73.0355 105.984 73.3359 105.984ZM77.6018 100.002V106.547H76.8476V100.002H77.6018ZM79.7376 100.002V106.547H78.9833V100.002H79.7376ZM83.1773 106.649C82.7043 106.649 82.2963 106.545 81.9532 106.336C81.6123 106.125 81.3492 105.831 81.1638 105.454C80.9806 105.075 80.8889 104.634 80.8889 104.131C80.8889 103.628 80.9806 103.185 81.1638 102.801C81.3492 102.416 81.607 102.115 81.9372 101.9C82.2696 101.683 82.6574 101.574 83.1006 101.574C83.3563 101.574 83.6088 101.617 83.858 101.702C84.1073 101.787 84.3343 101.926 84.5388 102.117C84.7433 102.307 84.9063 102.558 85.0278 102.872C85.1492 103.185 85.21 103.57 85.21 104.029V104.348H81.4259V103.696H84.4429C84.4429 103.419 84.3875 103.172 84.2767 102.955C84.1681 102.737 84.0125 102.566 83.8101 102.44C83.6098 102.314 83.3733 102.252 83.1006 102.252C82.8002 102.252 82.5402 102.326 82.3208 102.475C82.1034 102.622 81.9362 102.814 81.819 103.051C81.7018 103.287 81.6432 103.541 81.6432 103.811V104.246C81.6432 104.617 81.7071 104.931 81.835 105.189C81.9649 105.444 82.145 105.639 82.3751 105.774C82.6052 105.906 82.8726 105.972 83.1773 105.972C83.3754 105.972 83.5544 105.944 83.7142 105.889C83.8762 105.831 84.0157 105.746 84.1329 105.633C84.2501 105.518 84.3406 105.375 84.4046 105.205L85.1333 105.409C85.0566 105.656 84.9276 105.874 84.7465 106.061C84.5654 106.247 84.3417 106.391 84.0754 106.496C83.809 106.598 83.5097 106.649 83.1773 106.649ZM88.4923 101.638V102.277H85.9482V101.638H88.4923ZM86.6897 100.462H87.444V105.141C87.444 105.354 87.4749 105.514 87.5367 105.62C87.6006 105.725 87.6816 105.795 87.7796 105.831C87.8797 105.865 87.9852 105.882 88.096 105.882C88.1791 105.882 88.2472 105.878 88.3005 105.869C88.3538 105.859 88.3964 105.85 88.4284 105.844L88.5818 106.521C88.5306 106.541 88.4593 106.56 88.3676 106.579C88.276 106.6 88.1599 106.611 88.0193 106.611C87.8062 106.611 87.5974 106.565 87.3928 106.473C87.1904 106.382 87.0221 106.242 86.8879 106.055C86.7558 105.867 86.6897 105.631 86.6897 105.345V100.462Z" fill="#5B749E"/>
<mask id="mask0_3209_2101" style="mask-type:luminance" maskUnits="userSpaceOnUse" x="59" y="58" width="34" height="35">
<path d="M92.83 58.416H59V92.229H92.83V58.416Z" fill="white"/>
</mask>
<g mask="url(#mask0_3209_2101)">
<path d="M87.61 92.23H62.24C62.1923 92.2053 62.142 92.1858 62.09 92.1721C61.2373 92.0478 60.4574 91.6219 59.8921 90.9716C59.3267 90.3213 59.0134 89.4897 59.009 88.628C58.9977 82.602 58.9977 76.5781 59.009 70.5561C59.0174 69.7114 59.3224 68.8967 59.8709 68.2543C60.4193 67.6119 61.1761 67.1828 62.009 67.0421C62.133 67.0191 62.254 66.9931 62.397 66.9641C62.25 66.5641 62.118 66.2071 61.985 65.8471C61.8552 65.5471 61.7904 65.2231 61.7946 64.8963C61.7988 64.5696 61.8721 64.2474 62.0096 63.9509C62.1471 63.6544 62.3457 63.3903 62.5923 63.176C62.839 62.9616 63.1282 62.8018 63.441 62.7071C67.2137 61.3351 70.984 59.9647 74.752 58.5961C75.0541 58.4637 75.381 58.3976 75.7107 58.4022C76.0405 58.4068 76.3654 58.482 76.6637 58.6227C76.962 58.7634 77.2266 58.9663 77.4399 59.2179C77.6531 59.4695 77.81 59.7638 77.9 60.0811C78.116 60.6811 78.346 61.2751 78.542 61.8811C78.5506 61.9358 78.57 61.9884 78.5989 62.0356C78.6279 62.0829 78.6659 62.124 78.7107 62.1566C78.7556 62.1892 78.8064 62.2127 78.8604 62.2256C78.9143 62.2386 78.9702 62.2407 79.025 62.2321C81.025 62.2174 83.0287 62.2174 85.036 62.2321C85.5804 62.2244 86.1093 62.4136 86.5253 62.765C86.9413 63.1163 87.2164 63.606 87.3 64.1441C87.3392 64.4494 87.3526 64.7575 87.34 65.0651C87.346 65.7011 87.34 66.3371 87.34 66.9701C87.8308 66.9965 88.3115 67.12 88.7542 67.3334C89.197 67.5468 89.5931 67.8459 89.9195 68.2133C90.246 68.5807 90.4964 69.0091 90.6563 69.4739C90.8162 69.9387 90.8824 70.4305 90.851 70.9211C90.802 72.0431 90.851 73.1681 90.837 74.2911C90.837 74.5101 90.874 74.616 91.119 74.671C91.5904 74.7638 92.0077 75.035 92.284 75.428C92.4888 75.7739 92.6696 76.1334 92.825 76.504V82.5821C92.75 82.7751 92.69 82.9731 92.601 83.1581C92.4382 83.5048 92.1927 83.8063 91.8862 84.0361C91.5797 84.2659 91.2215 84.417 90.843 84.476V84.85C90.843 86.125 90.857 87.4001 90.837 88.6721C90.8209 89.436 90.5637 90.1752 90.1021 90.7841C89.6405 91.393 88.9982 91.8403 88.267 92.062C88.051 92.128 87.827 92.1741 87.605 92.2321M88.86 74.583C88.86 73.245 88.866 71.9591 88.86 70.6691C88.8688 70.4424 88.8305 70.2164 88.7474 70.0054C88.6643 69.7943 88.5383 69.6028 88.3774 69.443C88.2164 69.2832 88.0241 69.1586 87.8124 69.077C87.6008 68.9954 87.3746 68.9586 87.148 68.9691C78.9987 68.9691 70.851 68.9691 62.705 68.9691C62.4753 68.9565 62.2455 68.9925 62.0307 69.0747C61.8158 69.1569 61.6207 69.2834 61.458 69.4461C61.2953 69.6087 61.1688 69.8039 61.0866 70.0187C61.0044 70.2336 60.9684 70.4634 60.981 70.6931V88.493C60.9676 88.7255 61.0033 88.9581 61.086 89.1757C61.1687 89.3934 61.2963 89.5911 61.4607 89.756C61.625 89.9209 61.8223 90.0493 62.0397 90.1327C62.257 90.2161 62.4895 90.2527 62.722 90.24C70.8553 90.24 78.9913 90.24 87.13 90.24C87.36 90.2517 87.5898 90.2152 87.8049 90.1328C88.0199 90.0504 88.2154 89.924 88.3787 89.7617C88.5421 89.5994 88.6697 89.4048 88.7534 89.1903C88.8372 88.9757 88.8752 88.7461 88.865 88.5161C88.865 87.2701 88.865 86.027 88.865 84.781V84.493C88.695 84.493 88.554 84.493 88.416 84.493C87.15 84.479 85.875 84.551 84.616 84.43C83.4668 84.302 82.4003 83.7705 81.6061 82.9301C80.812 82.0896 80.3417 80.9947 80.279 79.84C80.2069 78.6688 80.5539 77.51 81.2581 76.5712C81.9622 75.6324 82.9774 74.9748 84.122 74.716C84.5417 74.6313 84.9688 74.5881 85.397 74.587C86.539 74.57 87.682 74.5811 88.865 74.5811M73.8 66.9851C73.8 66.1361 73.791 65.3251 73.8 64.5101C73.8046 63.9087 74.0446 63.333 74.4686 62.9065C74.8925 62.4799 75.4667 62.2364 76.068 62.2281C76.215 62.2281 76.368 62.2281 76.554 62.2281C76.361 61.6871 76.191 61.2011 76.013 60.7171C75.892 60.3921 75.763 60.3311 75.429 60.4551C71.663 61.8251 67.896 63.1967 64.128 64.5701C63.786 64.6971 63.728 64.8231 63.86 65.1771C64.041 65.6861 64.243 66.1841 64.41 66.6961C64.4282 66.7905 64.4827 66.8742 64.5617 66.9291C64.6407 66.984 64.7381 67.0059 64.833 66.9901C67.552 66.9811 70.272 66.9841 72.988 66.9841L73.8 66.9851ZM87.737 76.5651H87.08C86.3315 76.537 85.5821 76.5494 84.835 76.6021C84.0833 76.6952 83.3965 77.0749 82.9177 77.6619C82.439 78.2489 82.2051 78.9979 82.265 79.753C82.3206 80.5024 82.6577 81.2029 83.2087 81.7138C83.7597 82.2247 84.4836 82.5081 85.235 82.507C86.941 82.521 88.648 82.513 90.354 82.507C90.742 82.507 90.843 82.407 90.846 82.024V77.039C90.846 76.662 90.751 76.5671 90.38 76.5641H87.739M85.362 66.9701C85.362 66.1501 85.362 65.3581 85.362 64.5701C85.3675 64.5229 85.3624 64.4751 85.3472 64.4301C85.332 64.3851 85.307 64.3441 85.274 64.3099C85.241 64.2758 85.2008 64.2494 85.1564 64.2326C85.1119 64.2159 85.0643 64.2092 85.017 64.2131C82.059 64.2131 79.1 64.2131 76.142 64.2251C76.024 64.2251 75.811 64.4011 75.808 64.4981C75.779 65.3181 75.791 66.1381 75.791 66.9731L85.362 66.9701Z" fill="#10A783"/>
<path d="M85.2209 80.527C84.9595 80.5213 84.7108 80.4134 84.528 80.2265C84.3452 80.0396 84.2429 79.7885 84.2429 79.527C84.2442 79.397 84.2711 79.2686 84.3221 79.149C84.3731 79.0293 84.4471 78.9209 84.54 78.8299C84.6328 78.7389 84.7427 78.6671 84.8633 78.6186C84.9839 78.57 85.1129 78.5457 85.2429 78.547C85.3729 78.5484 85.5014 78.5753 85.621 78.6262C85.7406 78.6772 85.849 78.7512 85.94 78.8441C86.031 78.9369 86.1028 79.0468 86.1514 79.1674C86.1999 79.288 86.2242 79.417 86.2229 79.547C86.2142 79.8073 86.1053 80.054 85.9189 80.2359C85.7326 80.4177 85.4833 80.5206 85.2229 80.523" fill="#10A783"/>
</g>
</svg>
