<svg width="45" height="45" viewBox="0 0 45 45" fill="none" xmlns="http://www.w3.org/2000/svg">
<path d="M22.947 6.70009C19.7647 6.71372 16.6577 7.66981 14.0183 9.44765C11.3789 11.2255 9.32525 13.7454 8.11668 16.6893C6.90811 19.6333 6.59862 22.8692 7.22752 25.9888C7.85642 29.1084 9.39558 31.9718 11.6504 34.2175C13.9052 36.4633 16.7746 37.9906 19.8967 38.607C23.0188 39.2233 26.2536 38.901 29.1926 37.6806C32.1316 36.4601 34.6432 34.3963 36.4104 31.7498C38.1776 29.1032 39.1212 25.9924 39.1221 22.8101C39.1186 20.69 38.6974 18.5913 37.8825 16.634C37.0677 14.6768 35.8749 12.8993 34.3728 11.4032C32.8706 9.90709 31.0884 8.72168 29.1279 7.91469C27.1674 7.1077 25.0671 6.69496 22.947 6.70009ZM23.0039 37.5331C20.0802 37.5318 17.2234 36.6603 14.7969 35.0294C12.3703 33.3986 10.4841 31.0823 9.37864 28.3757C8.2732 25.6692 7.99856 22.6947 8.58958 19.8314C9.18059 16.9682 10.6105 14.3457 12.6972 12.298C14.784 10.2503 17.4332 8.87014 20.3071 8.33339C23.1811 7.79664 26.1497 8.12751 28.8349 9.28395C31.5201 10.4404 33.8003 12.37 35.385 14.8269C36.9696 17.2839 37.7869 20.157 37.7329 23.0801C37.6593 26.938 36.0754 30.6132 33.3213 33.3157C30.5671 36.0182 26.8625 37.5325 23.0039 37.5331Z" fill="#969696"/>
<path d="M12.489 0.794082C12.4082 0.782942 12.3267 0.778222 12.2451 0.780044C10.1118 0.780044 7.97833 0.780044 5.845 0.780044C5.31441 0.777596 4.78692 0.861077 4.28298 1.02711C3.22818 1.37269 2.3126 2.04851 1.67166 2.95473C1.03071 3.86094 0.698362 4.94942 0.723902 6.0591C0.718902 7.0381 0.723902 8.01603 0.723902 8.99403C0.723902 10.122 0.723902 11.2501 0.723902 12.3781C0.719972 12.527 0.736849 12.6758 0.773951 12.8201C0.82073 12.9664 0.916043 13.0923 1.04397 13.1773C1.1719 13.2622 1.32484 13.3011 1.47781 13.2875C1.63077 13.2739 1.77462 13.2085 1.88552 13.1023C1.99643 12.9961 2.06772 12.8553 2.08792 12.703C2.0991 12.5677 2.10214 12.4318 2.09695 12.296C2.09695 10.217 2.09708 8.13712 2.10208 6.05812C2.10052 5.71893 2.13816 5.38064 2.21414 5.05006C2.4063 4.21402 2.88011 3.46946 3.55618 2.94142C4.23225 2.41338 5.06933 2.13398 5.92703 2.15004C7.95203 2.14504 9.976 2.15004 12.001 2.15004C12.1773 2.15584 12.3539 2.14483 12.5281 2.11708C12.6834 2.08765 12.8223 2.00244 12.9192 1.87758C13.0161 1.75271 13.0641 1.59682 13.054 1.4391C13.0527 1.28175 12.9948 1.1301 12.8911 1.01173C12.7874 0.893364 12.6448 0.816112 12.489 0.794082Z" fill="#969696"/>
<path d="M42.8191 2.63101C42.3562 2.05694 41.771 1.59347 41.1062 1.27444C40.4413 0.955418 39.7135 0.788906 38.976 0.787015C37.644 0.768015 36.312 0.778982 34.976 0.777982C34.476 0.777982 33.97 0.769963 33.468 0.783963C33.2893 0.780197 33.1165 0.847337 32.987 0.970609C32.8576 1.09388 32.782 1.26336 32.7771 1.44204C32.7742 1.62069 32.8409 1.79342 32.9629 1.92398C33.0848 2.05454 33.2527 2.1327 33.4311 2.142C33.5396 2.15066 33.6483 2.15339 33.757 2.15005C35.457 2.15005 37.1571 2.15005 38.8571 2.15005C39.4442 2.13957 40.0251 2.27035 40.551 2.5314C41.0769 2.79245 41.5325 3.17613 41.8791 3.65005C42.3707 4.27785 42.6368 5.05264 42.635 5.85C42.643 7.957 42.6351 10.064 42.6411 12.171C42.6411 12.334 42.6331 12.4981 42.6491 12.6601C42.6605 12.8174 42.7267 12.9657 42.8364 13.079C42.9461 13.1924 43.0921 13.2636 43.249 13.2801C43.4127 13.302 43.5789 13.2621 43.7148 13.1681C43.8507 13.0742 43.9467 12.9329 43.9841 12.772C44.0122 12.6406 44.0239 12.5062 44.019 12.372C44.019 11.2846 44.019 10.1973 44.019 9.11001C44.019 8.05001 44.029 6.98998 44.019 5.92898C44.0275 4.72131 43.6016 3.55085 42.8191 2.63101Z" fill="#969696"/>
<path d="M12.435 42.685C12.3265 42.676 12.2175 42.674 12.1088 42.679C10.0148 42.679 7.92082 42.679 5.82582 42.67C4.82821 42.6586 3.87573 42.2524 3.17714 41.5401C2.47855 40.8278 2.09077 39.8677 2.09877 38.8701C2.08977 37.2381 2.09877 35.606 2.09877 33.97C2.09877 33.861 2.10477 33.752 2.09877 33.644C2.09108 33.4793 2.02173 33.3236 1.90443 33.2078C1.78714 33.092 1.63069 33.0246 1.46596 33.019C1.30211 33.0027 1.13814 33.0499 1.00795 33.1507C0.877758 33.2515 0.79128 33.3983 0.766007 33.561C0.741113 33.6928 0.72985 33.8269 0.732804 33.961C0.732804 35.552 0.724804 37.1431 0.732804 38.7341C0.730317 39.1012 0.761778 39.4677 0.826798 39.829C1.04211 41.0252 1.67531 42.106 2.61342 42.8787C3.55153 43.6515 4.73362 44.0658 5.94887 44.048C6.94187 44.048 7.93387 44.048 8.92787 44.048H11.2938C11.6608 44.048 12.0289 44.059 12.3939 44.048C12.4827 44.0482 12.5707 44.0306 12.6527 43.9965C12.7347 43.9624 12.809 43.9125 12.8715 43.8494C12.934 43.7864 12.9834 43.7115 13.0167 43.6292C13.0501 43.5469 13.0667 43.4589 13.0658 43.3701C13.065 43.1978 12.9999 43.0319 12.8832 42.9052C12.7665 42.7785 12.6066 42.7 12.435 42.685Z" fill="#969696"/>
<path d="M43.972 33.4931C43.9304 33.3403 43.8339 33.2083 43.7011 33.1222C43.5682 33.0361 43.4085 33.0019 43.2521 33.0261C43.1015 33.0378 42.9595 33.1011 42.8502 33.2053C42.7409 33.3095 42.6709 33.4483 42.652 33.5982C42.6404 33.7061 42.6367 33.8146 42.641 33.9231C42.641 35.5541 42.6469 37.1841 42.6339 38.8151C42.6348 39.1676 42.5925 39.5189 42.5079 39.8611C42.3059 40.6654 41.8407 41.379 41.1864 41.8886C40.5321 42.3981 39.7264 42.6742 38.8971 42.6731C37.1851 42.6881 35.4731 42.6731 33.7611 42.6731C33.6524 42.6689 33.5434 42.6706 33.4349 42.6781C33.2576 42.69 33.0914 42.7691 32.9701 42.8991C32.8488 43.0291 32.7817 43.2003 32.7821 43.3781C32.7871 43.5568 32.8613 43.7266 32.9894 43.8513C33.1175 43.9761 33.2894 44.046 33.4681 44.0462C33.5501 44.0522 33.631 44.0462 33.713 44.0462H36.403C37.218 44.0462 38.034 44.0462 38.849 44.0462C39.5268 44.0491 40.1987 43.918 40.8258 43.6605C41.4529 43.4031 42.0228 43.0244 42.5031 42.546C42.9833 42.0677 43.3644 41.4992 43.6244 40.8732C43.8844 40.2472 44.0181 39.5759 44.0179 38.8981C44.0309 37.2271 44.0179 35.556 44.0179 33.884C44.0211 33.7522 44.0057 33.6206 43.972 33.4931Z" fill="#969696"/>
<path d="M27.7521 28.855C27.6374 28.8677 27.5263 28.9038 27.4262 28.9613C27.3261 29.0188 27.239 29.0963 27.1701 29.189C26.6335 29.7558 25.9868 30.2072 25.2697 30.5154C24.5526 30.8236 23.7802 30.982 22.9997 30.9812C22.2192 30.9804 21.4471 30.8202 20.7306 30.5105C20.0142 30.2008 19.3685 29.7481 18.8332 29.1801C18.7791 29.119 18.7212 29.0611 18.6601 29.007C18.5322 28.9025 18.3713 28.8474 18.2062 28.8512C18.0412 28.8551 17.883 28.9177 17.7602 29.028C17.6373 29.1376 17.5589 29.2887 17.5405 29.4524C17.522 29.6161 17.5647 29.7808 17.6601 29.915C17.7386 30.0261 17.8272 30.1295 17.925 30.224C19.2569 31.5744 21.0694 32.3424 22.966 32.36C23.9356 32.3722 24.8973 32.183 25.79 31.8043C26.6827 31.4256 27.487 30.8657 28.152 30.16C28.2395 30.0743 28.3158 29.9779 28.3791 29.8731C28.4404 29.7669 28.4718 29.646 28.4699 29.5234C28.4681 29.4008 28.4331 29.281 28.3686 29.1768C28.304 29.0725 28.2124 28.9877 28.1035 28.9314C27.9945 28.8751 27.8726 28.8495 27.7502 28.8571L27.7521 28.855Z" fill="#969696"/>
<path d="M17.4039 18.922C17.3931 18.6779 17.2876 18.4476 17.1097 18.2801C16.9319 18.1125 16.6956 18.0208 16.4513 18.0246C16.207 18.0284 15.9738 18.1272 15.8011 18.3002C15.6285 18.4732 15.5302 18.7066 15.527 18.951C15.538 19.724 15.518 20.499 15.537 21.272C15.5409 21.5057 15.634 21.7291 15.7972 21.8964C15.9605 22.0637 16.1814 22.1624 16.4149 22.172C16.641 22.1797 16.8624 22.1062 17.0392 21.965C17.2159 21.8238 17.3365 21.6242 17.379 21.402C17.4007 21.282 17.4103 21.16 17.4078 21.038C17.4078 20.726 17.4078 20.413 17.4078 20.101V19.694C17.4078 19.438 17.4219 19.178 17.4039 18.922Z" fill="#969696"/>
<path d="M29.4671 18.0111C29.3446 18.0149 29.224 18.0432 29.1126 18.0942C29.0012 18.1453 28.9011 18.2181 28.8182 18.3083C28.7353 18.3986 28.6713 18.5045 28.6299 18.6198C28.5885 18.7352 28.5704 18.8577 28.577 18.9801C28.567 19.3461 28.577 19.7131 28.577 20.0801C28.577 20.4471 28.57 20.813 28.577 21.18C28.5701 21.3059 28.5887 21.4318 28.6314 21.5504C28.6741 21.669 28.7402 21.7779 28.8257 21.8705C28.9112 21.9631 29.0144 22.0375 29.1292 22.0895C29.244 22.1414 29.3682 22.1699 29.4942 22.1731C29.6171 22.177 29.7396 22.1561 29.8543 22.1118C29.969 22.0675 30.0735 22.0005 30.1619 21.915C30.2503 21.8295 30.3208 21.7272 30.3689 21.614C30.4171 21.5008 30.442 21.3791 30.4422 21.2561C30.4702 20.4831 30.4722 19.708 30.4422 18.936C30.4451 18.8095 30.4213 18.6837 30.3726 18.5669C30.324 18.45 30.2513 18.3447 30.1595 18.2575C30.0676 18.1704 29.9587 18.1035 29.8394 18.061C29.7201 18.0186 29.5933 18.0016 29.4671 18.0111Z" fill="#969696"/>
<path d="M23.255 25.737C23.0694 25.737 22.8914 25.6633 22.7601 25.532C22.6289 25.4008 22.5551 25.2227 22.5551 25.037V19.888C22.5551 19.7961 22.5731 19.7051 22.6083 19.6202C22.6435 19.5353 22.6951 19.4581 22.7601 19.3931C22.8251 19.3281 22.9023 19.2765 22.9872 19.2413C23.0721 19.2061 23.1631 19.188 23.255 19.188C23.3469 19.188 23.4379 19.2061 23.5228 19.2413C23.6078 19.2765 23.6849 19.3281 23.7499 19.3931C23.8149 19.4581 23.8666 19.5353 23.9017 19.6202C23.9369 19.7051 23.955 19.7961 23.955 19.888V25.037C23.955 25.2227 23.8812 25.4008 23.7499 25.532C23.6186 25.6633 23.4407 25.737 23.255 25.737Z" fill="#969696"/>
</svg>
