<svg width="148" height="36" viewBox="0 0 148 36" fill="none" xmlns="http://www.w3.org/2000/svg">
<path d="M1.49996 14.77C2.41305 12.9249 3.8256 11.3731 5.57696 10.291C7.3115 9.24096 9.30549 8.69777 11.333 8.723C13.0214 8.68471 14.6925 9.06975 16.194 9.843C17.5032 10.5225 18.6435 11.4868 19.531 12.665V9.126H25.847V33.943H19.53V30.314C18.6645 31.5299 17.5202 32.5205 16.193 33.203C14.6805 33.9866 12.996 34.3795 11.293 34.346C9.27414 34.3661 7.29198 33.8062 5.58195 32.733C3.829 31.622 2.41651 30.049 1.49996 28.187C0.467926 26.092 -0.046467 23.78 -4.4605e-05 21.445C-0.0448325 19.1317 0.469757 16.8418 1.49996 14.77ZM18.634 17.615C18.0786 16.5688 17.2404 15.6998 16.215 15.107C15.2219 14.5304 14.0932 14.2287 12.945 14.233C11.7924 14.2218 10.6589 14.527 9.66779 15.1154C8.67668 15.7038 7.86599 16.5528 7.32396 17.57C6.68731 18.7603 6.37097 20.0956 6.40596 21.445C6.37455 22.8084 6.69045 24.1573 7.32396 25.365C7.88115 26.4276 8.71747 27.3182 9.74296 27.941C10.7065 28.5297 11.8138 28.8411 12.943 28.841C14.0911 28.8453 15.2197 28.544 16.213 27.968C17.2385 27.3749 18.0767 26.5055 18.632 25.459C19.259 24.2496 19.5687 22.9008 19.532 21.539C19.5685 20.1772 19.2588 18.8285 18.632 17.619" fill="black"/>
<path d="M37.0399 9.12598H30.7679V33.943H37.0399V9.12598Z" fill="black"/>
<path d="M44.259 15.916C45.1989 14.15 46.6206 12.687 48.359 11.697C50.1218 10.7049 52.1153 10.1958 54.138 10.221C55.7292 10.2166 57.3029 10.5545 58.752 11.212C60.1125 11.7955 61.3114 12.7 62.246 13.848V2.758H68.607V33.966H62.242V30.508C61.4136 31.7052 60.2863 32.6647 58.972 33.291C57.4495 34.0204 55.7768 34.3818 54.089 34.346C52.0769 34.3656 50.0971 33.8408 48.359 32.827C46.6208 31.8095 45.2009 30.3273 44.259 28.547C43.2308 26.591 42.7147 24.4064 42.759 22.197C42.7168 20.0089 43.2331 17.8461 44.259 15.913M61.39 18.597C60.821 17.5984 59.9828 16.78 58.971 16.235C57.9677 15.6895 56.8429 15.4064 55.701 15.412C54.5756 15.4018 53.4661 15.6771 52.476 16.212C51.4769 16.7576 50.6467 17.567 50.076 18.552C49.4432 19.6605 49.1261 20.9211 49.159 22.197C49.1294 23.487 49.4464 24.7612 50.077 25.887C50.6398 26.8813 51.4571 27.708 52.4448 28.2823C53.4326 28.8566 54.5554 29.1578 55.698 29.155C56.8398 29.1606 57.9645 28.8779 58.968 28.333C59.9798 27.788 60.818 26.9695 61.387 25.971C62.0112 24.8435 62.322 23.5693 62.287 22.281C62.3218 20.9927 62.011 19.7186 61.387 18.591" fill="black"/>
<path d="M82.4719 9.88801C83.832 9.12605 85.3702 8.7395 86.9289 8.76801V15.353H85.2719C83.664 15.2334 82.0707 15.7296 80.8149 16.741C79.8149 17.667 79.3149 19.2797 79.3149 21.579V33.943H73.0439V9.12901H79.3149V12.979C80.0884 11.6975 81.1751 10.6338 82.4729 9.88801" fill="black"/>
<path d="M90.8279 14.77C91.741 12.9249 93.1536 11.3731 94.9049 10.291C96.6395 9.24096 98.6335 8.69778 100.661 8.723C102.349 8.68467 104.021 9.06971 105.522 9.843C106.831 10.5225 107.971 11.4868 108.859 12.665V9.126H115.175V33.943H108.859V30.314C107.994 31.5299 106.849 32.5206 105.522 33.203C104.009 33.9866 102.325 34.3795 100.622 34.346C98.6031 34.3661 96.621 33.8062 94.9109 32.733C93.1598 31.6213 91.7491 30.0484 90.8339 28.187C89.8019 26.092 89.2875 23.78 89.3339 21.445C89.2889 19.1317 89.8035 16.8417 90.8339 14.77M107.968 17.615C107.413 16.5688 106.574 15.6998 105.549 15.107C104.556 14.5304 103.427 14.2288 102.279 14.233C101.126 14.2218 99.9929 14.527 99.0018 15.1154C98.0107 15.7038 97.2 16.5528 96.6579 17.57C96.0213 18.7603 95.7049 20.0956 95.7399 21.445C95.7085 22.8084 96.0244 24.1573 96.6579 25.365C97.2151 26.4276 98.0514 27.3182 99.0769 27.941C100.04 28.5297 101.148 28.8412 102.277 28.841C103.425 28.8453 104.554 28.544 105.547 27.968C106.572 27.3749 107.411 26.5055 107.966 25.459C108.593 24.2496 108.903 22.9008 108.866 21.539C108.902 20.1772 108.593 18.8285 107.966 17.619" fill="black"/>
<path d="M145.424 0.860009H122.908C122.678 0.858824 122.449 0.903094 122.236 0.990285C122.022 1.07748 121.828 1.20588 121.665 1.36814C121.501 1.5304 121.371 1.72334 121.282 1.93592C121.193 2.1485 121.147 2.37655 121.146 2.60701V22.66C121.151 23.6224 121.349 24.5739 121.73 25.4577C122.111 26.3416 122.666 27.1395 123.362 27.804L129.401 33.648C130.478 34.6821 131.867 35.3317 133.351 35.496L135.211 35.465C136.609 35.2622 137.909 34.6268 138.928 33.648L144.967 27.804C145.663 27.1395 146.218 26.3416 146.599 25.4577C146.98 24.5739 147.178 23.6224 147.183 22.66V2.60701C147.181 2.14217 146.995 1.69707 146.665 1.3695C146.335 1.04193 145.889 0.85868 145.424 0.860009ZM129.331 22.295C129.274 22.3128 129.214 22.3219 129.154 22.322C129.028 22.3222 128.905 22.2807 128.804 22.204L127.008 20.83C126.952 20.7883 126.905 20.7354 126.87 20.6747C126.835 20.614 126.813 20.5467 126.805 20.4771C126.797 20.4075 126.804 20.337 126.824 20.27C126.845 20.2031 126.879 20.1411 126.925 20.088C127.02 19.9776 127.155 19.9084 127.3 19.895C127.446 19.8797 127.593 19.9208 127.71 20.01L127.758 20.046C127.694 19.8004 127.646 19.5509 127.614 19.299C127.447 17.9688 127.74 16.6216 128.445 15.481C129.65 13.4903 130.861 11.5037 132.08 9.52101C132.297 9.16171 132.602 8.86429 132.967 8.65743C133.332 8.45057 133.744 8.34125 134.164 8.34001C134.585 8.34148 134.999 8.45158 135.366 8.65968C135.732 8.86778 136.039 9.16685 136.256 9.52801L137.413 11.409L135.957 12.209L134.808 10.329C134.746 10.2126 134.654 10.1145 134.543 10.0443C134.431 9.97413 134.303 9.93439 134.171 9.92901C134.041 9.93387 133.915 9.97239 133.805 10.0408C133.695 10.1091 133.604 10.205 133.542 10.319C132.323 12.297 131.113 14.2803 129.912 16.269C129.383 17.1183 129.164 18.1248 129.294 19.117C129.301 19.181 129.314 19.244 129.325 19.308C129.356 19.2737 129.392 19.2435 129.431 19.218C129.559 19.1449 129.711 19.1237 129.854 19.159C129.943 19.1788 130.026 19.2206 130.094 19.2808C130.163 19.3409 130.215 19.4173 130.246 19.503C130.281 19.5993 130.286 19.704 130.259 19.803L129.701 21.922C129.677 22.01 129.631 22.0905 129.567 22.1557C129.503 22.221 129.423 22.2689 129.336 22.295M140.181 21.177C139.727 22.0931 139.064 22.8897 138.246 23.5024C137.428 24.115 136.477 24.5267 135.47 24.704C135.194 24.7546 134.915 24.7903 134.635 24.811L134.469 24.827L134.369 24.833H134.333C132.734 24.844 131.178 24.3155 129.916 23.333L130.998 22.113C131.947 22.8488 133.116 23.2453 134.317 23.239L134.478 23.224C134.696 23.2084 134.912 23.1814 135.127 23.143C135.879 23.012 136.589 22.7059 137.201 22.2496C137.813 21.7932 138.308 21.1994 138.648 20.516C138.97 19.8432 139.118 19.1002 139.078 18.3552C139.038 17.6103 138.812 16.8874 138.419 16.253C138.209 15.898 137.994 15.546 137.781 15.193C137.758 15.2948 137.703 15.3868 137.625 15.456C137.521 15.5446 137.389 15.5928 137.252 15.592H137.223C137.131 15.5884 137.041 15.5623 136.962 15.5159C136.882 15.4695 136.815 15.4043 136.767 15.326C136.715 15.2399 136.69 15.1404 136.695 15.04L136.808 12.86C136.813 12.77 136.842 12.6829 136.891 12.6072C136.94 12.5315 137.008 12.4698 137.088 12.428C137.17 12.384 137.262 12.3602 137.355 12.3586C137.449 12.357 137.541 12.3778 137.625 12.419L139.666 13.439C139.73 13.4689 139.786 13.5115 139.833 13.5641C139.879 13.6168 139.915 13.6784 139.937 13.7452C139.958 13.812 139.966 13.8825 139.96 13.9525C139.953 14.0224 139.933 14.0903 139.899 14.152C139.828 14.2779 139.71 14.3706 139.571 14.41C139.462 14.4389 139.347 14.4351 139.24 14.399C139.456 14.757 139.673 15.114 139.887 15.473C140.409 16.3225 140.71 17.2895 140.762 18.2855C140.813 19.2814 140.613 20.2743 140.181 21.173" fill="black"/>
</svg>
